<svg id="Layer_1" data-name="Layer 1" xmlns="http://www.w3.org/2000/svg" viewBox="0 0 1536 1536"><defs><style>.cls-1{fill:#c1f4f5;}.cls-2{fill:#74e6e0;}.cls-10,.cls-11,.cls-12,.cls-3,.cls-4,.cls-5,.cls-6,.cls-7,.cls-8,.cls-9{fill:none;stroke:#fff;stroke-miterlimit:10;}.cls-4{stroke-dasharray:12.13 3.03;}.cls-5{stroke-dasharray:12.02 3;}.cls-6{stroke-dasharray:12.08 3.02;}.cls-7{stroke-dasharray:11.89 2.97;}.cls-8{stroke-dasharray:12.1 3.02;}.cls-9{stroke-dasharray:11.94 2.98;}.cls-10{stroke-dasharray:12.05 3.01;}.cls-11{stroke-dasharray:12.05 3.01;}.cls-12{stroke-dasharray:12.06 3.02;}</style></defs><title>backgound</title><rect class="cls-1" width="1536" height="1536"/><circle class="cls-2" cx="515.03" cy="150.35" r="21.66" transform="translate(259.37 622.05) rotate(-77.82)"/><ellipse class="cls-2" cx="548.55" cy="149.01" rx="3.09" ry="7.91" transform="translate(-12.28 56.36) rotate(-5.82)"/><polygon class="cls-2" points="528.61 148.01 548.42 147.7 548.71 150.5 529.24 154.19 528.61 148.01"/><ellipse class="cls-2" cx="532.15" cy="191.67" rx="11.72" ry="4.58" transform="translate(-32.08 231.2) rotate(-23.82)"/><polygon class="cls-2" points="524.42 163.1 533.93 190.88 530.12 192.57 516 166.82 524.42 163.1"/><ellipse class="cls-2" cx="489.11" cy="175.25" rx="3.09" ry="7.91" transform="matrix(0.75, -0.67, 0.67, 0.75, 7.74, 370.75)"/><polygon class="cls-2" points="505.83 164.34 489.98 176.23 488.11 174.14 501.69 159.71 505.83 164.34"/><ellipse class="cls-2" cx="473.28" cy="126.96" rx="13.05" ry="5.11" transform="translate(125.57 472.23) rotate(-59.82)"/><polygon class="cls-2" points="498.94 147.65 472.19 128.84 474.52 124.83 504.09 138.79 498.94 147.65"/><ellipse class="cls-2" cx="523.5" cy="111.09" rx="4.37" ry="11.18" transform="translate(304.43 599.36) rotate(-77.82)"/><polygon class="cls-2" points="513.44 137.47 521.68 110.7 525.57 111.53 522.03 139.33 513.44 137.47"/><circle class="cls-2" cx="1410.64" cy="895.72" r="21.66" transform="translate(-258.86 966.37) rotate(-34.84)"/><ellipse class="cls-2" cx="1432.52" cy="870.28" rx="3.09" ry="7.91" transform="translate(-126.39 1486.15) rotate(-52.84)"/><polygon class="cls-2" points="1418.19 884.19 1431.47 869.48 1433.71 871.18 1423.14 887.94 1418.19 884.19"/><ellipse class="cls-2" cx="1452.54" cy="911.37" rx="11.72" ry="4.59" transform="translate(114.87 1984.26) rotate(-70.84)"/><polygon class="cls-2" points="1426.37 897.54 1453.18 909.52 1451.82 913.46 1423.35 906.23 1426.37 897.54"/><ellipse class="cls-2" cx="1411.19" cy="931.66" rx="3.09" ry="7.91" transform="translate(451.07 2323.64) rotate(-88.84)"/><polygon class="cls-2" points="1414.6 911.99 1412.5 931.69 1409.69 931.63 1408.39 911.86 1414.6 911.99"/><ellipse class="cls-2" cx="1365.07" cy="910.32" rx="5.11" ry="13.05" transform="translate(-205.16 434.41) rotate(-16.84)"/><polygon class="cls-2" points="1397.69 905.65 1365.7 912.4 1364.35 907.96 1394.72 895.84 1397.69 905.65"/><ellipse class="cls-2" cx="1387.69" cy="862.76" rx="11.18" ry="4.37" transform="translate(-244.14 947.35) rotate(-34.84)"/><polygon class="cls-2" points="1400.14 888.1 1386.17 863.82 1389.43 861.55 1407.35 883.09 1400.14 888.1"/><circle class="cls-2" cx="371.07" cy="1109.37" r="21.66" transform="matrix(0.39, -0.92, 0.92, 0.39, -794.78, 1013.51)"/><ellipse class="cls-2" cx="376.16" cy="1076.21" rx="3.09" ry="7.91" transform="translate(-729.69 1353.36) rotate(-84.8)"/><polygon class="cls-2" points="371.37 1095.59 374.85 1076.09 377.65 1076.34 377.55 1096.15 371.37 1095.59"/><ellipse class="cls-2" cx="414.9" cy="1100.46" rx="4.59" ry="11.72" transform="translate(-233.56 119.31) rotate(-12.8)"/><polygon class="cls-2" points="385.38 1102.58 414.47 1098.56 415.39 1102.62 387.42 1111.56 385.38 1102.58"/><ellipse class="cls-2" cx="390.56" cy="1139.57" rx="7.91" ry="3.09" transform="translate(-528.49 360.78) rotate(-30.8)"/><polygon class="cls-2" points="383.04 1121.07 391.69 1138.9 389.28 1140.34 377.71 1124.25 383.04 1121.07"/><ellipse class="cls-2" cx="340.14" cy="1145.89" rx="5.11" ry="13.05" transform="translate(-746.13 647.11) rotate(-48.8)"/><polygon class="cls-2" points="365.35 1124.65 341.77 1147.32 338.29 1144.26 357.63 1117.9 365.35 1124.65"/><ellipse class="cls-2" cx="334.15" cy="1093.55" rx="11.18" ry="4.37" transform="translate(-802.62 969.98) rotate(-66.8)"/><polygon class="cls-2" points="358.13 1108.47 333.42 1095.26 334.98 1091.61 361.59 1100.4 358.13 1108.47"/><circle class="cls-2" cx="167.76" cy="722.93" r="21.66" transform="translate(-562.81 592.4) rotate(-66.8)"/><ellipse class="cls-2" cx="172.85" cy="689.76" rx="3.09" ry="7.91" transform="translate(-529.73 799.44) rotate(-84.8)"/><polygon class="cls-2" points="168.06 709.15 171.54 689.64 174.34 689.9 174.25 709.71 168.06 709.15"/><ellipse class="cls-2" cx="211.59" cy="714.01" rx="4.59" ry="11.72" transform="translate(-152.97 64.65) rotate(-12.8)"/><polygon class="cls-2" points="182.07 716.14 211.16 712.11 212.09 716.17 184.11 725.11 182.07 716.14"/><ellipse class="cls-2" cx="187.25" cy="753.13" rx="7.91" ry="3.09" transform="translate(-359.27 202.15) rotate(-30.8)"/><polygon class="cls-2" points="179.74 734.63 188.38 752.45 185.97 753.89 174.4 737.81 179.74 734.63"/><ellipse class="cls-2" cx="136.83" cy="759.44" rx="5.11" ry="13.05" transform="matrix(0.66, -0.75, 0.75, 0.66, -524.74, 362.2)"/><polygon class="cls-2" points="162.04 738.2 138.47 760.87 134.98 757.82 154.32 731.45 162.04 738.2"/><ellipse class="cls-2" cx="130.84" cy="707.11" rx="11.18" ry="4.37" transform="translate(-570.64 548.87) rotate(-66.8)"/><polygon class="cls-2" points="154.82 722.02 130.11 708.82 131.68 705.17 158.28 713.95 154.82 722.02"/><circle class="cls-2" cx="942.89" cy="108.86" r="21.66" transform="translate(471.46 932.66) rotate(-66.8)"/><ellipse class="cls-2" cx="947.98" cy="75.69" rx="3.09" ry="7.91" transform="translate(786.75 1012.92) rotate(-84.8)"/><polygon class="cls-2" points="943.19 95.08 946.67 75.57 949.47 75.83 949.38 95.64 943.19 95.08"/><ellipse class="cls-2" cx="986.72" cy="99.94" rx="4.58" ry="11.72" transform="translate(2.39 221.17) rotate(-12.8)"/><polygon class="cls-2" points="957.2 102.07 986.29 98.04 987.21 102.1 959.24 111.05 957.2 102.07"/><ellipse class="cls-2" cx="962.38" cy="139.06" rx="7.91" ry="3.09" transform="translate(64.56 512.47) rotate(-30.8)"/><polygon class="cls-2" points="954.87 120.56 963.51 138.38 961.1 139.82 949.53 123.74 954.87 120.56"/><ellipse class="cls-2" cx="911.96" cy="145.37" rx="5.11" ry="13.05" transform="matrix(0.66, -0.75, 0.75, 0.66, 201.92, 735.83)"/><polygon class="cls-2" points="937.17 124.14 913.6 146.8 910.11 143.75 929.45 117.38 937.17 124.14"/><ellipse class="cls-2" cx="905.97" cy="93.04" rx="11.18" ry="4.37" transform="translate(463.61 889.13) rotate(-66.8)"/><polygon class="cls-2" points="929.95 107.95 905.24 94.75 906.8 91.1 933.41 99.88 929.95 107.95"/><circle class="cls-2" cx="644.06" cy="527.61" r="11.09"/><circle class="cls-2" cx="417.32" cy="833.25" r="11.09"/><circle class="cls-2" cx="1101.33" cy="948" r="11.09"/><circle class="cls-2" cx="1133.41" cy="690.01" r="17.87"/><circle class="cls-2" cx="202.3" cy="134.65" r="17.87"/><line class="cls-3" x1="704.31" y1="282.94" x2="705.1" y2="288.89"/><line class="cls-4" x1="705.5" y1="291.9" x2="759.22" y2="696.35"/><line class="cls-3" x1="759.42" y1="697.85" x2="760.21" y2="703.8"/><line class="cls-3" x1="201.79" y1="998.99" x2="205.47" y2="994.25"/><line class="cls-5" x1="207.32" y1="991.87" x2="713.24" y2="340.6"/><polyline class="cls-3" points="714.16 339.41 717.85 334.67 721.56 339.38"/><line class="cls-6" x1="723.43" y1="341.76" x2="1311.17" y2="1087.62"/><line class="cls-3" x1="1312.1" y1="1088.81" x2="1315.82" y2="1093.52"/><line class="cls-3" x1="328.55" y1="441.58" x2="332.97" y2="445.63"/><line class="cls-7" x1="335.16" y1="447.64" x2="805.4" y2="878.34"/><polyline class="cls-3" points="806.5 879.34 810.92 883.39 814.5 878.57"/><line class="cls-8" x1="816.3" y1="876.14" x2="1229.75" y2="318.52"/><line class="cls-3" x1="1230.65" y1="317.3" x2="1234.22" y2="312.48"/><polyline class="cls-3" points="204.16 968.2 198.16 968.19 199.74 962.4"/><line class="cls-9" x1="200.52" y1="959.52" x2="341.24" y2="442.55"/><polyline class="cls-3" points="341.63 441.11 343.2 435.32 348.73 432.99"/><polyline class="cls-10" points="351.51 431.82 704.31 282.94 1202.08 362.32"/><polyline class="cls-3" points="1203.57 362.56 1209.49 363.5 1210.36 369.44"/><line class="cls-11" x1="1210.79" y1="372.42" x2="1314.74" y2="1086.09"/><polyline class="cls-3" points="1314.95 1087.58 1315.82 1093.52 1309.95 1092.26"/><polyline class="cls-12" points="1307 1091.63 732.88 968.4 205.67 968.2"/></svg>