<svg id="BACKGROUND" xmlns="http://www.w3.org/2000/svg" viewBox="0 0 698.65 472.44"><defs><style>.cls-1{fill:#d3ebff;}.cls-2{fill:#fff;}.cls-3,.cls-9{fill:#213765;}.cls-14,.cls-4,.cls-7{fill:none;stroke-miterlimit:10;}.cls-4{stroke:#213765;stroke-width:1px;}.cls-5{fill:#ff7469;}.cls-6{fill:#ff938f;}.cls-14,.cls-7{stroke:#fff;}.cls-7{stroke-width:1.1px;}.cls-8{fill:#0b172d;}.cls-10,.cls-9{opacity:0.1;}.cls-11{fill:#fffee3;}.cls-12{fill:#00438c;}.cls-13{fill:#ff5547;}.cls-14{stroke-width:0.78px;}.cls-15{fill:#db2e26;}</style></defs><title>detail_background</title><path class="cls-1" d="M437.36,387.95s-47-46.67-109-6.09S101.23,517.41,32.86,331.06c-51.36-140,122.8-134.3,130.5-216,11-116.66,146-113.62,223-50.72,67,54.72,224.24-3.76,296,76.08,62,69,65,253.61-91,298.25C522.86,458.27,437.36,387.95,437.36,387.95Z" transform="translate(-23.4 -4.62)"/><ellipse class="cls-1" cx="271.68" cy="458.44" rx="81.28" ry="14"/><path class="cls-1" d="M58.13,145.92a6.4,6.4,0,0,0-2,5.28L55,151s1.88-3.66.46-4.53S58.13,145.92,58.13,145.92Z" transform="translate(-23.4 -4.62)"/><path class="cls-1" d="M53.84,150.72l0.19-.14a2.27,2.27,0,0,1,.39-0.21,2.76,2.76,0,0,1,.54-0.16,1.8,1.8,0,0,1,.64,0,2,2,0,0,1,.69.26,2.51,2.51,0,0,1,.69.64,2.65,2.65,0,0,1,.4.7,1.64,1.64,0,0,1,.11.69,1.54,1.54,0,0,1-.22.68,2.32,2.32,0,0,1-.59.64,2.78,2.78,0,0,1-.73.41,2.09,2.09,0,0,1-.81.14,1.86,1.86,0,0,1-.82-0.23,2.39,2.39,0,0,1-.76-0.67A2.09,2.09,0,0,1,53,152,1.87,1.87,0,0,1,53.84,150.72Z" transform="translate(-23.4 -4.62)"/><path class="cls-1" d="M64.39,142.91a5.12,5.12,0,0,0,2.05,4l-0.73.56s-1.14-3.09-2.42-2.72S64.39,142.91,64.39,142.91Z" transform="translate(-23.4 -4.62)"/><path class="cls-1" d="M64.92,148.83s0-.12,0-0.26a2.53,2.53,0,0,1,.12-0.47,3.06,3.06,0,0,1,.27-0.56,2,2,0,0,1,.47-0.53,2.24,2.24,0,0,1,.73-0.37,2.78,2.78,0,0,1,1-.09,3,3,0,0,1,.88.19,1.83,1.83,0,0,1,.65.43,1.71,1.71,0,0,1,.39.69,2.57,2.57,0,0,1,.08,1,3.1,3.1,0,0,1-.21.91,2.31,2.31,0,0,1-.49.77,2.06,2.06,0,0,1-.8.5,2.66,2.66,0,0,1-1.11.12,2.32,2.32,0,0,1-1.62-.68A2.07,2.07,0,0,1,64.92,148.83Z" transform="translate(-23.4 -4.62)"/><path class="cls-1" d="M60.31,126.27a5.12,5.12,0,0,0,2.61-3.69L63.75,123s-2.2,2.45-1.28,3.41S60.31,126.27,60.31,126.27Z" transform="translate(-23.4 -4.62)"/><path class="cls-1" d="M64.62,123.43l-0.18.07a1.84,1.84,0,0,1-.34.08,2.23,2.23,0,0,1-.45,0,1.44,1.44,0,0,1-.5-0.12,1.62,1.62,0,0,1-.48-0.34,2,2,0,0,1-.41-0.64,2.14,2.14,0,0,1-.17-0.62,1.32,1.32,0,0,1,.06-0.56,1.24,1.24,0,0,1,.31-0.48,1.86,1.86,0,0,1,.59-0.38,2.23,2.23,0,0,1,.65-0.17,1.67,1.67,0,0,1,.65.06,1.48,1.48,0,0,1,.59.34,1.92,1.92,0,0,1,.45.67,1.67,1.67,0,0,1,.11,1.26A1.49,1.49,0,0,1,64.62,123.43Z" transform="translate(-23.4 -4.62)"/><path class="cls-1" d="M46.23,135.45a6.4,6.4,0,0,0-4.75-3l0.44-1.06s3.18,2.6,4.33,1.4S46.23,135.45,46.23,135.45Z" transform="translate(-23.4 -4.62)"/><path class="cls-1" d="M42.43,130.24l0.09,0.22a2.29,2.29,0,0,1,.12.43,2.79,2.79,0,0,1,0,.56,1.8,1.8,0,0,1-.13.63,2,2,0,0,1-.4.63,2.51,2.51,0,0,1-.77.54,2.65,2.65,0,0,1-.77.25,1.64,1.64,0,0,1-.7,0,1.54,1.54,0,0,1-.62-0.36,2.32,2.32,0,0,1-.51-0.71,2.79,2.79,0,0,1-.25-0.8,2.09,2.09,0,0,1,0-.82A1.86,1.86,0,0,1,39,130a2.4,2.4,0,0,1,.81-0.6,2.09,2.09,0,0,1,1.57-.21A1.86,1.86,0,0,1,42.43,130.24Z" transform="translate(-23.4 -4.62)"/><path class="cls-1" d="M53.88,126.47A6,6,0,0,0,55,121.29l1.08,0s-1.29,3.65.15,4.29S53.88,126.47,53.88,126.47Z" transform="translate(-23.4 -4.62)"/><path class="cls-1" d="M57.28,121.43l-0.16.15a2.16,2.16,0,0,1-.34.24,2.62,2.62,0,0,1-.48.22,1.69,1.69,0,0,1-.6.09A1.9,1.9,0,0,1,55,122a2.37,2.37,0,0,1-.73-0.51,2.51,2.51,0,0,1-.47-0.6,1.55,1.55,0,0,1-.19-0.63,1.45,1.45,0,0,1,.12-0.66,2.19,2.19,0,0,1,.47-0.68,2.63,2.63,0,0,1,.63-0.48,2,2,0,0,1,.74-0.23,1.75,1.75,0,0,1,.79.11,2.26,2.26,0,0,1,.79.53,2,2,0,0,1,.69,1.32A1.76,1.76,0,0,1,57.28,121.43Z" transform="translate(-23.4 -4.62)"/><path class="cls-1" d="M49.24,129.61a7.53,7.53,0,0,0-3.34-5.73l1-.88s1.93,4.44,3.78,3.79S49.24,129.61,49.24,129.61Z" transform="translate(-23.4 -4.62)"/><path class="cls-1" d="M48.06,122.11s0,0.13,0,.28a2.67,2.67,0,0,1-.1.51,3.25,3.25,0,0,1-.25.61,2.11,2.11,0,0,1-.47.59,2.37,2.37,0,0,1-.76.44,3,3,0,0,1-1.1.15,3.14,3.14,0,0,1-.94-0.15,1.93,1.93,0,0,1-.71-0.42,1.81,1.81,0,0,1-.45-0.7,2.73,2.73,0,0,1-.15-1,3.29,3.29,0,0,1,.17-1,2.46,2.46,0,0,1,.48-0.84,2.19,2.19,0,0,1,.81-0.58,2.82,2.82,0,0,1,1.17-.19,2.46,2.46,0,0,1,1.76.62A2.2,2.2,0,0,1,48.06,122.11Z" transform="translate(-23.4 -4.62)"/><path class="cls-1" d="M49,142.74A7.61,7.61,0,0,0,43.14,146L42.27,145s4.51-1.88,3.89-3.77S49,142.74,49,142.74Z" transform="translate(-23.4 -4.62)"/><path class="cls-1" d="M41.39,143.81l0.28,0a2.71,2.71,0,0,1,.51.11,3.31,3.31,0,0,1,.61.26,2.14,2.14,0,0,1,.59.48,2.41,2.41,0,0,1,.43.77,3,3,0,0,1,.14,1.11,3.16,3.16,0,0,1-.17.95,2,2,0,0,1-.43.72,1.84,1.84,0,0,1-.72.45,2.77,2.77,0,0,1-1,.13,3.33,3.33,0,0,1-1-.19,2.48,2.48,0,0,1-.84-0.49,2.21,2.21,0,0,1-.57-0.83,2.85,2.85,0,0,1-.18-1.19,2.48,2.48,0,0,1,.66-1.77A2.22,2.22,0,0,1,41.39,143.81Z" transform="translate(-23.4 -4.62)"/><path class="cls-1" d="M66.46,134a7.61,7.61,0,0,0,6.24,2.47l-0.27,1.34s-4.3-2.32-5.37-.65S66.46,134,66.46,134Z" transform="translate(-23.4 -4.62)"/><path class="cls-1" d="M72.08,139.2L71.92,139a2.72,2.72,0,0,1-.24-0.47,3.29,3.29,0,0,1-.18-0.64,2.14,2.14,0,0,1,0-.76,2.4,2.4,0,0,1,.33-0.82,3,3,0,0,1,.78-0.81,3.16,3.16,0,0,1,.84-0.46,2,2,0,0,1,.83-0.11,1.84,1.84,0,0,1,.8.27,2.77,2.77,0,0,1,.75.72,3.32,3.32,0,0,1,.47.88,2.48,2.48,0,0,1,.15,1,2.21,2.21,0,0,1-.29,1,2.85,2.85,0,0,1-.81.89,2.48,2.48,0,0,1-1.78.6A2.22,2.22,0,0,1,72.08,139.2Z" transform="translate(-23.4 -4.62)"/><path class="cls-1" d="M64.86,129.32a7.61,7.61,0,0,0,6.4-2l0.64,1.21s-4.8.9-4.59,2.88S64.86,129.32,64.86,129.32Z" transform="translate(-23.4 -4.62)"/><path class="cls-1" d="M72.51,129.84l-0.27-.08a2.7,2.7,0,0,1-.48-0.22,3.31,3.31,0,0,1-.54-0.39,2.14,2.14,0,0,1-.48-0.6,2.4,2.4,0,0,1-.26-0.84,3,3,0,0,1,.1-1.12,3.16,3.16,0,0,1,.36-0.89,2,2,0,0,1,.57-0.61,1.84,1.84,0,0,1,.8-0.29,2.77,2.77,0,0,1,1,.09,3.33,3.33,0,0,1,.92.39,2.48,2.48,0,0,1,.72.66,2.21,2.21,0,0,1,.39.93,2.85,2.85,0,0,1-.07,1.2,2.48,2.48,0,0,1-1,1.59A2.22,2.22,0,0,1,72.51,129.84Z" transform="translate(-23.4 -4.62)"/><path class="cls-1" d="M67.84,137c0,0.16-.11.58-0.24,1.22a12.06,12.06,0,0,1-.74,2.22A14.66,14.66,0,0,1,65.39,143,9.52,9.52,0,0,1,63,145.42,10.69,10.69,0,0,1,59.36,147a13.29,13.29,0,0,1-5,.09,14.07,14.07,0,0,1-4.11-1.2,8.69,8.69,0,0,1-3-2.25,8.17,8.17,0,0,1-1.65-3.39,12.29,12.29,0,0,1-.09-4.63,14.79,14.79,0,0,1,1.29-4.25,11,11,0,0,1,2.59-3.49,9.83,9.83,0,0,1,4-2.13,12.69,12.69,0,0,1,5.34-.23q5.19,0.76,7.5,3.74T67.84,137Z" transform="translate(-23.4 -4.62)"/><path class="cls-1" d="M65.73,136.87c0,0.13-.09.47-0.2,1a9.79,9.79,0,0,1-.6,1.8,11.89,11.89,0,0,1-1.19,2.1,7.72,7.72,0,0,1-2,1.94A8.67,8.67,0,0,1,58.85,145a10.78,10.78,0,0,1-4.05.07,11.41,11.41,0,0,1-3.33-1,7.05,7.05,0,0,1-2.4-1.83,6.62,6.62,0,0,1-1.33-2.75,10,10,0,0,1-.07-3.76,12,12,0,0,1,1-3.44,9,9,0,0,1,2.1-2.83A8,8,0,0,1,54,127.71a10.28,10.28,0,0,1,4.33-.18q4.21,0.61,6.09,3A8,8,0,0,1,65.73,136.87Z" transform="translate(-23.4 -4.62)"/><path class="cls-1" d="M84.25,84.84a2.38,2.38,0,0,0,2.06.38v0.43s-1.46-.45-1.69.13S84.25,84.84,84.25,84.84Z" transform="translate(-23.4 -4.62)"/><path class="cls-1" d="M86.28,86.1L86.22,86l-0.1-.13A1,1,0,0,1,86,85.72a0.67,0.67,0,0,1,0-.23A0.75,0.75,0,0,1,86,85.21a0.93,0.93,0,0,1,.19-0.3,1,1,0,0,1,.23-0.19,0.61,0.61,0,0,1,.25-0.09,0.57,0.57,0,0,1,.26,0,0.86,0.86,0,0,1,.27.17,1,1,0,0,1,.2.24,0.78,0.78,0,0,1,.1.29,0.69,0.69,0,0,1,0,.31,0.89,0.89,0,0,1-.19.32,0.78,0.78,0,0,1-.51.29A0.69,0.69,0,0,1,86.28,86.1Z" transform="translate(-23.4 -4.62)"/><path class="cls-1" d="M82.74,82.74a1.9,1.9,0,0,0,1.34-1L84.33,82s-1.06.62-.84,1.06S82.74,82.74,82.74,82.74Z" transform="translate(-23.4 -4.62)"/><path class="cls-1" d="M84.87,82.17H84.59l-0.22-.06A0.74,0.74,0,0,1,84.14,82,0.83,0.83,0,0,1,84,81.71a1,1,0,0,1-.1-0.38,1.1,1.1,0,0,1,0-.33A0.68,0.68,0,0,1,84,80.74a0.64,0.64,0,0,1,.23-0.19,1,1,0,0,1,.35-0.09,1.15,1.15,0,0,1,.35,0,0.86,0.86,0,0,1,.31.13,0.77,0.77,0,0,1,.23.26,1,1,0,0,1,.12.4,0.86,0.86,0,0,1-.14.64A0.77,0.77,0,0,1,84.87,82.17Z" transform="translate(-23.4 -4.62)"/><path class="cls-1" d="M76.92,85.32a1.9,1.9,0,0,0-1.52-.71l0.09-.33s1,0.65,1.33.25S76.92,85.32,76.92,85.32Z" transform="translate(-23.4 -4.62)"/><path class="cls-1" d="M75.6,83.93l0,0.06a0.68,0.68,0,0,1,.05.12,0.83,0.83,0,0,1,0,.16,0.53,0.53,0,0,1,0,.19,0.6,0.6,0,0,1-.09.2,0.75,0.75,0,0,1-.21.19,0.79,0.79,0,0,1-.22.1A0.49,0.49,0,0,1,75,85a0.46,0.46,0,0,1-.2-0.08,0.69,0.69,0,0,1-.18-0.19,0.83,0.83,0,0,1-.1-0.23,0.62,0.62,0,0,1,0-.24A0.55,0.55,0,0,1,74.57,84a0.71,0.71,0,0,1,.22-0.21,0.62,0.62,0,0,1,.46-0.12A0.55,0.55,0,0,1,75.6,83.93Z" transform="translate(-23.4 -4.62)"/><path class="cls-1" d="M81.19,89.87a2.38,2.38,0,0,0-.8,1.94L80,91.72s0.74-1.33.23-1.68S81.19,89.87,81.19,89.87Z" transform="translate(-23.4 -4.62)"/><path class="cls-1" d="M79.53,91.6l0.07,0,0.15-.07,0.2-.05a0.67,0.67,0,0,1,.24,0,0.75,0.75,0,0,1,.25.11,0.93,0.93,0,0,1,.25.25,1,1,0,0,1,.14.26,0.61,0.61,0,0,1,0,.26,0.57,0.57,0,0,1-.09.25,0.86,0.86,0,0,1-.23.23,1,1,0,0,1-.28.14,0.78,0.78,0,0,1-.3,0,0.69,0.69,0,0,1-.3-0.09,0.89,0.89,0,0,1-.27-0.26,0.78,0.78,0,0,1-.18-0.56A0.69,0.69,0,0,1,79.53,91.6Z" transform="translate(-23.4 -4.62)"/><path class="cls-1" d="M77.41,87.66a2.24,2.24,0,0,0-2-.09l-0.05-.4s1.42,0.23,1.56-.33S77.41,87.66,77.41,87.66Z" transform="translate(-23.4 -4.62)"/><path class="cls-1" d="M75.35,86.75l0.07,0,0.11,0.11a1,1,0,0,1,.11.16,0.63,0.63,0,0,1,.07.21,0.71,0.71,0,0,1,0,.26,0.88,0.88,0,0,1-.14.3,0.93,0.93,0,0,1-.19.21,0.57,0.57,0,0,1-.22.11,0.54,0.54,0,0,1-.25,0A0.81,0.81,0,0,1,74.62,88a1,1,0,0,1-.22-0.2,0.73,0.73,0,0,1-.13-0.25,0.65,0.65,0,0,1,0-.3A0.84,0.84,0,0,1,74.4,87a0.73,0.73,0,0,1,.44-0.34A0.65,0.65,0,0,1,75.35,86.75Z" transform="translate(-23.4 -4.62)"/><path class="cls-1" d="M78.86,89.15A2.8,2.8,0,0,0,77,90.75l-0.39-.32s1.5-1,1.14-1.63S78.86,89.15,78.86,89.15Z" transform="translate(-23.4 -4.62)"/><path class="cls-1" d="M76.19,90.07h0.3l0.24,0.05a0.78,0.78,0,0,1,.25.13,0.88,0.88,0,0,1,.21.25,1.1,1.1,0,0,1,.13.39,1.16,1.16,0,0,1,0,.35,0.72,0.72,0,0,1-.11.29,0.67,0.67,0,0,1-.23.21,1,1,0,0,1-.36.12,1.22,1.22,0,0,1-.37,0,0.91,0.91,0,0,1-.34-0.12,0.81,0.81,0,0,1-.26-0.26,1,1,0,0,1-.15-0.42,0.91,0.91,0,0,1,.11-0.68A0.82,0.82,0,0,1,76.19,90.07Z" transform="translate(-23.4 -4.62)"/><path class="cls-1" d="M83.68,88.39a2.83,2.83,0,0,0,1.58,1.92l-0.33.39s-1-1.53-1.63-1.18S83.68,88.39,83.68,88.39Z" transform="translate(-23.4 -4.62)"/><path class="cls-1" d="M84.57,91.1V91a1,1,0,0,1,0-.2,1.23,1.23,0,0,1,.06-0.24,0.8,0.8,0,0,1,.14-0.25A0.89,0.89,0,0,1,85,90.1a1.11,1.11,0,0,1,.4-0.12,1.18,1.18,0,0,1,.36,0,0.73,0.73,0,0,1,.29.11,0.68,0.68,0,0,1,.21.23,1,1,0,0,1,.12.37,1.24,1.24,0,0,1,0,.37,0.92,0.92,0,0,1-.13.34,0.82,0.82,0,0,1-.27.26,1.06,1.06,0,0,1-.42.14,0.92,0.92,0,0,1-.69-0.12A0.82,0.82,0,0,1,84.57,91.1Z" transform="translate(-23.4 -4.62)"/><path class="cls-1" d="M79.34,82.57a2.83,2.83,0,0,0,.5-2.44h0.51s-0.57,1.73.11,2S79.34,82.57,79.34,82.57Z" transform="translate(-23.4 -4.62)"/><path class="cls-1" d="M80.88,80.17l-0.07.07-0.16.12-0.22.11a0.79,0.79,0,0,1-.28,0,0.89,0.89,0,0,1-.32-0.07,1.11,1.11,0,0,1-.35-0.23,1.17,1.17,0,0,1-.22-0.28,0.73,0.73,0,0,1-.1-0.3,0.68,0.68,0,0,1,0-.31A1,1,0,0,1,79.42,79a1.23,1.23,0,0,1,.29-0.23,0.92,0.92,0,0,1,.34-0.12,0.82,0.82,0,0,1,.37,0,1.06,1.06,0,0,1,.38.24,0.92,0.92,0,0,1,.34.61A0.82,0.82,0,0,1,80.88,80.17Z" transform="translate(-23.4 -4.62)"/><path class="cls-1" d="M77.74,83.46a2.83,2.83,0,0,0-1.15-2.21l0.4-.31s0.64,1.7,1.35,1.49S77.74,83.46,77.74,83.46Z" transform="translate(-23.4 -4.62)"/><path class="cls-1" d="M77.43,80.62v0.1a1,1,0,0,1,0,.19,1.23,1.23,0,0,1-.11.22,0.8,0.8,0,0,1-.19.21,0.89,0.89,0,0,1-.29.15,1.11,1.11,0,0,1-.42,0A1.18,1.18,0,0,1,76,81.47a0.73,0.73,0,0,1-.26-0.17A0.68,0.68,0,0,1,75.6,81a1,1,0,0,1,0-.39,1.23,1.23,0,0,1,.08-0.36A0.92,0.92,0,0,1,75.84,80a0.82,0.82,0,0,1,.32-0.2,1.06,1.06,0,0,1,.44-0.05,0.92,0.92,0,0,1,.65.27A0.82,0.82,0,0,1,77.43,80.62Z" transform="translate(-23.4 -4.62)"/><path class="cls-1" d="M80.35,81.87h0.46a4.48,4.48,0,0,1,.86.13,5.44,5.44,0,0,1,1,.37,3.54,3.54,0,0,1,1,.73,4,4,0,0,1,.8,1.22,4.94,4.94,0,0,1,.36,1.82,5.23,5.23,0,0,1-.17,1.58A3.23,3.23,0,0,1,84.11,89a3,3,0,0,1-1.13.82,4.57,4.57,0,0,1-1.69.33,5.49,5.49,0,0,1-1.64-.2,4.1,4.1,0,0,1-1.44-.72,3.65,3.65,0,0,1-1-1.31A4.71,4.71,0,0,1,76.73,86a4.1,4.1,0,0,1,.88-3A3.67,3.67,0,0,1,80.35,81.87Z" transform="translate(-23.4 -4.62)"/><path class="cls-1" d="M80.44,82.65h0.38a3.64,3.64,0,0,1,.7.1,4.42,4.42,0,0,1,.84.3,2.87,2.87,0,0,1,.84.59,3.22,3.22,0,0,1,.65,1,4,4,0,0,1,.29,1.48A4.24,4.24,0,0,1,84,87.4a2.62,2.62,0,0,1-.51,1,2.46,2.46,0,0,1-.92.67,3.7,3.7,0,0,1-1.37.27,4.45,4.45,0,0,1-1.33-.16,3.33,3.33,0,0,1-1.17-.58,3,3,0,0,1-.84-1.06A3.82,3.82,0,0,1,77.51,86a3.33,3.33,0,0,1,.71-2.42A3,3,0,0,1,80.44,82.65Z" transform="translate(-23.4 -4.62)"/><path class="cls-2" d="M401.56,117.41a6.4,6.4,0,0,0-2,5.28l-1.13-.2s1.88-3.66.46-4.53S401.56,117.41,401.56,117.41Z" transform="translate(-23.4 -4.62)"/><path class="cls-2" d="M397.27,122.22l0.19-.14a2.27,2.27,0,0,1,.39-0.21,2.76,2.76,0,0,1,.54-0.16,1.8,1.8,0,0,1,.64,0,2,2,0,0,1,.69.26,2.51,2.51,0,0,1,.69.64,2.66,2.66,0,0,1,.4.7,1.64,1.64,0,0,1,.11.69,1.54,1.54,0,0,1-.22.68,2.32,2.32,0,0,1-.59.64,2.78,2.78,0,0,1-.73.41,2.09,2.09,0,0,1-.81.14,1.86,1.86,0,0,1-.82-0.23A2.39,2.39,0,0,1,397,125a2.09,2.09,0,0,1-.54-1.49A1.86,1.86,0,0,1,397.27,122.22Z" transform="translate(-23.4 -4.62)"/><path class="cls-2" d="M407.82,114.41a5.13,5.13,0,0,0,2.05,4l-0.73.56s-1.14-3.09-2.42-2.72S407.82,114.41,407.82,114.41Z" transform="translate(-23.4 -4.62)"/><path class="cls-2" d="M408.35,120.33s0-.12,0-0.26a2.53,2.53,0,0,1,.12-0.47,3.07,3.07,0,0,1,.27-0.56,2,2,0,0,1,.47-0.53,2.24,2.24,0,0,1,.73-0.37,2.78,2.78,0,0,1,1-.09,3,3,0,0,1,.88.19,1.83,1.83,0,0,1,.65.43,1.71,1.71,0,0,1,.39.69,2.58,2.58,0,0,1,.08,1,3.1,3.1,0,0,1-.21.91,2.31,2.31,0,0,1-.49.77,2.06,2.06,0,0,1-.8.5,2.66,2.66,0,0,1-1.11.12,2.32,2.32,0,0,1-1.62-.68A2.07,2.07,0,0,1,408.35,120.33Z" transform="translate(-23.4 -4.62)"/><path class="cls-2" d="M403.74,97.77a5.12,5.12,0,0,0,2.61-3.69l0.84,0.39s-2.2,2.44-1.28,3.41S403.74,97.77,403.74,97.77Z" transform="translate(-23.4 -4.62)"/><path class="cls-2" d="M408,94.93l-0.18.07a1.83,1.83,0,0,1-.34.08,2.22,2.22,0,0,1-.45,0,1.44,1.44,0,0,1-.5-0.12,1.62,1.62,0,0,1-.48-0.34,2,2,0,0,1-.41-0.64,2.14,2.14,0,0,1-.17-0.62,1.32,1.32,0,0,1,.06-0.56,1.24,1.24,0,0,1,.31-0.48,1.86,1.86,0,0,1,.59-0.38,2.24,2.24,0,0,1,.65-0.17,1.67,1.67,0,0,1,.65.06,1.49,1.49,0,0,1,.59.34,1.92,1.92,0,0,1,.45.67,1.67,1.67,0,0,1,.11,1.26A1.49,1.49,0,0,1,408,94.93Z" transform="translate(-23.4 -4.62)"/><path class="cls-2" d="M389.66,106.95a6.4,6.4,0,0,0-4.75-3l0.44-1.07s3.18,2.6,4.33,1.4S389.66,106.95,389.66,106.95Z" transform="translate(-23.4 -4.62)"/><path class="cls-2" d="M385.86,101.74L386,102a2.29,2.29,0,0,1,.12.43,2.78,2.78,0,0,1,0,.56,1.8,1.8,0,0,1-.13.63,2,2,0,0,1-.4.63,2.51,2.51,0,0,1-.77.54,2.65,2.65,0,0,1-.77.25,1.64,1.64,0,0,1-.7,0,1.54,1.54,0,0,1-.62-0.36,2.32,2.32,0,0,1-.51-0.71,2.8,2.8,0,0,1-.25-0.8,2.08,2.08,0,0,1,0-.82,1.86,1.86,0,0,1,.39-0.75,2.4,2.4,0,0,1,.81-0.6,2.09,2.09,0,0,1,1.57-.21A1.86,1.86,0,0,1,385.86,101.74Z" transform="translate(-23.4 -4.62)"/><path class="cls-2" d="M397.31,98a6,6,0,0,0,1.17-5.19l1.08,0s-1.29,3.65.15,4.29S397.31,98,397.31,98Z" transform="translate(-23.4 -4.62)"/><path class="cls-2" d="M400.71,92.93l-0.16.15a2.15,2.15,0,0,1-.34.24,2.62,2.62,0,0,1-.48.22,1.69,1.69,0,0,1-.6.09,1.9,1.9,0,0,1-.68-0.15,2.37,2.37,0,0,1-.73-0.51,2.51,2.51,0,0,1-.47-0.6,1.55,1.55,0,0,1-.19-0.63,1.45,1.45,0,0,1,.12-0.66,2.18,2.18,0,0,1,.47-0.68,2.64,2.64,0,0,1,.63-0.48,2,2,0,0,1,.74-0.23,1.75,1.75,0,0,1,.79.11,2.26,2.26,0,0,1,.79.53,2,2,0,0,1,.69,1.32A1.76,1.76,0,0,1,400.71,92.93Z" transform="translate(-23.4 -4.62)"/><path class="cls-2" d="M392.67,101.11a7.53,7.53,0,0,0-3.34-5.73l1-.88s1.93,4.44,3.78,3.79S392.67,101.11,392.67,101.11Z" transform="translate(-23.4 -4.62)"/><path class="cls-2" d="M391.49,93.61s0,0.13,0,.28a2.67,2.67,0,0,1-.1.51,3.25,3.25,0,0,1-.25.61,2.11,2.11,0,0,1-.47.59,2.38,2.38,0,0,1-.76.44,3,3,0,0,1-1.1.15,3.14,3.14,0,0,1-.94-0.15,1.93,1.93,0,0,1-.71-0.42,1.81,1.81,0,0,1-.45-0.7,2.73,2.73,0,0,1-.15-1,3.29,3.29,0,0,1,.17-1,2.46,2.46,0,0,1,.48-0.84,2.19,2.19,0,0,1,.81-0.58,2.82,2.82,0,0,1,1.17-.19,2.46,2.46,0,0,1,1.76.62A2.19,2.19,0,0,1,391.49,93.61Z" transform="translate(-23.4 -4.62)"/><path class="cls-2" d="M392.42,114.23a7.61,7.61,0,0,0-5.84,3.29l-0.87-1.05s4.51-1.88,3.89-3.77S392.42,114.23,392.42,114.23Z" transform="translate(-23.4 -4.62)"/><path class="cls-2" d="M384.82,115.31l0.28,0a2.71,2.71,0,0,1,.51.11,3.31,3.31,0,0,1,.61.26,2.14,2.14,0,0,1,.59.48,2.41,2.41,0,0,1,.43.77,3,3,0,0,1,.14,1.11,3.16,3.16,0,0,1-.17.95,2,2,0,0,1-.43.72,1.84,1.84,0,0,1-.72.45,2.77,2.77,0,0,1-1,.13,3.33,3.33,0,0,1-1-.19,2.49,2.49,0,0,1-.84-0.49,2.21,2.21,0,0,1-.57-0.83,2.85,2.85,0,0,1-.18-1.19,2.48,2.48,0,0,1,.66-1.77A2.22,2.22,0,0,1,384.82,115.31Z" transform="translate(-23.4 -4.62)"/><path class="cls-2" d="M409.89,105.47a7.61,7.61,0,0,0,6.24,2.47l-0.27,1.34s-4.3-2.32-5.37-.65S409.89,105.47,409.89,105.47Z" transform="translate(-23.4 -4.62)"/><path class="cls-2" d="M415.51,110.69l-0.16-.23a2.72,2.72,0,0,1-.24-0.47,3.29,3.29,0,0,1-.18-0.64,2.14,2.14,0,0,1,0-.76,2.4,2.4,0,0,1,.33-0.82A3,3,0,0,1,416,107a3.16,3.16,0,0,1,.84-0.46,2,2,0,0,1,.83-0.11,1.84,1.84,0,0,1,.8.27,2.77,2.77,0,0,1,.75.72,3.32,3.32,0,0,1,.47.88,2.48,2.48,0,0,1,.15,1,2.21,2.21,0,0,1-.29,1,2.85,2.85,0,0,1-.81.89,2.48,2.48,0,0,1-1.78.6A2.22,2.22,0,0,1,415.51,110.69Z" transform="translate(-23.4 -4.62)"/><path class="cls-2" d="M408.29,100.82a7.61,7.61,0,0,0,6.4-2l0.64,1.21s-4.8.9-4.59,2.88S408.29,100.82,408.29,100.82Z" transform="translate(-23.4 -4.62)"/><path class="cls-2" d="M415.94,101.34l-0.27-.08a2.71,2.71,0,0,1-.48-0.22,3.31,3.31,0,0,1-.54-0.39,2.14,2.14,0,0,1-.48-0.6,2.4,2.4,0,0,1-.26-0.84,3,3,0,0,1,.1-1.12,3.16,3.16,0,0,1,.36-0.89,2,2,0,0,1,.57-0.61,1.84,1.84,0,0,1,.8-0.29,2.77,2.77,0,0,1,1,.09,3.33,3.33,0,0,1,.92.39,2.48,2.48,0,0,1,.72.66,2.21,2.21,0,0,1,.38.93,2.85,2.85,0,0,1-.07,1.2,2.48,2.48,0,0,1-1,1.59A2.22,2.22,0,0,1,415.94,101.34Z" transform="translate(-23.4 -4.62)"/><path class="cls-2" d="M411.27,108.5c0,0.16-.11.58-0.24,1.22a12.06,12.06,0,0,1-.74,2.22,14.66,14.66,0,0,1-1.46,2.59,9.52,9.52,0,0,1-2.42,2.39,10.69,10.69,0,0,1-3.61,1.55,13.29,13.29,0,0,1-5,.09,14.07,14.07,0,0,1-4.11-1.2,8.69,8.69,0,0,1-3-2.25,8.16,8.16,0,0,1-1.65-3.39,12.29,12.29,0,0,1-.09-4.63,14.79,14.79,0,0,1,1.29-4.25,11,11,0,0,1,2.59-3.49,9.83,9.83,0,0,1,4-2.13,12.69,12.69,0,0,1,5.34-.23q5.19,0.76,7.5,3.74T411.27,108.5Z" transform="translate(-23.4 -4.62)"/><path class="cls-2" d="M409.16,108.37c0,0.13-.09.47-0.2,1a9.79,9.79,0,0,1-.6,1.8,11.89,11.89,0,0,1-1.19,2.1,7.72,7.72,0,0,1-2,1.94,8.67,8.67,0,0,1-2.93,1.25,10.78,10.78,0,0,1-4.05.07,11.41,11.41,0,0,1-3.33-1,7.05,7.05,0,0,1-2.4-1.83,6.62,6.62,0,0,1-1.33-2.75,10,10,0,0,1-.07-3.76,12,12,0,0,1,1-3.44,9,9,0,0,1,2.1-2.83,8,8,0,0,1,3.21-1.73,10.28,10.28,0,0,1,4.33-.18q4.21,0.61,6.09,3A8,8,0,0,1,409.16,108.37Z" transform="translate(-23.4 -4.62)"/><path class="cls-2" d="M237.27,311.44a6.4,6.4,0,0,0-2,5.28l-1.13-.2s1.88-3.66.46-4.53S237.27,311.44,237.27,311.44Z" transform="translate(-23.4 -4.62)"/><path class="cls-2" d="M233,316.25l0.19-.14a2.27,2.27,0,0,1,.39-0.21,2.76,2.76,0,0,1,.54-0.16,1.81,1.81,0,0,1,.64,0,2,2,0,0,1,.69.26,2.51,2.51,0,0,1,.69.64,2.66,2.66,0,0,1,.4.7,1.64,1.64,0,0,1,.11.69,1.54,1.54,0,0,1-.22.68,2.32,2.32,0,0,1-.59.64,2.79,2.79,0,0,1-.73.41,2.09,2.09,0,0,1-.81.14,1.86,1.86,0,0,1-.82-0.23,2.39,2.39,0,0,1-.76-0.67,2.09,2.09,0,0,1-.54-1.49A1.86,1.86,0,0,1,233,316.25Z" transform="translate(-23.4 -4.62)"/><path class="cls-2" d="M243.53,308.44a5.12,5.12,0,0,0,2.05,4l-0.73.56s-1.14-3.09-2.42-2.72S243.53,308.44,243.53,308.44Z" transform="translate(-23.4 -4.62)"/><path class="cls-2" d="M244.05,314.36s0-.12,0-0.26a2.53,2.53,0,0,1,.12-0.47,3.07,3.07,0,0,1,.27-0.56,2,2,0,0,1,.47-0.53,2.24,2.24,0,0,1,.73-0.37,2.78,2.78,0,0,1,1-.09,3,3,0,0,1,.88.19,1.83,1.83,0,0,1,.65.43,1.71,1.71,0,0,1,.39.69,2.58,2.58,0,0,1,.08,1,3.09,3.09,0,0,1-.21.91,2.31,2.31,0,0,1-.49.77,2.06,2.06,0,0,1-.8.5,2.66,2.66,0,0,1-1.11.12,2.32,2.32,0,0,1-1.62-.68A2.07,2.07,0,0,1,244.05,314.36Z" transform="translate(-23.4 -4.62)"/><path class="cls-2" d="M239.44,291.8a5.12,5.12,0,0,0,2.61-3.69l0.84,0.39s-2.2,2.44-1.28,3.41S239.44,291.8,239.44,291.8Z" transform="translate(-23.4 -4.62)"/><path class="cls-2" d="M243.75,289l-0.18.07a1.83,1.83,0,0,1-.34.08,2.23,2.23,0,0,1-.45,0,1.44,1.44,0,0,1-.5-0.12,1.62,1.62,0,0,1-.48-0.34,2,2,0,0,1-.41-0.64,2.14,2.14,0,0,1-.17-0.62,1.32,1.32,0,0,1,.06-0.56,1.24,1.24,0,0,1,.31-0.48,1.86,1.86,0,0,1,.59-0.38,2.24,2.24,0,0,1,.65-0.17,1.67,1.67,0,0,1,.65.06,1.48,1.48,0,0,1,.59.34,1.92,1.92,0,0,1,.45.67,1.67,1.67,0,0,1,.11,1.26A1.49,1.49,0,0,1,243.75,289Z" transform="translate(-23.4 -4.62)"/><path class="cls-2" d="M225.37,301a6.4,6.4,0,0,0-4.75-3l0.44-1.06s3.18,2.6,4.33,1.4S225.37,301,225.37,301Z" transform="translate(-23.4 -4.62)"/><path class="cls-2" d="M221.57,295.77l0.09,0.22a2.28,2.28,0,0,1,.12.43,2.79,2.79,0,0,1,0,.56,1.8,1.8,0,0,1-.13.63,2,2,0,0,1-.4.63,2.51,2.51,0,0,1-.77.54,2.65,2.65,0,0,1-.77.25,1.65,1.65,0,0,1-.7,0,1.54,1.54,0,0,1-.62-0.35,2.32,2.32,0,0,1-.51-0.71,2.79,2.79,0,0,1-.25-0.8,2.08,2.08,0,0,1,0-.82,1.86,1.86,0,0,1,.39-0.75,2.4,2.4,0,0,1,.81-0.6,2.09,2.09,0,0,1,1.57-.21A1.86,1.86,0,0,1,221.57,295.77Z" transform="translate(-23.4 -4.62)"/><path class="cls-2" d="M233,292a6,6,0,0,0,1.17-5.19l1.08,0s-1.29,3.65.15,4.29S233,292,233,292Z" transform="translate(-23.4 -4.62)"/><path class="cls-2" d="M236.41,287l-0.16.15a2.15,2.15,0,0,1-.34.24,2.62,2.62,0,0,1-.48.22,1.69,1.69,0,0,1-.6.09,1.9,1.9,0,0,1-.68-0.15,2.37,2.37,0,0,1-.73-0.51,2.51,2.51,0,0,1-.47-0.6,1.55,1.55,0,0,1-.19-0.63,1.45,1.45,0,0,1,.12-0.66,2.18,2.18,0,0,1,.47-0.68,2.63,2.63,0,0,1,.63-0.48,2,2,0,0,1,.74-0.23,1.75,1.75,0,0,1,.79.11,2.26,2.26,0,0,1,.79.53,2,2,0,0,1,.69,1.32A1.76,1.76,0,0,1,236.41,287Z" transform="translate(-23.4 -4.62)"/><path class="cls-2" d="M228.38,295.13A7.53,7.53,0,0,0,225,289.4l1-.88s1.93,4.44,3.78,3.79S228.38,295.13,228.38,295.13Z" transform="translate(-23.4 -4.62)"/><path class="cls-2" d="M227.2,287.64s0,0.13,0,.28a2.67,2.67,0,0,1-.1.51,3.23,3.23,0,0,1-.25.61,2.11,2.11,0,0,1-.47.59,2.37,2.37,0,0,1-.76.44,3,3,0,0,1-1.1.15,3.13,3.13,0,0,1-.94-0.15,1.93,1.93,0,0,1-.71-0.42,1.81,1.81,0,0,1-.45-0.7,2.73,2.73,0,0,1-.15-1,3.29,3.29,0,0,1,.17-1,2.46,2.46,0,0,1,.48-0.84,2.19,2.19,0,0,1,.81-0.58,2.82,2.82,0,0,1,1.17-.19,2.46,2.46,0,0,1,1.76.62A2.2,2.2,0,0,1,227.2,287.64Z" transform="translate(-23.4 -4.62)"/><path class="cls-2" d="M228.12,308.26a7.61,7.61,0,0,0-5.84,3.29l-0.87-1.05s4.51-1.88,3.89-3.77S228.12,308.26,228.12,308.26Z" transform="translate(-23.4 -4.62)"/><path class="cls-2" d="M220.53,309.34l0.28,0a2.71,2.71,0,0,1,.51.11,3.3,3.3,0,0,1,.61.26,2.14,2.14,0,0,1,.59.48,2.41,2.41,0,0,1,.43.77,3,3,0,0,1,.14,1.11,3.16,3.16,0,0,1-.17.95,2,2,0,0,1-.43.72,1.84,1.84,0,0,1-.72.45,2.77,2.77,0,0,1-1,.13,3.33,3.33,0,0,1-1-.19,2.48,2.48,0,0,1-.84-0.49,2.21,2.21,0,0,1-.57-0.83,2.85,2.85,0,0,1-.18-1.19,2.48,2.48,0,0,1,.66-1.77A2.22,2.22,0,0,1,220.53,309.34Z" transform="translate(-23.4 -4.62)"/><path class="cls-2" d="M245.6,299.5a7.61,7.61,0,0,0,6.24,2.47l-0.27,1.34s-4.3-2.32-5.37-.65S245.6,299.5,245.6,299.5Z" transform="translate(-23.4 -4.62)"/><path class="cls-2" d="M251.21,304.72l-0.16-.23a2.72,2.72,0,0,1-.24-0.47,3.29,3.29,0,0,1-.18-0.64,2.14,2.14,0,0,1,0-.76,2.4,2.4,0,0,1,.33-0.82,3,3,0,0,1,.78-0.81,3.16,3.16,0,0,1,.84-0.46,2,2,0,0,1,.83-0.11,1.84,1.84,0,0,1,.8.27,2.77,2.77,0,0,1,.75.72,3.32,3.32,0,0,1,.47.88,2.48,2.48,0,0,1,.15,1,2.21,2.21,0,0,1-.29,1,2.85,2.85,0,0,1-.81.89,2.48,2.48,0,0,1-1.78.6A2.22,2.22,0,0,1,251.21,304.72Z" transform="translate(-23.4 -4.62)"/><path class="cls-2" d="M244,294.84a7.61,7.61,0,0,0,6.4-2l0.64,1.21s-4.8.9-4.59,2.88S244,294.84,244,294.84Z" transform="translate(-23.4 -4.62)"/><path class="cls-2" d="M251.65,295.37l-0.27-.08a2.7,2.7,0,0,1-.48-0.22,3.3,3.3,0,0,1-.54-0.39,2.14,2.14,0,0,1-.48-0.6,2.4,2.4,0,0,1-.26-0.84,3,3,0,0,1,.1-1.12,3.16,3.16,0,0,1,.36-0.89,2,2,0,0,1,.57-0.61,1.84,1.84,0,0,1,.8-0.29,2.77,2.77,0,0,1,1,.09,3.32,3.32,0,0,1,.92.39,2.48,2.48,0,0,1,.72.66,2.21,2.21,0,0,1,.38.93,2.85,2.85,0,0,1-.07,1.2,2.48,2.48,0,0,1-1,1.59A2.22,2.22,0,0,1,251.65,295.37Z" transform="translate(-23.4 -4.62)"/><path class="cls-2" d="M247,302.53c0,0.16-.11.58-0.24,1.22A12.05,12.05,0,0,1,246,306a14.66,14.66,0,0,1-1.46,2.59,9.52,9.52,0,0,1-2.42,2.39,10.69,10.69,0,0,1-3.61,1.55,13.29,13.29,0,0,1-5,.09,14.08,14.08,0,0,1-4.11-1.2,8.69,8.69,0,0,1-3-2.25,8.16,8.16,0,0,1-1.65-3.39,12.29,12.29,0,0,1-.09-4.63,14.78,14.78,0,0,1,1.29-4.25,11,11,0,0,1,2.59-3.49,9.84,9.84,0,0,1,4-2.13,12.69,12.69,0,0,1,5.34-.23q5.19,0.76,7.5,3.74T247,302.53Z" transform="translate(-23.4 -4.62)"/><path class="cls-2" d="M244.86,302.4c0,0.13-.09.47-0.2,1a9.78,9.78,0,0,1-.6,1.8,11.88,11.88,0,0,1-1.19,2.1,7.72,7.72,0,0,1-2,1.94,8.67,8.67,0,0,1-2.93,1.25,10.78,10.78,0,0,1-4.05.07,11.41,11.41,0,0,1-3.33-1,7.05,7.05,0,0,1-2.4-1.83,6.62,6.62,0,0,1-1.33-2.75,10,10,0,0,1-.07-3.76,12,12,0,0,1,1-3.44,9,9,0,0,1,2.1-2.83,8,8,0,0,1,3.21-1.73,10.28,10.28,0,0,1,4.33-.18q4.21,0.61,6.09,3A8,8,0,0,1,244.86,302.4Z" transform="translate(-23.4 -4.62)"/><path class="cls-2" d="M246.69,141.53a4.88,4.88,0,0,0,4.23.77v0.88s-3-.92-3.46.26S246.69,141.53,246.69,141.53Z" transform="translate(-23.4 -4.62)"/><path class="cls-2" d="M250.87,144.12l-0.13-.13a1.75,1.75,0,0,1-.21-0.27,2.11,2.11,0,0,1-.19-0.38,1.38,1.38,0,0,1-.09-0.48,1.54,1.54,0,0,1,.1-0.56,1.91,1.91,0,0,1,.39-0.61,2,2,0,0,1,.47-0.4,1.25,1.25,0,0,1,.51-0.18,1.18,1.18,0,0,1,.54.07,1.77,1.77,0,0,1,.56.36,2.13,2.13,0,0,1,.41.49,1.59,1.59,0,0,1,.21.59,1.42,1.42,0,0,1-.06.64,1.82,1.82,0,0,1-.4.66,1.59,1.59,0,0,1-1,.6A1.42,1.42,0,0,1,250.87,144.12Z" transform="translate(-23.4 -4.62)"/><path class="cls-2" d="M243.6,137.24a3.91,3.91,0,0,0,2.75-2.08l0.52,0.48s-2.17,1.27-1.72,2.18S243.6,137.24,243.6,137.24Z" transform="translate(-23.4 -4.62)"/><path class="cls-2" d="M248,136h-0.2a1.94,1.94,0,0,1-.37,0,2.35,2.35,0,0,1-.46-0.13,1.52,1.52,0,0,1-.46-0.29,1.71,1.71,0,0,1-.38-0.5,2.12,2.12,0,0,1-.2-0.77,2.25,2.25,0,0,1,0-.68,1.39,1.39,0,0,1,.24-0.55,1.31,1.31,0,0,1,.46-0.38,2,2,0,0,1,.72-0.19,2.36,2.36,0,0,1,.71,0,1.76,1.76,0,0,1,.64.27,1.57,1.57,0,0,1,.48.53,2,2,0,0,1,.24.82,1.77,1.77,0,0,1-.29,1.31A1.58,1.58,0,0,1,248,136Z" transform="translate(-23.4 -4.62)"/><path class="cls-2" d="M231.65,142.53a3.91,3.91,0,0,0-3.12-1.47l0.18-.68s2.13,1.33,2.73.51S231.65,142.53,231.65,142.53Z" transform="translate(-23.4 -4.62)"/><path class="cls-2" d="M228.94,139.67l0.07,0.12a1.4,1.4,0,0,1,.11.25,1.69,1.69,0,0,1,.07.34,1.1,1.1,0,0,1,0,.39,1.24,1.24,0,0,1-.19.41,1.54,1.54,0,0,1-.43.39,1.63,1.63,0,0,1-.45.21,1,1,0,0,1-.43,0,0.94,0.94,0,0,1-.4-0.17,1.42,1.42,0,0,1-.36-0.39,1.71,1.71,0,0,1-.21-0.47,1.28,1.28,0,0,1,0-.5,1.13,1.13,0,0,1,.18-0.49,1.46,1.46,0,0,1,.44-0.43,1.28,1.28,0,0,1,.93-0.25A1.14,1.14,0,0,1,228.94,139.67Z" transform="translate(-23.4 -4.62)"/><path class="cls-2" d="M240.42,151.87a4.88,4.88,0,0,0-1.64,4l-0.86-.18s1.53-2.74.47-3.44S240.42,151.87,240.42,151.87Z" transform="translate(-23.4 -4.62)"/><path class="cls-2" d="M237,155.42l0.15-.1a1.75,1.75,0,0,1,.3-0.15,2.13,2.13,0,0,1,.41-0.11,1.37,1.37,0,0,1,.49,0,1.54,1.54,0,0,1,.52.22,1.91,1.91,0,0,1,.51.51,2,2,0,0,1,.29.54,1.25,1.25,0,0,1,.07.53,1.18,1.18,0,0,1-.18.51,1.77,1.77,0,0,1-.47.48,2.13,2.13,0,0,1-.57.29,1.59,1.59,0,0,1-.62.08,1.42,1.42,0,0,1-.62-0.19,1.83,1.83,0,0,1-.56-0.53,1.59,1.59,0,0,1-.37-1.15A1.42,1.42,0,0,1,237,155.42Z" transform="translate(-23.4 -4.62)"/><path class="cls-2" d="M232.66,147.33a4.6,4.6,0,0,0-4.05-.18l-0.11-.82s2.92,0.48,3.2-.69S232.66,147.33,232.66,147.33Z" transform="translate(-23.4 -4.62)"/><path class="cls-2" d="M228.42,145.45l0.14,0.1a1.64,1.64,0,0,1,.23.22,2,2,0,0,1,.23.33,1.29,1.29,0,0,1,.15.44,1.45,1.45,0,0,1,0,.53,1.81,1.81,0,0,1-.29.62,1.91,1.91,0,0,1-.39.43,1.18,1.18,0,0,1-.45.23,1.11,1.11,0,0,1-.51,0,1.67,1.67,0,0,1-.57-0.26,2,2,0,0,1-.44-0.41,1.5,1.5,0,0,1-.27-0.52,1.34,1.34,0,0,1,0-.61,1.72,1.72,0,0,1,.29-0.67,1.5,1.5,0,0,1,.9-0.7A1.34,1.34,0,0,1,228.42,145.45Z" transform="translate(-23.4 -4.62)"/><path class="cls-2" d="M235.63,150.39a5.74,5.74,0,0,0-3.86,3.28L231,153s3.07-2,2.34-3.35S235.63,150.39,235.63,150.39Z" transform="translate(-23.4 -4.62)"/><path class="cls-2" d="M230.16,152.28l0.21,0a2,2,0,0,1,.4,0,2.48,2.48,0,0,1,.49.11,1.61,1.61,0,0,1,.51.27,1.81,1.81,0,0,1,.43.51,2.25,2.25,0,0,1,.26.81,2.39,2.39,0,0,1,0,.73,1.47,1.47,0,0,1-.22.59,1.38,1.38,0,0,1-.47.44,2.08,2.08,0,0,1-.75.25,2.51,2.51,0,0,1-.75,0,1.87,1.87,0,0,1-.69-0.25,1.67,1.67,0,0,1-.54-0.53,2.15,2.15,0,0,1-.3-0.85,1.87,1.87,0,0,1,.23-1.4A1.67,1.67,0,0,1,230.16,152.28Z" transform="translate(-23.4 -4.62)"/><path class="cls-2" d="M245.52,148.83a5.8,5.8,0,0,0,3.25,3.95l-0.67.8s-2-3.14-3.35-2.42S245.52,148.83,245.52,148.83Z" transform="translate(-23.4 -4.62)"/><path class="cls-2" d="M247.35,154.39s0-.1,0-0.21a2.07,2.07,0,0,1,0-.4,2.52,2.52,0,0,1,.12-0.5,1.63,1.63,0,0,1,.28-0.51,1.83,1.83,0,0,1,.52-0.43,2.28,2.28,0,0,1,.82-0.25,2.41,2.41,0,0,1,.73,0,1.49,1.49,0,0,1,.6.23,1.4,1.4,0,0,1,.43.48,2.11,2.11,0,0,1,.24.76,2.55,2.55,0,0,1,0,.76,1.9,1.9,0,0,1-.26.7,1.69,1.69,0,0,1-.55.54,2.17,2.17,0,0,1-.87.29,1.89,1.89,0,0,1-1.41-.26A1.69,1.69,0,0,1,247.35,154.39Z" transform="translate(-23.4 -4.62)"/><path class="cls-2" d="M236.61,136.87a5.8,5.8,0,0,0,1-5l1,0s-1.17,3.54.23,4.12S236.61,136.87,236.61,136.87Z" transform="translate(-23.4 -4.62)"/><path class="cls-2" d="M239.78,132l-0.15.15a2.07,2.07,0,0,1-.32.24,2.51,2.51,0,0,1-.46.22,1.63,1.63,0,0,1-.57.1,1.83,1.83,0,0,1-.66-0.14,2.28,2.28,0,0,1-.71-0.48,2.41,2.41,0,0,1-.46-0.57,1.49,1.49,0,0,1-.2-0.61,1.4,1.4,0,0,1,.1-0.64,2.11,2.11,0,0,1,.44-0.66,2.53,2.53,0,0,1,.6-0.47,1.9,1.9,0,0,1,.71-0.24,1.69,1.69,0,0,1,.76.09,2.17,2.17,0,0,1,.77.49,1.89,1.89,0,0,1,.69,1.26A1.69,1.69,0,0,1,239.78,132Z" transform="translate(-23.4 -4.62)"/><path class="cls-2" d="M233.33,138.7a5.8,5.8,0,0,0-2.36-4.54l0.82-.64s1.32,3.49,2.77,3.06S233.33,138.7,233.33,138.7Z" transform="translate(-23.4 -4.62)"/><path class="cls-2" d="M232.7,132.88s0,0.1,0,.21a2.06,2.06,0,0,1-.1.39,2.52,2.52,0,0,1-.22.46,1.63,1.63,0,0,1-.38.44,1.83,1.83,0,0,1-.6.31,2.28,2.28,0,0,1-.85.08,2.41,2.41,0,0,1-.72-0.15,1.49,1.49,0,0,1-.53-0.35,1.4,1.4,0,0,1-.32-0.56,2.11,2.11,0,0,1-.07-0.79,2.54,2.54,0,0,1,.17-0.74,1.89,1.89,0,0,1,.4-0.63,1.68,1.68,0,0,1,.65-0.41A2.17,2.17,0,0,1,231,131a1.89,1.89,0,0,1,1.33.54A1.69,1.69,0,0,1,232.7,132.88Z" transform="translate(-23.4 -4.62)"/><path class="cls-2" d="M238.7,135.44l1,0a9.2,9.2,0,0,1,1.77.26,11.18,11.18,0,0,1,2.14.75,7.26,7.26,0,0,1,2.12,1.5,8.15,8.15,0,0,1,1.64,2.51,10.14,10.14,0,0,1,.73,3.74,10.73,10.73,0,0,1-.35,3.24,6.63,6.63,0,0,1-1.3,2.52,6.23,6.23,0,0,1-2.33,1.69,9.38,9.38,0,0,1-3.47.69,11.28,11.28,0,0,1-3.36-.4,8.42,8.42,0,0,1-3-1.48,7.5,7.5,0,0,1-2.13-2.68,9.68,9.68,0,0,1-.88-4q-0.12-4,1.8-6.14A7.53,7.53,0,0,1,238.7,135.44Z" transform="translate(-23.4 -4.62)"/><path class="cls-2" d="M238.88,137l0.77,0a7.46,7.46,0,0,1,1.43.21,9.07,9.07,0,0,1,1.73.61,5.89,5.89,0,0,1,1.72,1.22,6.61,6.61,0,0,1,1.33,2,8.23,8.23,0,0,1,.59,3,8.7,8.7,0,0,1-.28,2.63,5.38,5.38,0,0,1-1.05,2,5.05,5.05,0,0,1-1.89,1.37,7.61,7.61,0,0,1-2.81.56,9.15,9.15,0,0,1-2.73-.33,6.83,6.83,0,0,1-2.41-1.2,6.08,6.08,0,0,1-1.73-2.18,7.84,7.84,0,0,1-.72-3.22,6.83,6.83,0,0,1,1.46-5A6.1,6.1,0,0,1,238.88,137Z" transform="translate(-23.4 -4.62)"/><path class="cls-2" d="M392.61,177.68a2.69,2.69,0,0,0-.83,2.22l-0.48-.09s0.79-1.54.19-1.9S392.61,177.68,392.61,177.68Z" transform="translate(-23.4 -4.62)"/><path class="cls-2" d="M390.81,179.7l0.08-.06,0.16-.09,0.23-.07a0.76,0.76,0,0,1,.27,0,0.85,0.85,0,0,1,.29.11,1.05,1.05,0,0,1,.29.27,1.12,1.12,0,0,1,.17.29,0.69,0.69,0,0,1,0,.29,0.65,0.65,0,0,1-.09.28,1,1,0,0,1-.25.27,1.17,1.17,0,0,1-.31.17,0.88,0.88,0,0,1-.34.06,0.78,0.78,0,0,1-.34-0.09,1,1,0,0,1-.32-0.28,0.88,0.88,0,0,1-.23-0.63A0.78,0.78,0,0,1,390.81,179.7Z" transform="translate(-23.4 -4.62)"/><path class="cls-2" d="M395.24,176.42a2.15,2.15,0,0,0,.86,1.69l-0.31.23s-0.48-1.3-1-1.14S395.24,176.42,395.24,176.42Z" transform="translate(-23.4 -4.62)"/><path class="cls-2" d="M395.46,178.91V178.8a1.06,1.06,0,0,1,.05-0.2,1.29,1.29,0,0,1,.11-0.24,0.84,0.84,0,0,1,.2-0.22,0.94,0.94,0,0,1,.31-0.16,1.17,1.17,0,0,1,.44,0,1.24,1.24,0,0,1,.37.08,0.77,0.77,0,0,1,.27.18,0.72,0.72,0,0,1,.16.29,1.08,1.08,0,0,1,0,.41,1.3,1.3,0,0,1-.09.38,1,1,0,0,1-.21.32,0.86,0.86,0,0,1-.33.21,1.12,1.12,0,0,1-.47.05,1,1,0,0,1-.68-0.29A0.87,0.87,0,0,1,395.46,178.91Z" transform="translate(-23.4 -4.62)"/><path class="cls-2" d="M393.53,169.43a2.15,2.15,0,0,0,1.1-1.55L395,168s-0.93,1-.54,1.43S393.53,169.43,393.53,169.43Z" transform="translate(-23.4 -4.62)"/><path class="cls-2" d="M395.34,168.24l-0.07,0-0.14,0h-0.19a0.6,0.6,0,0,1-.21-0.05,0.68,0.68,0,0,1-.2-0.14,0.84,0.84,0,0,1-.17-0.27,0.9,0.9,0,0,1-.07-0.26,0.55,0.55,0,0,1,0-.24,0.52,0.52,0,0,1,.13-0.2,0.78,0.78,0,0,1,.25-0.16,0.94,0.94,0,0,1,.27-0.07,0.7,0.7,0,0,1,.27,0,0.62,0.62,0,0,1,.25.14,0.81,0.81,0,0,1,.19.28,0.7,0.7,0,0,1,0,.53A0.63,0.63,0,0,1,395.34,168.24Z" transform="translate(-23.4 -4.62)"/><path class="cls-2" d="M387.62,173.29a2.69,2.69,0,0,0-2-1.27l0.18-.45s1.34,1.09,1.82.59S387.62,173.29,387.62,173.29Z" transform="translate(-23.4 -4.62)"/><path class="cls-2" d="M386,171.1l0,0.09a1,1,0,0,1,.05.18,1.16,1.16,0,0,1,0,.24,0.75,0.75,0,0,1-.05.26,0.85,0.85,0,0,1-.17.26,1.05,1.05,0,0,1-.32.23,1.12,1.12,0,0,1-.32.1,0.69,0.69,0,0,1-.29,0,0.65,0.65,0,0,1-.26-0.15,1,1,0,0,1-.21-0.3,1.17,1.17,0,0,1-.1-0.34,0.87,0.87,0,0,1,0-.34,0.78,0.78,0,0,1,.16-0.32,1,1,0,0,1,.34-0.25,0.88,0.88,0,0,1,.66-0.09A0.78,0.78,0,0,1,386,171.1Z" transform="translate(-23.4 -4.62)"/><path class="cls-2" d="M390.83,169.51a2.53,2.53,0,0,0,.49-2.18l0.46,0s-0.54,1.54.06,1.8S390.83,169.51,390.83,169.51Z" transform="translate(-23.4 -4.62)"/><path class="cls-2" d="M392.25,167.4l-0.07.06-0.14.1-0.2.09a0.71,0.71,0,0,1-.25,0,0.8,0.8,0,0,1-.29-0.06,1,1,0,0,1-.31-0.21,1.05,1.05,0,0,1-.2-0.25,0.65,0.65,0,0,1-.08-0.27,0.61,0.61,0,0,1,0-.28,0.92,0.92,0,0,1,.2-0.28,1.11,1.11,0,0,1,.26-0.2,0.83,0.83,0,0,1,.31-0.1,0.73,0.73,0,0,1,.33,0,1,1,0,0,1,.33.22,0.83,0.83,0,0,1,.29.56A0.74,0.74,0,0,1,392.25,167.4Z" transform="translate(-23.4 -4.62)"/><path class="cls-2" d="M388.88,170.83a3.16,3.16,0,0,0-1.4-2.41l0.43-.37s0.81,1.86,1.59,1.59S388.88,170.83,388.88,170.83Z" transform="translate(-23.4 -4.62)"/><path class="cls-2" d="M388.38,167.68s0,0.05,0,.12a1.12,1.12,0,0,1,0,.21,1.36,1.36,0,0,1-.11.26,0.89,0.89,0,0,1-.2.25,1,1,0,0,1-.32.18,1.24,1.24,0,0,1-.46.06,1.32,1.32,0,0,1-.39-0.06,0.81,0.81,0,0,1-.3-0.18,0.76,0.76,0,0,1-.19-0.3,1.15,1.15,0,0,1-.06-0.43,1.38,1.38,0,0,1,.07-0.41,1,1,0,0,1,.2-0.35,0.92,0.92,0,0,1,.34-0.24,1.19,1.19,0,0,1,.49-0.08,1,1,0,0,1,.74.26A0.92,0.92,0,0,1,388.38,167.68Z" transform="translate(-23.4 -4.62)"/><path class="cls-2" d="M388.77,176.35a3.2,3.2,0,0,0-2.45,1.38l-0.37-.44s1.89-.79,1.63-1.58S388.77,176.35,388.77,176.35Z" transform="translate(-23.4 -4.62)"/><path class="cls-2" d="M385.58,176.8h0.12l0.22,0a1.39,1.39,0,0,1,.26.11,0.9,0.9,0,0,1,.25.2,1,1,0,0,1,.18.32,1.26,1.26,0,0,1,.06.47,1.33,1.33,0,0,1-.07.4,0.82,0.82,0,0,1-.18.3,0.77,0.77,0,0,1-.3.19,1.16,1.16,0,0,1-.43.06,1.4,1.4,0,0,1-.41-0.08,1,1,0,0,1-.35-0.21,0.93,0.93,0,0,1-.24-0.35,1.2,1.2,0,0,1-.07-0.5,1,1,0,0,1,.28-0.74A0.93,0.93,0,0,1,385.58,176.8Z" transform="translate(-23.4 -4.62)"/><path class="cls-2" d="M396.11,172.67a3.2,3.2,0,0,0,2.62,1l-0.11.56s-1.81-1-2.26-.27S396.11,172.67,396.11,172.67Z" transform="translate(-23.4 -4.62)"/><path class="cls-2" d="M398.47,174.86l-0.07-.1a1.14,1.14,0,0,1-.1-0.2,1.38,1.38,0,0,1-.08-0.27,0.9,0.9,0,0,1,0-.32,1,1,0,0,1,.14-0.34,1.25,1.25,0,0,1,.33-0.34,1.33,1.33,0,0,1,.35-0.19,0.82,0.82,0,0,1,.35,0,0.77,0.77,0,0,1,.34.12,1.16,1.16,0,0,1,.32.3,1.39,1.39,0,0,1,.2.37,1,1,0,0,1,.06.41,0.93,0.93,0,0,1-.12.41,1.2,1.2,0,0,1-.34.37,1,1,0,0,1-.75.25A0.93,0.93,0,0,1,398.47,174.86Z" transform="translate(-23.4 -4.62)"/><path class="cls-2" d="M395.44,170.71a3.2,3.2,0,0,0,2.69-.84l0.27,0.51s-2,.38-1.93,1.21S395.44,170.71,395.44,170.71Z" transform="translate(-23.4 -4.62)"/><path class="cls-2" d="M398.65,170.93l-0.11,0-0.2-.09a1.38,1.38,0,0,1-.23-0.16,0.9,0.9,0,0,1-.2-0.25,1,1,0,0,1-.11-0.35,1.26,1.26,0,0,1,0-.47,1.33,1.33,0,0,1,.15-0.37,0.82,0.82,0,0,1,.24-0.26,0.77,0.77,0,0,1,.33-0.12,1.16,1.16,0,0,1,.44,0,1.39,1.39,0,0,1,.39.16,1,1,0,0,1,.3.28,0.93,0.93,0,0,1,.16.39,1.2,1.2,0,0,1,0,.5,1,1,0,0,1-.42.67A0.93,0.93,0,0,1,398.65,170.93Z" transform="translate(-23.4 -4.62)"/><path class="cls-2" d="M396.69,173.94c0,0.07,0,.24-0.1.51a5.06,5.06,0,0,1-.31.93,6.16,6.16,0,0,1-.61,1.09,4,4,0,0,1-1,1,4.49,4.49,0,0,1-1.52.65,5.58,5.58,0,0,1-2.1,0,5.91,5.91,0,0,1-1.72-.5,3.65,3.65,0,0,1-1.24-.95,3.43,3.43,0,0,1-.69-1.42,5.17,5.17,0,0,1,0-1.95,6.21,6.21,0,0,1,.54-1.78,4.64,4.64,0,0,1,1.09-1.47,4.13,4.13,0,0,1,1.66-.89,5.33,5.33,0,0,1,2.24-.1,4.64,4.64,0,0,1,3.15,1.57A4.15,4.15,0,0,1,396.69,173.94Z" transform="translate(-23.4 -4.62)"/><path class="cls-2" d="M395.81,173.88c0,0.06,0,.2-0.08.42a4.11,4.11,0,0,1-.25.76,5,5,0,0,1-.5.88,3.24,3.24,0,0,1-.83.81,3.64,3.64,0,0,1-1.23.53,4.53,4.53,0,0,1-1.7,0,4.79,4.79,0,0,1-1.4-.41,3,3,0,0,1-1-.77,2.78,2.78,0,0,1-.56-1.15,4.19,4.19,0,0,1,0-1.58,5,5,0,0,1,.44-1.45,3.76,3.76,0,0,1,.88-1.19,3.35,3.35,0,0,1,1.35-.73,4.32,4.32,0,0,1,1.82-.08,3.76,3.76,0,0,1,2.56,1.27A3.36,3.36,0,0,1,395.81,173.88Z" transform="translate(-23.4 -4.62)"/><path class="cls-2" d="M195.17,85.85a2.69,2.69,0,0,0-.83,2.22L193.86,88s0.79-1.54.19-1.9S195.17,85.85,195.17,85.85Z" transform="translate(-23.4 -4.62)"/><path class="cls-2" d="M193.36,87.87l0.08-.06,0.16-.09,0.23-.07a0.76,0.76,0,0,1,.27,0,0.85,0.85,0,0,1,.29.11,1.05,1.05,0,0,1,.29.27,1.12,1.12,0,0,1,.17.29,0.69,0.69,0,0,1,0,.29,0.65,0.65,0,0,1-.09.28,1,1,0,0,1-.25.27,1.17,1.17,0,0,1-.31.17,0.88,0.88,0,0,1-.34.06,0.78,0.78,0,0,1-.34-0.09,1,1,0,0,1-.32-0.28,0.88,0.88,0,0,1-.23-0.63A0.78,0.78,0,0,1,193.36,87.87Z" transform="translate(-23.4 -4.62)"/><path class="cls-2" d="M197.8,84.59a2.15,2.15,0,0,0,.86,1.69l-0.31.23s-0.48-1.3-1-1.14S197.8,84.59,197.8,84.59Z" transform="translate(-23.4 -4.62)"/><path class="cls-2" d="M198,87.08V87a1.06,1.06,0,0,1,.05-0.2,1.29,1.29,0,0,1,.11-0.24,0.84,0.84,0,0,1,.2-0.22,0.94,0.94,0,0,1,.31-0.16,1.17,1.17,0,0,1,.44,0,1.24,1.24,0,0,1,.37.08,0.77,0.77,0,0,1,.27.18,0.72,0.72,0,0,1,.16.29,1.08,1.08,0,0,1,0,.41,1.3,1.3,0,0,1-.09.38,1,1,0,0,1-.21.32,0.86,0.86,0,0,1-.34.21,1.12,1.12,0,0,1-.47.05,1,1,0,0,1-.68-0.29A0.87,0.87,0,0,1,198,87.08Z" transform="translate(-23.4 -4.62)"/><path class="cls-2" d="M196.08,77.6a2.15,2.15,0,0,0,1.1-1.55l0.35,0.16s-0.93,1-.54,1.43S196.08,77.6,196.08,77.6Z" transform="translate(-23.4 -4.62)"/><path class="cls-2" d="M197.89,76.41l-0.07,0-0.14,0h-0.19a0.6,0.6,0,0,1-.21-0.05,0.68,0.68,0,0,1-.2-0.14A0.84,0.84,0,0,1,196.9,76a0.9,0.9,0,0,1-.07-0.26,0.55,0.55,0,0,1,0-.24,0.52,0.52,0,0,1,.13-0.2,0.78,0.78,0,0,1,.25-0.16,0.94,0.94,0,0,1,.27-0.07,0.7,0.7,0,0,1,.27,0,0.62,0.62,0,0,1,.25.14,0.81,0.81,0,0,1,.19.28,0.7,0.7,0,0,1,0,.53A0.63,0.63,0,0,1,197.89,76.41Z" transform="translate(-23.4 -4.62)"/><path class="cls-2" d="M190.17,81.46a2.69,2.69,0,0,0-2-1.27l0.18-.45s1.34,1.09,1.82.59S190.17,81.46,190.17,81.46Z" transform="translate(-23.4 -4.62)"/><path class="cls-2" d="M188.57,79.27l0,0.09a1,1,0,0,1,.05.18,1.16,1.16,0,0,1,0,.23,0.76,0.76,0,0,1-.05.26,0.85,0.85,0,0,1-.17.26,1.05,1.05,0,0,1-.32.23,1.12,1.12,0,0,1-.32.1,0.69,0.69,0,0,1-.29,0,0.65,0.65,0,0,1-.26-0.15,1,1,0,0,1-.21-0.3,1.17,1.17,0,0,1-.1-0.34,0.87,0.87,0,0,1,0-.34,0.78,0.78,0,0,1,.16-0.32,1,1,0,0,1,.34-0.25,0.88,0.88,0,0,1,.66-0.09A0.78,0.78,0,0,1,188.57,79.27Z" transform="translate(-23.4 -4.62)"/><path class="cls-2" d="M193.38,77.69a2.53,2.53,0,0,0,.49-2.18l0.46,0s-0.54,1.54.06,1.8S193.38,77.69,193.38,77.69Z" transform="translate(-23.4 -4.62)"/><path class="cls-2" d="M194.81,75.57l-0.07.06-0.14.1-0.2.09a0.71,0.71,0,0,1-.25,0,0.8,0.8,0,0,1-.29-0.06,1,1,0,0,1-.31-0.21,1.05,1.05,0,0,1-.2-0.25,0.65,0.65,0,0,1-.08-0.27,0.61,0.61,0,0,1,0-.28,0.92,0.92,0,0,1,.2-0.28,1.11,1.11,0,0,1,.26-0.2,0.82,0.82,0,0,1,.31-0.1,0.73,0.73,0,0,1,.33,0,1,1,0,0,1,.33.22,0.83,0.83,0,0,1,.29.56A0.74,0.74,0,0,1,194.81,75.57Z" transform="translate(-23.4 -4.62)"/><path class="cls-2" d="M191.43,79A3.16,3.16,0,0,0,190,76.6l0.43-.37s0.81,1.86,1.59,1.59S191.43,79,191.43,79Z" transform="translate(-23.4 -4.62)"/><path class="cls-2" d="M190.94,75.86s0,0.05,0,.12a1.12,1.12,0,0,1,0,.21,1.36,1.36,0,0,1-.11.26,0.89,0.89,0,0,1-.2.25,1,1,0,0,1-.32.18,1.24,1.24,0,0,1-.46.06,1.32,1.32,0,0,1-.39-0.06,0.81,0.81,0,0,1-.3-0.18,0.76,0.76,0,0,1-.19-0.3,1.15,1.15,0,0,1-.06-0.43,1.38,1.38,0,0,1,.07-0.41,1,1,0,0,1,.2-0.35,0.92,0.92,0,0,1,.34-0.24,1.19,1.19,0,0,1,.49-0.08,1,1,0,0,1,.74.26A0.92,0.92,0,0,1,190.94,75.86Z" transform="translate(-23.4 -4.62)"/><path class="cls-2" d="M191.33,84.52a3.2,3.2,0,0,0-2.45,1.38l-0.37-.44s1.89-.79,1.63-1.58S191.33,84.52,191.33,84.52Z" transform="translate(-23.4 -4.62)"/><path class="cls-2" d="M188.14,85h0.12l0.22,0a1.39,1.39,0,0,1,.26.11,0.9,0.9,0,0,1,.25.2,1,1,0,0,1,.18.32,1.26,1.26,0,0,1,.06.47,1.33,1.33,0,0,1-.07.4,0.82,0.82,0,0,1-.18.3,0.77,0.77,0,0,1-.3.19,1.16,1.16,0,0,1-.43.06,1.4,1.4,0,0,1-.41-0.08,1,1,0,0,1-.35-0.21,0.93,0.93,0,0,1-.24-0.35,1.2,1.2,0,0,1-.07-0.5,1,1,0,0,1,.28-0.74A0.93,0.93,0,0,1,188.14,85Z" transform="translate(-23.4 -4.62)"/><path class="cls-2" d="M198.67,80.84a3.2,3.2,0,0,0,2.62,1l-0.11.56s-1.81-1-2.26-.27S198.67,80.84,198.67,80.84Z" transform="translate(-23.4 -4.62)"/><path class="cls-2" d="M201,83l-0.07-.1a1.14,1.14,0,0,1-.1-0.2,1.38,1.38,0,0,1-.08-0.27,0.9,0.9,0,0,1,0-.32,1,1,0,0,1,.14-0.34,1.25,1.25,0,0,1,.33-0.34,1.33,1.33,0,0,1,.35-0.2,0.82,0.82,0,0,1,.35,0,0.77,0.77,0,0,1,.34.12,1.16,1.16,0,0,1,.32.3,1.39,1.39,0,0,1,.2.37,1,1,0,0,1,.06.41,0.93,0.93,0,0,1-.12.41,1.2,1.2,0,0,1-.34.37,1,1,0,0,1-.75.25A0.93,0.93,0,0,1,201,83Z" transform="translate(-23.4 -4.62)"/><path class="cls-2" d="M198,78.88a3.2,3.2,0,0,0,2.69-.84L201,78.55s-2,.38-1.93,1.21S198,78.88,198,78.88Z" transform="translate(-23.4 -4.62)"/><path class="cls-2" d="M201.21,79.1l-0.11,0L200.9,79a1.38,1.38,0,0,1-.23-0.16,0.9,0.9,0,0,1-.2-0.25,1,1,0,0,1-.11-0.35,1.26,1.26,0,0,1,0-.47,1.33,1.33,0,0,1,.15-0.37,0.82,0.82,0,0,1,.24-0.26,0.77,0.77,0,0,1,.33-0.12,1.16,1.16,0,0,1,.44,0,1.39,1.39,0,0,1,.39.16,1,1,0,0,1,.3.28,0.93,0.93,0,0,1,.16.39,1.2,1.2,0,0,1,0,.5A1,1,0,0,1,202,79,0.93,0.93,0,0,1,201.21,79.1Z" transform="translate(-23.4 -4.62)"/><path class="cls-2" d="M199.24,82.11c0,0.07,0,.24-0.1.51a5.06,5.06,0,0,1-.31.93,6.16,6.16,0,0,1-.61,1.09,4,4,0,0,1-1,1,4.49,4.49,0,0,1-1.52.65,5.58,5.58,0,0,1-2.1,0,5.91,5.91,0,0,1-1.72-.5,3.65,3.65,0,0,1-1.24-.95,3.43,3.43,0,0,1-.69-1.42,5.17,5.17,0,0,1,0-1.95,6.21,6.21,0,0,1,.54-1.78,4.64,4.64,0,0,1,1.09-1.47,4.13,4.13,0,0,1,1.66-.89,5.33,5.33,0,0,1,2.24-.1,4.64,4.64,0,0,1,3.15,1.57A4.15,4.15,0,0,1,199.24,82.11Z" transform="translate(-23.4 -4.62)"/><path class="cls-2" d="M198.36,82.06c0,0.06,0,.2-0.08.42a4.11,4.11,0,0,1-.25.76,5,5,0,0,1-.5.88,3.24,3.24,0,0,1-.83.81,3.64,3.64,0,0,1-1.23.53,4.53,4.53,0,0,1-1.7,0,4.79,4.79,0,0,1-1.4-.41,3,3,0,0,1-1-.77,2.78,2.78,0,0,1-.56-1.15,4.19,4.19,0,0,1,0-1.58,5,5,0,0,1,.44-1.45,3.76,3.76,0,0,1,.88-1.19,3.35,3.35,0,0,1,1.35-.73,4.32,4.32,0,0,1,1.82-.08,3.76,3.76,0,0,1,2.56,1.27A3.36,3.36,0,0,1,198.36,82.06Z" transform="translate(-23.4 -4.62)"/><path class="cls-2" d="M177.15,342.77a2.69,2.69,0,0,0-.83,2.22l-0.48-.09s0.79-1.54.19-1.9S177.15,342.77,177.15,342.77Z" transform="translate(-23.4 -4.62)"/><path class="cls-2" d="M175.35,344.79l0.08-.06,0.16-.09,0.23-.07a0.76,0.76,0,0,1,.27,0,0.85,0.85,0,0,1,.29.11,1.06,1.06,0,0,1,.29.27,1.11,1.11,0,0,1,.17.29,0.69,0.69,0,0,1,0,.29,0.65,0.65,0,0,1-.09.28,1,1,0,0,1-.25.27,1.17,1.17,0,0,1-.31.17,0.88,0.88,0,0,1-.34.06,0.78,0.78,0,0,1-.34-0.09,1,1,0,0,1-.32-0.28,0.88,0.88,0,0,1-.23-0.63A0.78,0.78,0,0,1,175.35,344.79Z" transform="translate(-23.4 -4.62)"/><path class="cls-2" d="M179.78,341.51a2.15,2.15,0,0,0,.86,1.69l-0.31.23s-0.48-1.3-1-1.14S179.78,341.51,179.78,341.51Z" transform="translate(-23.4 -4.62)"/><path class="cls-2" d="M180,344v-0.11a1.07,1.07,0,0,1,.05-0.2,1.3,1.3,0,0,1,.11-0.24,0.84,0.84,0,0,1,.2-0.22,0.94,0.94,0,0,1,.31-0.16,1.17,1.17,0,0,1,.44,0,1.24,1.24,0,0,1,.37.08,0.77,0.77,0,0,1,.27.18,0.72,0.72,0,0,1,.16.29,1.08,1.08,0,0,1,0,.41,1.3,1.3,0,0,1-.09.38,1,1,0,0,1-.21.32,0.86,0.86,0,0,1-.34.21,1.12,1.12,0,0,1-.47.05,1,1,0,0,1-.68-0.29A0.87,0.87,0,0,1,180,344Z" transform="translate(-23.4 -4.62)"/><path class="cls-2" d="M178.07,334.52a2.15,2.15,0,0,0,1.1-1.55l0.35,0.16s-0.93,1-.54,1.43S178.07,334.52,178.07,334.52Z" transform="translate(-23.4 -4.62)"/><path class="cls-2" d="M179.88,333.33l-0.07,0-0.14,0h-0.19a0.6,0.6,0,0,1-.21-0.05,0.68,0.68,0,0,1-.2-0.14,0.84,0.84,0,0,1-.17-0.27,0.9,0.9,0,0,1-.07-0.26,0.55,0.55,0,0,1,0-.24,0.52,0.52,0,0,1,.13-0.2,0.78,0.78,0,0,1,.25-0.16,0.94,0.94,0,0,1,.27-0.07,0.7,0.7,0,0,1,.27,0,0.62,0.62,0,0,1,.25.14,0.8,0.8,0,0,1,.19.28,0.7,0.7,0,0,1,0,.53A0.63,0.63,0,0,1,179.88,333.33Z" transform="translate(-23.4 -4.62)"/><path class="cls-2" d="M172.15,338.38a2.69,2.69,0,0,0-2-1.27l0.18-.45s1.34,1.09,1.82.59S172.15,338.38,172.15,338.38Z" transform="translate(-23.4 -4.62)"/><path class="cls-2" d="M170.56,336.19l0,0.09a1,1,0,0,1,.05.18,1.16,1.16,0,0,1,0,.23,0.75,0.75,0,0,1-.05.26,0.85,0.85,0,0,1-.17.26,1.05,1.05,0,0,1-.32.23,1.11,1.11,0,0,1-.32.1,0.69,0.69,0,0,1-.29,0,0.65,0.65,0,0,1-.26-0.15,1,1,0,0,1-.21-0.3,1.17,1.17,0,0,1-.1-0.34,0.88,0.88,0,0,1,0-.34,0.78,0.78,0,0,1,.16-0.32,1,1,0,0,1,.34-0.25,0.88,0.88,0,0,1,.66-0.09A0.78,0.78,0,0,1,170.56,336.19Z" transform="translate(-23.4 -4.62)"/><path class="cls-2" d="M175.37,334.61a2.53,2.53,0,0,0,.49-2.18l0.46,0s-0.54,1.54.06,1.8S175.37,334.61,175.37,334.61Z" transform="translate(-23.4 -4.62)"/><path class="cls-2" d="M176.79,332.49l-0.07.06-0.14.1-0.2.09a0.71,0.71,0,0,1-.25,0,0.8,0.8,0,0,1-.29-0.06,1,1,0,0,1-.31-0.21,1.05,1.05,0,0,1-.2-0.25,0.65,0.65,0,0,1-.08-0.27,0.61,0.61,0,0,1,0-.28,0.92,0.92,0,0,1,.2-0.28,1.1,1.1,0,0,1,.26-0.2,0.82,0.82,0,0,1,.31-0.1,0.74,0.74,0,0,1,.33,0,1,1,0,0,1,.33.22,0.83,0.83,0,0,1,.29.56A0.74,0.74,0,0,1,176.79,332.49Z" transform="translate(-23.4 -4.62)"/><path class="cls-2" d="M173.42,335.92a3.16,3.16,0,0,0-1.4-2.41l0.43-.37s0.81,1.86,1.59,1.59S173.42,335.92,173.42,335.92Z" transform="translate(-23.4 -4.62)"/><path class="cls-2" d="M172.92,332.77s0,0.05,0,.12a1.12,1.12,0,0,1,0,.21,1.37,1.37,0,0,1-.11.26,0.89,0.89,0,0,1-.2.25,1,1,0,0,1-.32.18,1.24,1.24,0,0,1-.46.06,1.32,1.32,0,0,1-.39-0.06,0.81,0.81,0,0,1-.3-0.18,0.76,0.76,0,0,1-.19-0.3,1.15,1.15,0,0,1-.06-0.43,1.38,1.38,0,0,1,.07-0.41,1,1,0,0,1,.2-0.35,0.92,0.92,0,0,1,.34-0.24,1.19,1.19,0,0,1,.49-0.08,1,1,0,0,1,.74.26A0.92,0.92,0,0,1,172.92,332.77Z" transform="translate(-23.4 -4.62)"/><path class="cls-2" d="M173.31,341.44a3.2,3.2,0,0,0-2.45,1.38l-0.37-.44s1.9-.79,1.63-1.58S173.31,341.44,173.31,341.44Z" transform="translate(-23.4 -4.62)"/><path class="cls-2" d="M170.12,341.89h0.12l0.22,0a1.39,1.39,0,0,1,.26.11,0.9,0.9,0,0,1,.25.2,1,1,0,0,1,.18.32,1.26,1.26,0,0,1,.06.47,1.33,1.33,0,0,1-.07.4,0.82,0.82,0,0,1-.18.3,0.77,0.77,0,0,1-.3.19,1.16,1.16,0,0,1-.43.06,1.4,1.4,0,0,1-.41-0.08,1,1,0,0,1-.35-0.21,0.93,0.93,0,0,1-.24-0.35,1.2,1.2,0,0,1-.07-0.5,1,1,0,0,1,.28-0.74A0.93,0.93,0,0,1,170.12,341.89Z" transform="translate(-23.4 -4.62)"/><path class="cls-2" d="M180.65,337.76a3.2,3.2,0,0,0,2.62,1l-0.11.56s-1.81-1-2.26-.27S180.65,337.76,180.65,337.76Z" transform="translate(-23.4 -4.62)"/><path class="cls-2" d="M183,339.95l-0.07-.1a1.15,1.15,0,0,1-.1-0.2,1.38,1.38,0,0,1-.08-0.27,0.9,0.9,0,0,1,0-.32,1,1,0,0,1,.14-0.34,1.25,1.25,0,0,1,.33-0.34,1.33,1.33,0,0,1,.35-0.19,0.82,0.82,0,0,1,.35,0,0.77,0.77,0,0,1,.34.12,1.17,1.17,0,0,1,.32.3,1.4,1.4,0,0,1,.2.37,1,1,0,0,1,.06.41,0.93,0.93,0,0,1-.12.41,1.2,1.2,0,0,1-.34.37,1,1,0,0,1-.75.25A0.93,0.93,0,0,1,183,339.95Z" transform="translate(-23.4 -4.62)"/><path class="cls-2" d="M180,335.8a3.2,3.2,0,0,0,2.69-.84l0.27,0.51s-2,.38-1.93,1.21S180,335.8,180,335.8Z" transform="translate(-23.4 -4.62)"/><path class="cls-2" d="M183.19,336l-0.11,0-0.2-.09a1.4,1.4,0,0,1-.23-0.16,0.9,0.9,0,0,1-.2-0.25,1,1,0,0,1-.11-0.35,1.26,1.26,0,0,1,0-.47,1.33,1.33,0,0,1,.15-0.37,0.82,0.82,0,0,1,.24-0.26,0.77,0.77,0,0,1,.33-0.12,1.16,1.16,0,0,1,.44,0,1.4,1.4,0,0,1,.39.16,1,1,0,0,1,.3.28,0.93,0.93,0,0,1,.16.39,1.2,1.2,0,0,1,0,.5,1,1,0,0,1-.42.67A0.93,0.93,0,0,1,183.19,336Z" transform="translate(-23.4 -4.62)"/><path class="cls-2" d="M181.23,339c0,0.07,0,.24-0.1.51a5.07,5.07,0,0,1-.31.93,6.15,6.15,0,0,1-.61,1.09,4,4,0,0,1-1,1,4.49,4.49,0,0,1-1.52.65,5.58,5.58,0,0,1-2.1,0,5.91,5.91,0,0,1-1.72-.5,3.65,3.65,0,0,1-1.24-.95,3.43,3.43,0,0,1-.69-1.42,5.16,5.16,0,0,1,0-1.95,6.21,6.21,0,0,1,.54-1.78,4.64,4.64,0,0,1,1.09-1.47,4.13,4.13,0,0,1,1.66-.89,5.33,5.33,0,0,1,2.24-.1,4.64,4.64,0,0,1,3.15,1.57A4.15,4.15,0,0,1,181.23,339Z" transform="translate(-23.4 -4.62)"/><path class="cls-2" d="M180.34,339c0,0.06,0,.2-0.08.42a4.11,4.11,0,0,1-.25.76,5,5,0,0,1-.5.88,3.24,3.24,0,0,1-.83.81,3.64,3.64,0,0,1-1.23.53,4.53,4.53,0,0,1-1.7,0,4.79,4.79,0,0,1-1.4-.41,3,3,0,0,1-1-.77,2.78,2.78,0,0,1-.56-1.15,4.19,4.19,0,0,1,0-1.58,5,5,0,0,1,.44-1.45,3.76,3.76,0,0,1,.88-1.19,3.35,3.35,0,0,1,1.35-.73,4.32,4.32,0,0,1,1.82-.08,3.76,3.76,0,0,1,2.56,1.27A3.36,3.36,0,0,1,180.34,339Z" transform="translate(-23.4 -4.62)"/><path class="cls-2" d="M372.43,310.92A1.34,1.34,0,0,0,372,312l-0.24,0s0.39-.77.1-1S372.43,310.92,372.43,310.92Z" transform="translate(-23.4 -4.62)"/><path class="cls-2" d="M371.53,311.93l0,0,0.08,0,0.11,0h0.14a0.43,0.43,0,0,1,.15.05,0.53,0.53,0,0,1,.15.13,0.56,0.56,0,0,1,.08.15,0.35,0.35,0,0,1,0,.15,0.32,0.32,0,0,1,0,.14,0.49,0.49,0,0,1-.12.14,0.58,0.58,0,0,1-.15.09,0.44,0.44,0,0,1-.17,0,0.39,0.39,0,0,1-.17,0,0.5,0.5,0,0,1-.16-0.14,0.44,0.44,0,0,1-.11-0.31A0.39,0.39,0,0,1,371.53,311.93Z" transform="translate(-23.4 -4.62)"/><path class="cls-2" d="M373.74,310.29a1.08,1.08,0,0,0,.43.84l-0.15.12a0.81,0.81,0,0,0-.51-0.57C373.24,310.75,373.74,310.29,373.74,310.29Z" transform="translate(-23.4 -4.62)"/><path class="cls-2" d="M373.85,311.53v-0.05a0.53,0.53,0,0,1,0-.1,0.65,0.65,0,0,1,.06-0.12,0.42,0.42,0,0,1,.1-0.11,0.47,0.47,0,0,1,.15-0.08,0.58,0.58,0,0,1,.22,0l0.18,0a0.38,0.38,0,0,1,.14.09,0.36,0.36,0,0,1,.08.14,0.54,0.54,0,0,1,0,.2,0.65,0.65,0,0,1,0,.19,0.48,0.48,0,0,1-.1.16,0.43,0.43,0,0,1-.17.1,0.56,0.56,0,0,1-.23,0,0.49,0.49,0,0,1-.34-0.14A0.43,0.43,0,0,1,373.85,311.53Z" transform="translate(-23.4 -4.62)"/><path class="cls-2" d="M372.89,306.79a1.08,1.08,0,0,0,.55-0.77l0.18,0.08a0.81,0.81,0,0,0-.27.72C373.53,307,372.89,306.79,372.89,306.79Z" transform="translate(-23.4 -4.62)"/><path class="cls-2" d="M373.79,306.19h0l-0.07,0h-0.09l-0.1,0-0.1-.07a0.42,0.42,0,0,1-.09-0.13,0.45,0.45,0,0,1,0-.13,0.28,0.28,0,0,1,0-.12,0.26,0.26,0,0,1,.06-0.1,0.39,0.39,0,0,1,.12-0.08l0.14,0h0.14a0.31,0.31,0,0,1,.12.07,0.4,0.4,0,0,1,.09.14,0.35,0.35,0,0,1,0,.27A0.31,0.31,0,0,1,373.79,306.19Z" transform="translate(-23.4 -4.62)"/><path class="cls-2" d="M369.93,308.72a1.34,1.34,0,0,0-1-.64l0.09-.22s0.67,0.55.91,0.29S369.93,308.72,369.93,308.72Z" transform="translate(-23.4 -4.62)"/><path class="cls-2" d="M369.13,307.62l0,0a0.48,0.48,0,0,1,0,.09,0.58,0.58,0,0,1,0,.12,0.37,0.37,0,0,1,0,.13,0.42,0.42,0,0,1-.08.13,0.53,0.53,0,0,1-.16.11l-0.16.05a0.35,0.35,0,0,1-.15,0,0.32,0.32,0,0,1-.13-0.07,0.49,0.49,0,0,1-.11-0.15,0.59,0.59,0,0,1-.05-0.17,0.44,0.44,0,0,1,0-.17,0.39,0.39,0,0,1,.08-0.16,0.5,0.5,0,0,1,.17-0.13,0.44,0.44,0,0,1,.33,0A0.39,0.39,0,0,1,369.13,307.62Z" transform="translate(-23.4 -4.62)"/><path class="cls-2" d="M371.54,306.83a1.27,1.27,0,0,0,.24-1.09H372a1,1,0,0,0,0,.9C372.34,306.79,371.54,306.83,371.54,306.83Z" transform="translate(-23.4 -4.62)"/><path class="cls-2" d="M372.25,305.77l0,0-0.07.05-0.1,0-0.13,0-0.14,0a0.5,0.5,0,0,1-.15-0.11,0.53,0.53,0,0,1-.1-0.13,0.32,0.32,0,0,1,0-.13,0.3,0.3,0,0,1,0-.14,0.46,0.46,0,0,1,.1-0.14,0.56,0.56,0,0,1,.13-0.1,0.41,0.41,0,0,1,.15,0,0.37,0.37,0,0,1,.17,0,0.47,0.47,0,0,1,.17.11,0.41,0.41,0,0,1,.15.28A0.37,0.37,0,0,1,372.25,305.77Z" transform="translate(-23.4 -4.62)"/><path class="cls-2" d="M370.56,307.49a1.58,1.58,0,0,0-.7-1.2l0.22-.18s0.41,0.93.79,0.8S370.56,307.49,370.56,307.49Z" transform="translate(-23.4 -4.62)"/><path class="cls-2" d="M370.31,305.92V306a0.56,0.56,0,0,1,0,.11,0.67,0.67,0,0,1-.05.13,0.44,0.44,0,0,1-.1.12,0.5,0.5,0,0,1-.16.09,0.62,0.62,0,0,1-.23,0,0.66,0.66,0,0,1-.2,0,0.41,0.41,0,0,1-.15-0.09,0.38,0.38,0,0,1-.1-0.15,0.58,0.58,0,0,1,0-.21,0.7,0.7,0,0,1,0-.2,0.52,0.52,0,0,1,.1-0.18,0.46,0.46,0,0,1,.17-0.12,0.59,0.59,0,0,1,.25,0,0.52,0.52,0,0,1,.37.13A0.46,0.46,0,0,1,370.31,305.92Z" transform="translate(-23.4 -4.62)"/><path class="cls-2" d="M370.51,310.25a1.6,1.6,0,0,0-1.23.69l-0.18-.22s0.95-.4.82-0.79S370.51,310.25,370.51,310.25Z" transform="translate(-23.4 -4.62)"/><path class="cls-2" d="M368.91,310.47H369l0.11,0,0.13,0.06a0.45,0.45,0,0,1,.12.1,0.5,0.5,0,0,1,.09.16,0.63,0.63,0,0,1,0,.23,0.66,0.66,0,0,1,0,.2,0.41,0.41,0,0,1-.09.15,0.39,0.39,0,0,1-.15.09,0.58,0.58,0,0,1-.22,0,0.7,0.7,0,0,1-.21,0,0.52,0.52,0,0,1-.18-0.1,0.47,0.47,0,0,1-.12-0.17,0.6,0.6,0,0,1,0-.25,0.52,0.52,0,0,1,.14-0.37A0.47,0.47,0,0,1,368.91,310.47Z" transform="translate(-23.4 -4.62)"/><path class="cls-2" d="M374.18,308.41a1.6,1.6,0,0,0,1.31.52l-0.06.28s-0.9-.49-1.13-0.14S374.18,308.41,374.18,308.41Z" transform="translate(-23.4 -4.62)"/><path class="cls-2" d="M375.36,309.51l0,0,0-.1a0.69,0.69,0,0,1,0-.13,0.45,0.45,0,0,1,0-.16,0.5,0.5,0,0,1,.07-0.17,0.63,0.63,0,0,1,.16-0.17,0.66,0.66,0,0,1,.18-0.1,0.41,0.41,0,0,1,.17,0,0.39,0.39,0,0,1,.17.06,0.58,0.58,0,0,1,.16.15,0.7,0.7,0,0,1,.1.18,0.52,0.52,0,0,1,0,.2,0.46,0.46,0,0,1-.06.2,0.6,0.6,0,0,1-.17.19,0.52,0.52,0,0,1-.37.13A0.47,0.47,0,0,1,375.36,309.51Z" transform="translate(-23.4 -4.62)"/><path class="cls-2" d="M373.84,307.43a1.6,1.6,0,0,0,1.34-.42l0.13,0.25s-1,.19-1,0.6S373.84,307.43,373.84,307.43Z" transform="translate(-23.4 -4.62)"/><path class="cls-2" d="M375.45,307.54l-0.06,0-0.1,0-0.11-.08a0.45,0.45,0,0,1-.1-0.13,0.5,0.5,0,0,1-.06-0.18,0.63,0.63,0,0,1,0-.23,0.66,0.66,0,0,1,.08-0.19,0.41,0.41,0,0,1,.12-0.13,0.39,0.39,0,0,1,.17-0.06,0.58,0.58,0,0,1,.22,0,0.7,0.7,0,0,1,.19.08,0.52,0.52,0,0,1,.15.14,0.46,0.46,0,0,1,.08.2,0.6,0.6,0,0,1,0,.25,0.52,0.52,0,0,1-.21.33A0.47,0.47,0,0,1,375.45,307.54Z" transform="translate(-23.4 -4.62)"/><path class="cls-2" d="M374.47,309l-0.05.26a2.53,2.53,0,0,1-.16.47,3.08,3.08,0,0,1-.31.54,2,2,0,0,1-.51.5,2.24,2.24,0,0,1-.76.32,2.79,2.79,0,0,1-1,0,3,3,0,0,1-.86-0.25,1.83,1.83,0,0,1-.62-0.47,1.72,1.72,0,0,1-.35-0.71,2.58,2.58,0,0,1,0-1,3.11,3.11,0,0,1,.27-0.89,2.32,2.32,0,0,1,.54-0.73,2.07,2.07,0,0,1,.83-0.45,2.66,2.66,0,0,1,1.12,0,2.32,2.32,0,0,1,1.58.79A2.07,2.07,0,0,1,374.47,309Z" transform="translate(-23.4 -4.62)"/><path class="cls-2" d="M374,309l0,0.21a2.06,2.06,0,0,1-.13.38,2.49,2.49,0,0,1-.25.44,1.62,1.62,0,0,1-.41.41,1.82,1.82,0,0,1-.62.26,2.26,2.26,0,0,1-.85,0,2.39,2.39,0,0,1-.7-0.2,1.48,1.48,0,0,1-.5-0.38,1.39,1.39,0,0,1-.28-0.58,2.09,2.09,0,0,1,0-.79,2.52,2.52,0,0,1,.22-0.72,1.88,1.88,0,0,1,.44-0.59,1.67,1.67,0,0,1,.67-0.36,2.16,2.16,0,0,1,.91,0,1.88,1.88,0,0,1,1.28.64A1.68,1.68,0,0,1,374,309Z" transform="translate(-23.4 -4.62)"/><path class="cls-2" d="M225.38,361.83a1.34,1.34,0,0,0-.41,1.11l-0.24,0s0.39-.77.1-1S225.38,361.83,225.38,361.83Z" transform="translate(-23.4 -4.62)"/><path class="cls-2" d="M224.47,362.84l0,0,0.08,0,0.11,0h0.14a0.42,0.42,0,0,1,.15.05,0.53,0.53,0,0,1,.15.13,0.56,0.56,0,0,1,.08.15,0.35,0.35,0,0,1,0,.15,0.32,0.32,0,0,1,0,.14,0.49,0.49,0,0,1-.12.14,0.59,0.59,0,0,1-.15.09,0.44,0.44,0,0,1-.17,0,0.39,0.39,0,0,1-.17,0,0.5,0.5,0,0,1-.16-0.14,0.44,0.44,0,0,1-.11-0.31A0.39,0.39,0,0,1,224.47,362.84Z" transform="translate(-23.4 -4.62)"/><path class="cls-2" d="M226.69,361.2a1.08,1.08,0,0,0,.43.85l-0.15.12a0.81,0.81,0,0,0-.51-0.57C226.19,361.67,226.69,361.2,226.69,361.2Z" transform="translate(-23.4 -4.62)"/><path class="cls-2" d="M226.8,362.44v-0.05a0.53,0.53,0,0,1,0-.1,0.64,0.64,0,0,1,.06-0.12,0.42,0.42,0,0,1,.1-0.11,0.47,0.47,0,0,1,.15-0.08,0.58,0.58,0,0,1,.22,0l0.18,0a0.38,0.38,0,0,1,.14.09,0.36,0.36,0,0,1,.08.14,0.54,0.54,0,0,1,0,.2,0.65,0.65,0,0,1,0,.19,0.49,0.49,0,0,1-.1.16,0.43,0.43,0,0,1-.17.1,0.56,0.56,0,0,1-.23,0,0.49,0.49,0,0,1-.34-0.14A0.43,0.43,0,0,1,226.8,362.44Z" transform="translate(-23.4 -4.62)"/><path class="cls-2" d="M225.83,357.71a1.08,1.08,0,0,0,.55-0.77l0.18,0.08a0.81,0.81,0,0,0-.27.72C226.48,357.93,225.83,357.71,225.83,357.71Z" transform="translate(-23.4 -4.62)"/><path class="cls-2" d="M226.74,357.11h0l-0.07,0h-0.09l-0.1,0-0.1-.07a0.42,0.42,0,0,1-.09-0.13,0.45,0.45,0,0,1,0-.13,0.28,0.28,0,0,1,0-.12,0.26,0.26,0,0,1,.06-0.1,0.39,0.39,0,0,1,.12-0.08l0.14,0h0.14a0.31,0.31,0,0,1,.12.07,0.4,0.4,0,0,1,.09.14,0.35,0.35,0,0,1,0,.27A0.31,0.31,0,0,1,226.74,357.11Z" transform="translate(-23.4 -4.62)"/><path class="cls-2" d="M222.88,359.63a1.34,1.34,0,0,0-1-.64l0.09-.22s0.67,0.55.91,0.29S222.88,359.63,222.88,359.63Z" transform="translate(-23.4 -4.62)"/><path class="cls-2" d="M222.08,358.54l0,0a0.48,0.48,0,0,1,0,.09,0.59,0.59,0,0,1,0,.12,0.38,0.38,0,0,1,0,.13,0.42,0.42,0,0,1-.08.13,0.53,0.53,0,0,1-.16.11l-0.16.05a0.35,0.35,0,0,1-.15,0,0.33,0.33,0,0,1-.13-0.07,0.49,0.49,0,0,1-.11-0.15,0.59,0.59,0,0,1-.05-0.17,0.44,0.44,0,0,1,0-.17,0.39,0.39,0,0,1,.08-0.16,0.5,0.5,0,0,1,.17-0.13,0.44,0.44,0,0,1,.33,0A0.39,0.39,0,0,1,222.08,358.54Z" transform="translate(-23.4 -4.62)"/><path class="cls-2" d="M224.48,357.75a1.27,1.27,0,0,0,.24-1.09H225a1,1,0,0,0,0,.9C225.29,357.7,224.48,357.75,224.48,357.75Z" transform="translate(-23.4 -4.62)"/><path class="cls-2" d="M225.2,356.69l0,0-0.07.05-0.1,0-0.13,0-0.14,0a0.5,0.5,0,0,1-.15-0.11,0.53,0.53,0,0,1-.1-0.13,0.33,0.33,0,0,1,0-.13,0.31,0.31,0,0,1,0-.14,0.46,0.46,0,0,1,.1-0.14,0.55,0.55,0,0,1,.13-0.1,0.41,0.41,0,0,1,.15,0,0.37,0.37,0,0,1,.17,0,0.47,0.47,0,0,1,.17.11,0.41,0.41,0,0,1,.15.28A0.37,0.37,0,0,1,225.2,356.69Z" transform="translate(-23.4 -4.62)"/><path class="cls-2" d="M223.51,358.41a1.58,1.58,0,0,0-.7-1.2L223,357s0.41,0.93.79,0.8S223.51,358.41,223.51,358.41Z" transform="translate(-23.4 -4.62)"/><path class="cls-2" d="M223.26,356.83v0.06a0.56,0.56,0,0,1,0,.11,0.69,0.69,0,0,1-.05.13,0.44,0.44,0,0,1-.1.12,0.5,0.5,0,0,1-.16.09,0.62,0.62,0,0,1-.23,0,0.66,0.66,0,0,1-.2,0,0.4,0.4,0,0,1-.15-0.09,0.38,0.38,0,0,1-.1-0.15,0.58,0.58,0,0,1,0-.21,0.69,0.69,0,0,1,0-.2,0.52,0.52,0,0,1,.1-0.18,0.46,0.46,0,0,1,.17-0.12,0.59,0.59,0,0,1,.25,0,0.52,0.52,0,0,1,.37.13A0.46,0.46,0,0,1,223.26,356.83Z" transform="translate(-23.4 -4.62)"/><path class="cls-2" d="M223.45,361.16a1.6,1.6,0,0,0-1.23.69l-0.18-.22s0.95-.4.82-0.79S223.45,361.16,223.45,361.16Z" transform="translate(-23.4 -4.62)"/><path class="cls-2" d="M221.86,361.39h0.06l0.11,0,0.13,0.06a0.45,0.45,0,0,1,.12.1,0.51,0.51,0,0,1,.09.16,0.63,0.63,0,0,1,0,.23,0.66,0.66,0,0,1,0,.2,0.41,0.41,0,0,1-.09.15,0.39,0.39,0,0,1-.15.09,0.58,0.58,0,0,1-.22,0,0.7,0.7,0,0,1-.21,0,0.52,0.52,0,0,1-.18-0.1,0.46,0.46,0,0,1-.12-0.17,0.6,0.6,0,0,1,0-.25,0.52,0.52,0,0,1,.14-0.37A0.47,0.47,0,0,1,221.86,361.39Z" transform="translate(-23.4 -4.62)"/><path class="cls-2" d="M227.12,359.32a1.6,1.6,0,0,0,1.31.52l-0.06.28s-0.9-.49-1.13-0.14S227.12,359.32,227.12,359.32Z" transform="translate(-23.4 -4.62)"/><path class="cls-2" d="M228.3,360.42l0,0,0-.1a0.69,0.69,0,0,1,0-.13,0.45,0.45,0,0,1,0-.16,0.51,0.51,0,0,1,.07-0.17,0.63,0.63,0,0,1,.16-0.17,0.66,0.66,0,0,1,.18-0.1,0.41,0.41,0,0,1,.17,0,0.38,0.38,0,0,1,.17.06,0.58,0.58,0,0,1,.16.15,0.7,0.7,0,0,1,.1.18,0.52,0.52,0,0,1,0,.2,0.46,0.46,0,0,1-.06.2,0.6,0.6,0,0,1-.17.19,0.52,0.52,0,0,1-.37.13A0.47,0.47,0,0,1,228.3,360.42Z" transform="translate(-23.4 -4.62)"/><path class="cls-2" d="M226.79,358.35a1.6,1.6,0,0,0,1.34-.42l0.13,0.25s-1,.19-1,0.6S226.79,358.35,226.79,358.35Z" transform="translate(-23.4 -4.62)"/><path class="cls-2" d="M228.4,358.46l-0.06,0-0.1,0-0.11-.08a0.45,0.45,0,0,1-.1-0.13A0.5,0.5,0,0,1,228,358a0.63,0.63,0,0,1,0-.23,0.66,0.66,0,0,1,.08-0.19,0.41,0.41,0,0,1,.12-0.13,0.39,0.39,0,0,1,.17-0.06,0.58,0.58,0,0,1,.22,0,0.7,0.7,0,0,1,.19.08,0.52,0.52,0,0,1,.15.14,0.46,0.46,0,0,1,.08.2,0.6,0.6,0,0,1,0,.25,0.52,0.52,0,0,1-.21.33A0.47,0.47,0,0,1,228.4,358.46Z" transform="translate(-23.4 -4.62)"/><path class="cls-2" d="M227.41,360l-0.05.26a2.53,2.53,0,0,1-.16.47,3.08,3.08,0,0,1-.31.54,2,2,0,0,1-.51.5,2.24,2.24,0,0,1-.76.32,2.79,2.79,0,0,1-1,0,3,3,0,0,1-.86-0.25,1.82,1.82,0,0,1-.62-0.47,1.71,1.71,0,0,1-.35-0.71,2.58,2.58,0,0,1,0-1,3.1,3.1,0,0,1,.27-0.89,2.32,2.32,0,0,1,.54-0.73,2.07,2.07,0,0,1,.83-0.45,2.66,2.66,0,0,1,1.12,0,2.32,2.32,0,0,1,1.58.79A2.07,2.07,0,0,1,227.41,360Z" transform="translate(-23.4 -4.62)"/><path class="cls-2" d="M227,359.93l0,0.21a2.05,2.05,0,0,1-.13.38,2.5,2.5,0,0,1-.25.44,1.62,1.62,0,0,1-.41.41,1.82,1.82,0,0,1-.62.26,2.27,2.27,0,0,1-.85,0,2.4,2.4,0,0,1-.7-0.2,1.48,1.48,0,0,1-.5-0.38,1.39,1.39,0,0,1-.28-0.58,2.09,2.09,0,0,1,0-.79,2.52,2.52,0,0,1,.22-0.72,1.88,1.88,0,0,1,.44-0.59,1.67,1.67,0,0,1,.67-0.36,2.16,2.16,0,0,1,.91,0,1.88,1.88,0,0,1,1.28.64A1.68,1.68,0,0,1,227,359.93Z" transform="translate(-23.4 -4.62)"/><path class="cls-3" d="M462.6,86.28s-26.25-8.84-35.72,8.92,13.71,40-1.56,49.94,0.9,39.8,25.7,26.59,27.64-28.3,27.64-28.3Z" transform="translate(-23.4 -4.62)"/><path class="cls-4" d="M461.85,88.54s-26.25-8.84-35.72,8.92,13.71,40-1.56,49.94,0.9,39.8,25.7,26.59,27.64-28.3,27.64-28.3Z" transform="translate(-23.4 -4.62)"/><path class="cls-5" d="M475.68,155.47c-5.89-3.89-.69-23-0.69-23l-21.78-1.34s1.07,12.78,1.71,20.11c0.14,1.57-2.36,1.6-5.29,1.46a8.72,8.72,0,0,1,0,1.11,59.48,59.48,0,0,1-.37,10c12.76,8.48,36.3,17.83,39.64,8.52C490.71,167.32,481.58,159.36,475.68,155.47Z" transform="translate(-23.4 -4.62)"/><path class="cls-6" d="M481.13,120.8S486.25,98.59,461.52,95c-31.9-4.61-29.31,36-17,46.19S477.87,137.56,481.13,120.8Z" transform="translate(-23.4 -4.62)"/><path class="cls-2" d="M463.3,140.55l-0.53-18s-11.19-4.33-17.42-3.83a13.12,13.12,0,0,0-9.25,4.68s1.65,16.5,9.7,19.68S463.3,140.55,463.3,140.55Z" transform="translate(-23.4 -4.62)"/><polyline class="cls-7" points="437.27 118.7 453.77 117.05 453.53 124.27 439.02 134.66"/><path class="cls-8" d="M438.15,113.14l0.08,0.57,0.08,0.65c0.06,0.24.13,0.5,0.19,0.78s0.23,0.56.33,0.86c0.07,0.14.18,0.27,0.26,0.41a1.4,1.4,0,0,0,.31.38,2.89,2.89,0,0,0,.79.6l0.48,0.17,0.51,0.07a3.1,3.1,0,0,0,1-.12,2.19,2.19,0,0,0,.49-0.18,2,2,0,0,0,.46-0.23l0.43-.28,0.37-.33a5.61,5.61,0,0,0,.62-0.69c0.18-.23.3-0.48,0.43-0.68a3.53,3.53,0,0,0,.28-0.57l0.24-.52s0,0.2,0,.57a2.69,2.69,0,0,1-.12.66,5.27,5.27,0,0,1-.3.83,4.28,4.28,0,0,1-.56.9l-0.38.45c-0.15.13-.32,0.26-0.48,0.39a2.76,2.76,0,0,1-.55.34,2.19,2.19,0,0,1-.62.26,4,4,0,0,1-1.37.2c-0.24,0-.47-0.07-0.7-0.11l-0.66-.26a3.33,3.33,0,0,1-1-.89,1.7,1.7,0,0,1-.34-0.53c-0.08-.19-0.18-0.36-0.24-0.54a6.08,6.08,0,0,1-.21-1c0-.33,0-0.63,0-0.88s0.08-.47.11-0.64Z" transform="translate(-23.4 -4.62)"/><path class="cls-8" d="M454.42,114.39L454.5,115l0.08,0.65c0.06,0.24.13,0.5,0.19,0.78s0.23,0.56.33,0.86c0.07,0.14.18,0.27,0.26,0.41a1.4,1.4,0,0,0,.31.38,2.89,2.89,0,0,0,.79.6l0.48,0.17,0.51,0.07a3.1,3.1,0,0,0,1-.12,2.19,2.19,0,0,0,.49-0.18,2,2,0,0,0,.46-0.23l0.43-.28,0.37-.33a5.6,5.6,0,0,0,.62-0.69c0.18-.23.3-0.47,0.43-0.68a3.52,3.52,0,0,0,.28-0.57l0.24-.52s0,0.2,0,.57a2.7,2.7,0,0,1-.12.66,5.27,5.27,0,0,1-.3.83,4.28,4.28,0,0,1-.56.9l-0.38.45-0.48.39a2.77,2.77,0,0,1-.55.34,2.19,2.19,0,0,1-.62.26,4,4,0,0,1-1.37.2c-0.24,0-.47-0.07-0.7-0.11l-0.66-.26a3.33,3.33,0,0,1-1-.89,1.7,1.7,0,0,1-.34-0.53c-0.08-.19-0.18-0.36-0.24-0.54a6.08,6.08,0,0,1-.21-1c0-.33,0-0.63,0-0.88s0.08-.47.11-0.64Z" transform="translate(-23.4 -4.62)"/><path class="cls-8" d="M452.67,109.63a2.56,2.56,0,0,1,.15-0.56,4.32,4.32,0,0,1,.78-1.31,4.58,4.58,0,0,1,1.8-1.34,5.27,5.27,0,0,1,1.26-.38,6.38,6.38,0,0,1,1.35,0,5.6,5.6,0,0,1,1.29.27,5.13,5.13,0,0,1,1.15.48,6.79,6.79,0,0,1,1,.6c0.28,0.22.53,0.45,0.76,0.66a6.93,6.93,0,0,1,1,1.14c0.2,0.3.3,0.48,0.3,0.48s-0.21-.05-0.55-0.16-0.79-.31-1.33-0.49c-0.27-.09-0.56-0.18-0.85-0.3s-0.62-.18-0.93-0.29a7.31,7.31,0,0,0-1-.24,6.39,6.39,0,0,0-1-.15,8.63,8.63,0,0,0-1,0,7.52,7.52,0,0,0-.92.13,7,7,0,0,0-.87.23c-0.26.12-.55,0.2-0.78,0.33a11.1,11.1,0,0,0-1.19.67C452.84,109.5,452.67,109.63,452.67,109.63Z" transform="translate(-23.4 -4.62)"/><path class="cls-8" d="M447.16,109.88l-1.69-.9c-0.49-.24-1-0.53-1.63-0.75a8.06,8.06,0,0,0-.88-0.3,2.94,2.94,0,0,0-.44-0.09,1.6,1.6,0,0,0-.43-0.06l-0.43,0c-0.14,0-.27,0-0.41,0a3.79,3.79,0,0,0-.81.19,8.29,8.29,0,0,0-.78.35,7.17,7.17,0,0,0-.71.43,4.74,4.74,0,0,0-.61.42c-0.17.14-.34,0.26-0.48,0.36s-0.46.31-.46,0.31,0-.2.13-0.53c0.05-.17.11-0.38,0.2-0.61a2.68,2.68,0,0,1,.38-0.74,4.32,4.32,0,0,1,.6-0.82,5.32,5.32,0,0,1,.92-0.76,4,4,0,0,1,1.23-.51,4.71,4.71,0,0,1,.69-0.12h0.7a5.08,5.08,0,0,1,1.31.3,5.31,5.31,0,0,1,1.11.58,6.14,6.14,0,0,1,1.54,1.44A5.32,5.32,0,0,1,447.16,109.88Z" transform="translate(-23.4 -4.62)"/><path class="cls-6" d="M430.06,163.54s13.45,15.45,13.26,17.34-31.79,24.68-38.86,28.5-78.41,19.34-51.52,9.82c0,0-25.52,3.39.48-3,0,0-26.5,5.74-.72-2.53,0,0-18.14,2.14,2.67-2.18,0,0-12.73-8,3.91-2.33l38-17Z" transform="translate(-23.4 -4.62)"/><path class="cls-5" d="M430,191.85c7.31-5.41,13.28-10.15,13.36-11,0.19-1.89-13.26-17.34-13.26-17.34L415.69,176C420.23,181.49,425.12,186.64,430,191.85Z" transform="translate(-23.4 -4.62)"/><path class="cls-2" d="M417.23,171.11l17.32,18.63s12.12-26.45,16.36-37.54c-5-2-13.77,1.75-19.28,6C426.62,162.08,417.23,171.11,417.23,171.11Z" transform="translate(-23.4 -4.62)"/><path class="cls-9" d="M435.72,168.7a74.72,74.72,0,0,1-4.59-10.09c-5.11,4.06-13.89,12.5-13.89,12.5l17.32,18.63s2.55-5.56,5.71-12.65C438.69,174.32,437.18,171.52,435.72,168.7Z" transform="translate(-23.4 -4.62)"/><path class="cls-2" d="M479.07,149.51s18.31,3.26,15.4,21-20.14,38.42-20.14,38.42l3,6.46-49.93,8s-1.87-45.22,3-56.28,20.55-14.84,20.55-14.84-1,9.26,6.73,10C467.53,163.25,479.07,149.51,479.07,149.51Z" transform="translate(-23.4 -4.62)"/><g class="cls-10"><path class="cls-3" d="M489.81,184.56c-8.31,5.67-19.22,8.85-28,10.37-10.57,1.84-23.51,2.24-34.69-1.07-0.38,14.71.23,29.46,0.23,29.46l49.93-8-3-6.46A129,129,0,0,0,489.81,184.56Z" transform="translate(-23.4 -4.62)"/></g><path class="cls-6" d="M429.68,385s-17.7,71.38-24.39,77.81c0,0-59.24-17.21-9.37-8.81l1.63-71Z" transform="translate(-23.4 -4.62)"/><path class="cls-5" d="M408.25,436.79a68.31,68.31,0,0,0,6.46,2.65c7.19-23,15-54.4,15-54.4l-32.12-2-1.08,46.68C400.31,432.07,404,434.78,408.25,436.79Z" transform="translate(-23.4 -4.62)"/><path class="cls-11" d="M407.39,459.86l-2.69,5.82s-50.47-18.2-18.89-13.24C385.81,452.44,377,452.11,407.39,459.86Z" transform="translate(-23.4 -4.62)"/><path class="cls-3" d="M377,451.61c-9.5.65,27.73,14.07,27.73,14.07l0.57-1.24C400.47,462.68,378.24,454.41,377,451.61Z" transform="translate(-23.4 -4.62)"/><path class="cls-6" d="M466.75,339.09s70-22.64,79-20.35c0,0,16.64,59.4-2.54,12.61L482,367.41Z" transform="translate(-23.4 -4.62)"/><path class="cls-5" d="M521.56,322.92c-23.43,6-54.81,16.17-54.81,16.17L482,367.41l49.12-29C528.13,333.17,524.83,328.06,521.56,322.92Z" transform="translate(-23.4 -4.62)"/><path class="cls-11" d="M542.08,318.53l6.36-.78s11.18,52.47-1.28,23C547.16,340.78,551.51,348.4,542.08,318.53Z" transform="translate(-23.4 -4.62)"/><path class="cls-3" d="M551.12,348.72c5.56,7.73-2.68-31-2.68-31l-1.36.17C548.12,322.93,552.83,346.17,551.12,348.72Z" transform="translate(-23.4 -4.62)"/><path class="cls-3" d="M426.88,216l-11.52,39.06s-24,75-27,163.4c0,0,20.7,15.36,33.66,11.4,0,0,17.41-75.16,22.92-103.7s7.51-74.61,7.51-74.61Z" transform="translate(-23.4 -4.62)"/><path class="cls-12" d="M426.88,216s18.74,6.65,50.43-.68c0,0,17.17,20.71,18.67,45.75s-17,99.14-23,104.15-24,19.53-29-20,1.5-65.09,1.5-65.09-18.53-7-30-25C415.36,255.09,422.87,229.55,426.88,216Z" transform="translate(-23.4 -4.62)"/><path class="cls-12" d="M443.94,343.66S446.35,375,462.76,376s61.78-27.51,61.78-27.51,1-16.89-10.14-24.61Z" transform="translate(-23.4 -4.62)"/><path class="cls-12" d="M453.06,89.52s-4,12.64,11.32,20-6.18,41.82,10.37,48.83,20,9.34,20,15.47c0,0,19.82-7.44,16-26s-22.05-14.45-18.86-39.26C495.56,80.19,457.35,69.67,453.06,89.52Z" transform="translate(-23.4 -4.62)"/><path class="cls-6" d="M478,187.39s16.92-11.55,18.78-11.14,20.78,34.46,23.75,41.94,10,80.14,3.71,52.32c0,0,.37,25.74-3-0.83,0,0,2.6,27-2.6.42,0,0,0,18.27-1.86-2.91,0,0-9.41,11.7-1.86-4.15l-12.45-39.7Z" transform="translate(-23.4 -4.62)"/><path class="cls-5" d="M506.05,190.81c-4.52-7.9-8.52-14.38-9.32-14.56-1.86-.42-18.78,11.14-18.78,11.14l10.72,15.73C494.62,199.25,500.32,195,506.05,190.81Z" transform="translate(-23.4 -4.62)"/><path class="cls-2" d="M484,201l20.53-15s-6-16-16.52-21.53-16.52,19-16.52,19Z" transform="translate(-23.4 -4.62)"/><path class="cls-13" d="M430.74,28.24c0,13,23.62,44.76,23.62,44.76S478,41.28,478,28.24A23.62,23.62,0,1,0,430.74,28.24Z" transform="translate(-23.4 -4.62)"/><circle class="cls-2" cx="430.96" cy="22.26" r="16.83"/><path class="cls-12" d="M448.68,28.2a3.92,3.92,0,0,0-3.38-.71l0-.71s2.39,0.8,2.79-.14S448.68,28.2,448.68,28.2Z" transform="translate(-23.4 -4.62)"/><path class="cls-12" d="M445.37,26l0.1,0.1a1.39,1.39,0,0,1,.16.22,1.69,1.69,0,0,1,.15.31,1.11,1.11,0,0,1,.06.39,1.24,1.24,0,0,1-.09.45,1.54,1.54,0,0,1-.32.48,1.63,1.63,0,0,1-.39.31,1,1,0,0,1-.41.13,0.94,0.94,0,0,1-.43-0.07,1.42,1.42,0,0,1-.45-0.3,1.71,1.71,0,0,1-.32-0.41,1.28,1.28,0,0,1-.16-0.48,1.14,1.14,0,0,1,.06-0.52,1.47,1.47,0,0,1,.33-0.52,1.28,1.28,0,0,1,.85-0.46A1.14,1.14,0,0,1,445.37,26Z" transform="translate(-23.4 -4.62)"/><path class="cls-12" d="M451.08,31.72a3.14,3.14,0,0,0-2.25,1.61l-0.41-.39s1.77-1,1.43-1.72S451.08,31.72,451.08,31.72Z" transform="translate(-23.4 -4.62)"/><path class="cls-12" d="M447.54,32.59h0.16l0.3,0a1.88,1.88,0,0,1,.36.11,1.22,1.22,0,0,1,.37.24,1.37,1.37,0,0,1,.29.41,1.71,1.71,0,0,1,.15.62,1.81,1.81,0,0,1,0,.55,1.12,1.12,0,0,1-.2.43,1,1,0,0,1-.38.3,1.58,1.58,0,0,1-.58.14,1.9,1.9,0,0,1-.57,0,1.42,1.42,0,0,1-.51-0.23,1.26,1.26,0,0,1-.38-0.44,1.63,1.63,0,0,1-.18-0.66,1.42,1.42,0,0,1,.26-1A1.27,1.27,0,0,1,447.54,32.59Z" transform="translate(-23.4 -4.62)"/><path class="cls-12" d="M460.79,27.71A3.14,3.14,0,0,0,463.27,29l-0.16.54s-1.69-1.11-2.19-.46S460.79,27.71,460.79,27.71Z" transform="translate(-23.4 -4.62)"/><path class="cls-12" d="M462.91,30.06l-0.06-.1a1.13,1.13,0,0,1-.08-0.2,1.37,1.37,0,0,1-.05-0.27,0.88,0.88,0,0,1,0-.31,1,1,0,0,1,.16-0.33,1.23,1.23,0,0,1,.35-0.3,1.31,1.31,0,0,1,.36-0.16,0.81,0.81,0,0,1,.34,0,0.76,0.76,0,0,1,.32.14,1.14,1.14,0,0,1,.28.32,1.37,1.37,0,0,1,.16.38,1,1,0,0,1,0,.4,0.91,0.91,0,0,1-.15.39,1.18,1.18,0,0,1-.37.33,1,1,0,0,1-.76.18A0.92,0.92,0,0,1,462.91,30.06Z" transform="translate(-23.4 -4.62)"/><path class="cls-12" d="M453.93,20a3.92,3.92,0,0,0,1.4-3.16L456,17s-1.28,2.17-.45,2.75S453.93,20,453.93,20Z" transform="translate(-23.4 -4.62)"/><path class="cls-12" d="M456.73,17.24l-0.12.08-0.25.11a1.71,1.71,0,0,1-.33.08,1.1,1.1,0,0,1-.39,0,1.24,1.24,0,0,1-.42-0.19,1.54,1.54,0,0,1-.4-0.42,1.63,1.63,0,0,1-.22-0.44,1,1,0,0,1,0-.43,1,1,0,0,1,.16-0.41,1.42,1.42,0,0,1,.39-0.37,1.71,1.71,0,0,1,.46-0.23,1.28,1.28,0,0,1,.5-0.06,1.14,1.14,0,0,1,.49.17,1.47,1.47,0,0,1,.44.44,1.28,1.28,0,0,1,.27.93A1.14,1.14,0,0,1,456.73,17.24Z" transform="translate(-23.4 -4.62)"/><path class="cls-12" d="M460.08,23.83a3.7,3.7,0,0,0,3.25.23l0.07,0.66s-2.33-.44-2.59.49S460.08,23.83,460.08,23.83Z" transform="translate(-23.4 -4.62)"/><path class="cls-12" d="M463.45,25.42l-0.11-.08a1.32,1.32,0,0,1-.18-0.18,1.61,1.61,0,0,1-.18-0.27,1,1,0,0,1-.11-0.35,1.17,1.17,0,0,1,0-.43,1.45,1.45,0,0,1,.24-0.49,1.54,1.54,0,0,1,.32-0.34,1,1,0,0,1,.37-0.17,0.89,0.89,0,0,1,.41,0,1.34,1.34,0,0,1,.45.22,1.62,1.62,0,0,1,.35.34,1.2,1.2,0,0,1,.21.43,1.07,1.07,0,0,1,0,.49,1.39,1.39,0,0,1-.25.53,1.21,1.21,0,0,1-.74.54A1.08,1.08,0,0,1,463.45,25.42Z" transform="translate(-23.4 -4.62)"/><path class="cls-12" d="M457.75,21.31a4.62,4.62,0,0,0,3.17-2.56l0.63,0.54s-2.51,1.58-1.95,2.64S457.75,21.31,457.75,21.31Z" transform="translate(-23.4 -4.62)"/><path class="cls-12" d="M462.18,19.9H462a1.63,1.63,0,0,1-.32,0,2,2,0,0,1-.39-0.1,1.29,1.29,0,0,1-.4-0.23,1.46,1.46,0,0,1-.34-0.42,1.81,1.81,0,0,1-.19-0.65,1.92,1.92,0,0,1,0-.58,1.18,1.18,0,0,1,.19-0.47,1.11,1.11,0,0,1,.38-0.34,1.68,1.68,0,0,1,.61-0.18,2,2,0,0,1,.61,0,1.51,1.51,0,0,1,.55.21,1.34,1.34,0,0,1,.42.44,1.73,1.73,0,0,1,.23.69,1.51,1.51,0,0,1-.21,1.12A1.35,1.35,0,0,1,462.18,19.9Z" transform="translate(-23.4 -4.62)"/><path class="cls-12" d="M449.77,22.37a4.67,4.67,0,0,0-2.53-3.24l0.56-.63s1.56,2.56,2.64,2S449.77,22.37,449.77,22.37Z" transform="translate(-23.4 -4.62)"/><path class="cls-12" d="M448.41,17.86s0,0.08,0,.17a1.66,1.66,0,0,1,0,.32,2,2,0,0,1-.1.4,1.31,1.31,0,0,1-.24.4,1.47,1.47,0,0,1-.43.33,1.83,1.83,0,0,1-.66.19,1.94,1.94,0,0,1-.59,0,1.2,1.2,0,0,1-.47-0.2,1.13,1.13,0,0,1-.34-0.39,1.7,1.7,0,0,1-.17-0.61,2,2,0,0,1,0-.61,1.52,1.52,0,0,1,.22-0.56,1.36,1.36,0,0,1,.45-0.42,1.75,1.75,0,0,1,.7-0.22,1.52,1.52,0,0,1,1.13.23A1.36,1.36,0,0,1,448.41,17.86Z" transform="translate(-23.4 -4.62)"/><path class="cls-12" d="M456.69,32.15a4.67,4.67,0,0,0-.92,4l-0.84,0s1-2.82-.1-3.32S456.69,32.15,456.69,32.15Z" transform="translate(-23.4 -4.62)"/><path class="cls-12" d="M454,36l0.13-.12a1.66,1.66,0,0,1,.26-0.19,2,2,0,0,1,.37-0.17,1.31,1.31,0,0,1,.46-0.07,1.48,1.48,0,0,1,.53.12,1.83,1.83,0,0,1,.56.4,1.94,1.94,0,0,1,.36.47,1.2,1.2,0,0,1,.15.49,1.13,1.13,0,0,1-.09.51,1.7,1.7,0,0,1-.37.52,2,2,0,0,1-.49.37,1.52,1.52,0,0,1-.57.18,1.35,1.35,0,0,1-.61-0.08,1.75,1.75,0,0,1-.61-0.41,1.52,1.52,0,0,1-.53-1A1.36,1.36,0,0,1,454,36Z" transform="translate(-23.4 -4.62)"/><path class="cls-12" d="M459.37,30.75a4.67,4.67,0,0,0,1.81,3.69l-0.68.5s-1-2.83-2.17-2.51S459.37,30.75,459.37,30.75Z" transform="translate(-23.4 -4.62)"/><path class="cls-12" d="M459.75,35.44l0-.17a1.66,1.66,0,0,1,.09-0.31,2,2,0,0,1,.18-0.37,1.31,1.31,0,0,1,.32-0.34,1.47,1.47,0,0,1,.49-0.24,1.83,1.83,0,0,1,.69,0,1.94,1.94,0,0,1,.57.14,1.2,1.2,0,0,1,.42.29,1.13,1.13,0,0,1,.25.46,1.7,1.7,0,0,1,0,.64,2,2,0,0,1-.15.59,1.52,1.52,0,0,1-.33.5,1.35,1.35,0,0,1-.53.32,1.75,1.75,0,0,1-.73.07A1.52,1.52,0,0,1,460,36.5,1.36,1.36,0,0,1,459.75,35.44Z" transform="translate(-23.4 -4.62)"/><path class="cls-12" d="M455,33.26l-0.76,0A7.4,7.4,0,0,1,452.8,33a9,9,0,0,1-1.7-.65,5.84,5.84,0,0,1-1.67-1.25,6.55,6.55,0,0,1-1.27-2,8.15,8.15,0,0,1-.51-3,8.63,8.63,0,0,1,.35-2.6,5.33,5.33,0,0,1,1.09-2,5,5,0,0,1,1.9-1.31,7.54,7.54,0,0,1,2.8-.48,9.06,9.06,0,0,1,2.69.39,6.77,6.77,0,0,1,2.35,1.25,6,6,0,0,1,1.66,2.2,7.78,7.78,0,0,1,.63,3.21,6.77,6.77,0,0,1-1.57,4.89A6.05,6.05,0,0,1,455,33.26Z" transform="translate(-23.4 -4.62)"/><path class="cls-12" d="M454.87,32l-0.62,0a6,6,0,0,1-1.15-.2,7.29,7.29,0,0,1-1.38-.53,4.73,4.73,0,0,1-1.36-1,5.32,5.32,0,0,1-1-1.66,6.61,6.61,0,0,1-.42-2.45A7,7,0,0,1,449.2,24a4.32,4.32,0,0,1,.89-1.62,4.06,4.06,0,0,1,1.54-1.06,6.12,6.12,0,0,1,2.27-.39,7.34,7.34,0,0,1,2.19.32,5.49,5.49,0,0,1,1.91,1A4.89,4.89,0,0,1,459.34,24a6.31,6.31,0,0,1,.51,2.61,5.49,5.49,0,0,1-1.28,4A4.91,4.91,0,0,1,454.87,32Z" transform="translate(-23.4 -4.62)"/><path class="cls-5" d="M269,162.56c0.25-8.54-4.36-33.37-4.36-33.37L247.95,128s2.74,21.45,3,28.37C255.14,161.46,263.78,162.12,269,162.56Z" transform="translate(-23.4 -4.62)"/><path class="cls-6" d="M247.48,123.83s-6.71-21.11,13.46-23.92c8.65-1.2,12.78,1.44,15.35,10,7,23.55,2,33.39-5.68,34.85C257.81,147.25,250.07,137.51,247.48,123.83Z" transform="translate(-23.4 -4.62)"/><path class="cls-3" d="M251.48,113.13l0-8c-1.59-1.22-3.36.47-4.62-1.13-0.61-.77-1.21-1.57-1.87-2.3-0.33-.36-0.66-0.73-1-1.06l-0.14-.13c-1.58-1.11.27-3.16-.26-4.88-1.44-.11-3.59.29-5.73,2.8-6.4,7.52,3.81,21.45,4.48,25.74,0,0,2.87-9.54,4.34-4.31,0.41,1.46.88,4,1.52,7,1.55-.67,1.79-1.14,3.44-1.48a53.84,53.84,0,0,1-1.73-10.42Z" transform="translate(-23.4 -4.62)"/><path class="cls-3" d="M251.06,105.58s24.87,3.75,26.69-6.25l-2.91.75s7.35-4.5,3.68-12.25c0,0-1.72,4-4.9,4.25,0,0,5.64-1.75,2.94-7.5,0,0-3.92,5.5-12.75,4s-26-.25-21.57,12.75S251.06,105.58,251.06,105.58Z" transform="translate(-23.4 -4.62)"/><path class="cls-2" d="M279.38,123.49s-7.69-5.61-13.75-3.19-7.22,3.66-7.22,3.66l-0.8,18.6a16.67,16.67,0,0,0,14.92,2C282.75,141.16,279.38,123.49,279.38,123.49Z" transform="translate(-23.4 -4.62)"/><path class="cls-1" d="M279.46,124.95c-2.34-1.41-7.62-4.83-12-3.07-5.85,2.34-7,3.53-7,3.53l-0.77,18a12.26,12.26,0,0,0,2.2,1.27,17.16,17.16,0,0,0,10.65-.13C281.55,141.55,280,128.21,279.46,124.95Z" transform="translate(-23.4 -4.62)"/><polyline class="cls-14" points="222.1 113.92 236.27 120.39 235.8 133.86 223.03 123.55"/><path class="cls-6" d="M246.57,118.72a2.65,2.65,0,0,0-2.26-1.14c-3.42.16-4,5.92-2.58,9.37s5.62,6.61,7,3h0C248.82,125.27,246.86,121.82,246.57,118.72Z" transform="translate(-23.4 -4.62)"/><path class="cls-8" d="M264.58,120s-0.08-.16-0.21-0.45l-0.23-.52-0.34-.62a5.4,5.4,0,0,0-.44-0.68,5.12,5.12,0,0,0-.58-0.64,2.79,2.79,0,0,0-.73-0.41,1.47,1.47,0,0,0-.79-0.07,1.68,1.68,0,0,0-.76.31,1.8,1.8,0,0,0-.33.28,1.26,1.26,0,0,0-.29.33,4.13,4.13,0,0,0-.45.74c-0.12.25-.19,0.52-0.29,0.75l-0.16.69a5.31,5.31,0,0,0-.08.55l-0.07.49s-0.05-.17-0.12-0.48a3.14,3.14,0,0,1-.1-0.57c0-.22,0-0.48,0-0.77a5.87,5.87,0,0,1,.15-0.91,3.56,3.56,0,0,1,.42-1,1.94,1.94,0,0,1,.34-0.47,1.92,1.92,0,0,1,.44-0.42,2.64,2.64,0,0,1,1.17-.52,2.46,2.46,0,0,1,1.29.15,3.13,3.13,0,0,1,1,.68,4,4,0,0,1,.6.88,3.82,3.82,0,0,1,.34.86,4.8,4.8,0,0,1,.23,1.31C264.57,119.85,264.58,120,264.58,120Z" transform="translate(-23.4 -4.62)"/><path class="cls-8" d="M265.22,112.74a10.43,10.43,0,0,0-1.62-.79c-0.23-.1-0.5-0.16-0.76-0.25a6.54,6.54,0,0,0-.83-0.15,7.07,7.07,0,0,0-.87-0.05,8.11,8.11,0,0,0-.89.1,6,6,0,0,0-.9.21,6.87,6.87,0,0,0-.88.3c-0.28.13-.58,0.2-0.84,0.34s-0.53.24-.78,0.35c-0.49.21-.89,0.44-1.2,0.56l-0.5.19s0.08-.18.25-0.47a6.5,6.5,0,0,1,.8-1.14c0.2-.21.41-0.44,0.66-0.67a6.37,6.37,0,0,1,.86-0.64,4.81,4.81,0,0,1,1-.54,5.25,5.25,0,0,1,1.19-.34,6,6,0,0,1,1.26-.06,5,5,0,0,1,1.21.26,4.3,4.3,0,0,1,1.78,1.12,4.05,4.05,0,0,1,.83,1.17A2.4,2.4,0,0,1,265.22,112.74Z" transform="translate(-23.4 -4.62)"/><path class="cls-8" d="M272,118.84s0-.18-0.07-0.49a4.81,4.81,0,0,1,0-1.33,3.82,3.82,0,0,1,.18-0.91,4,4,0,0,1,.42-1,3.12,3.12,0,0,1,.85-0.86,2.46,2.46,0,0,1,1.24-.39,2.64,2.64,0,0,1,1.25.29,1.91,1.91,0,0,1,.51.33,1.94,1.94,0,0,1,.42.4,3.56,3.56,0,0,1,.6.88,5.85,5.85,0,0,1,.32.87c0.06,0.28.09,0.53,0.12,0.76a3.14,3.14,0,0,1,0,.58c0,0.32,0,.5,0,0.5l-0.17-.47a5.34,5.34,0,0,0-.18-0.52l-0.29-.64c-0.14-.21-0.26-0.46-0.43-0.69a4.12,4.12,0,0,0-.58-0.64,1.26,1.26,0,0,0-.35-0.27,1.79,1.79,0,0,0-.38-0.21,1.68,1.68,0,0,0-.8-0.16,1.47,1.47,0,0,0-.76.22,2.79,2.79,0,0,0-.64.54,5.12,5.12,0,0,0-.45.74,5.4,5.4,0,0,0-.31.75l-0.22.67-0.12.56C272.09,118.66,272,118.84,272,118.84Z" transform="translate(-23.4 -4.62)"/><path class="cls-8" d="M270,111.55a1.85,1.85,0,0,1,0-.41,3,3,0,0,1,.3-1.05,3,3,0,0,1,.41-0.65,3,3,0,0,1,.68-0.59,3.12,3.12,0,0,1,.91-0.4,3.52,3.52,0,0,1,1-.06l0.5,0.06,0.45,0.14a3.14,3.14,0,0,1,.82.38,5.43,5.43,0,0,1,1.19.95,3.36,3.36,0,0,1,.38.46c0.11,0.14.19,0.27,0.26,0.38s0.2,0.35.2,0.35L276.7,111c-0.24-.08-0.57-0.21-0.94-0.36-0.19-.06-0.4-0.13-0.6-0.22a5.39,5.39,0,0,0-.65-0.22,3.78,3.78,0,0,0-.67-0.19l-0.33-.08-0.32,0a2.34,2.34,0,0,0-1.2.14,3.24,3.24,0,0,0-1,.59,7.38,7.38,0,0,0-.71.66C270.06,111.44,270,111.55,270,111.55Z" transform="translate(-23.4 -4.62)"/><path class="cls-2" d="M302.28,390a7.41,7.41,0,0,1,1.49,4.43s0,0.05,0,.08C310.94,389.91,316.32,385.46,302.28,390Z" transform="translate(-23.4 -4.62)"/><path class="cls-3" d="M305,389.18c-2,.58-4.53,1.42-7.75,2.57L292,367q-7.94,2.17-15.77,4.74c6.57,14.52,13.24,28.11,15.87,29.82,0,0,8.7-4.9,14.32-8.79A7.86,7.86,0,0,1,305,389.18Z" transform="translate(-23.4 -4.62)"/><path class="cls-2" d="M310,388.12c-1,2.58-16.9,11.65-18.74,12.69a8.31,8.31,0,0,0,1,1.07S316.34,387.92,310,388.12Z" transform="translate(-23.4 -4.62)"/><path class="cls-2" d="M297.24,391.42a7.13,7.13,0,0,0-.52,2.65c0,0.37.73,0.25,0.73-.06a6.75,6.75,0,0,1,.48-2.52c0.15-.38-0.58-0.36-0.69-0.07h0Z" transform="translate(-23.4 -4.62)"/><path class="cls-2" d="M299.05,390.92v2.92c0,0.32.73,0.18,0.73-.08v-2.92c0-.32-0.73-0.18-0.73.08h0Z" transform="translate(-23.4 -4.62)"/><path class="cls-2" d="M301.14,390.26a19.71,19.71,0,0,0,.25,2.58,0.61,0.61,0,0,0,.72-0.19,19.74,19.74,0,0,1-.25-2.58,0.63,0.63,0,0,0-.72.19h0Z" transform="translate(-23.4 -4.62)"/><path class="cls-2" d="M216.53,372a7.41,7.41,0,0,1-3.69,2.87l-0.08,0C219.5,380.09,225.47,383.71,216.53,372Z" transform="translate(-23.4 -4.62)"/><path class="cls-3" d="M218.24,374.28c-1.21-1.69-2.83-3.81-5-6.47l21.61-13.15q-4.66-6.78-9.67-13.33c-11.55,11-22.19,21.75-22.93,24.8,0,0,7.49,6.6,13,10.63A7.86,7.86,0,0,1,218.24,374.28Z" transform="translate(-23.4 -4.62)"/><path class="cls-2" d="M220.87,378.6c-2.77-.1-16.56-12.13-18.14-13.52a8.31,8.31,0,0,0-.69,1.27S223.15,384.54,220.87,378.6Z" transform="translate(-23.4 -4.62)"/><path class="cls-2" d="M213.77,367.74a7.46,7.46,0,0,0-2.8.39c-0.43.15-.31,0.63,0.13,0.48a6.42,6.42,0,0,1,2.41-.36c0.34,0,.75-0.49.26-0.51h0Z" transform="translate(-23.4 -4.62)"/><path class="cls-2" d="M214.74,369.33l-2.75,1c-0.42.15-.33,0.55,0.11,0.4l2.75-1c0.42-.15.33-0.55-0.11-0.4h0Z" transform="translate(-23.4 -4.62)"/><path class="cls-2" d="M216,371.18a20.3,20.3,0,0,0-2.44,1.12c-0.43.22,0.25,0.19,0.42,0.1a18.93,18.93,0,0,1,2.27-1.05c0.49-.17,0-0.27-0.25-0.17h0Z" transform="translate(-23.4 -4.62)"/><path class="cls-15" d="M287.08,224.43s11.66,79.3.95,92S220.22,367,220.22,367L207.82,354l47.11-51.86,16.4-54.49Z" transform="translate(-23.4 -4.62)"/><path class="cls-13" d="M250.26,211s-21.38,19.21-14.56,38.36c7.38,20.7,16.71,62,45.66,141l16.86-7.83L278.61,263.79l12-8.7-3.58-30.66Z" transform="translate(-23.4 -4.62)"/><path class="cls-6" d="M289.31,200.66c7.4,16.94,17.66,38.57,25.91,49,13.25,16.78,1.73-2.5,1.73-2.5s17.55,18.88,3.18-.84c0,0,13.31,16.77,2.72.1,2.32,3.59,8.26,12.42.15-4.09-5.38-10.95-11.62-27-16.47-40.25C300.8,201.49,295.06,201,289.31,200.66Z" transform="translate(-23.4 -4.62)"/><path class="cls-6" d="M320.13,236.3s12.22,5.9.17,3.14S320.13,236.3,320.13,236.3Z" transform="translate(-23.4 -4.62)"/><path class="cls-12" d="M320.76,234.34l-13.25,6.36s-39.57-72.35-35.73-80.43c2.6-5.47,14.49-16.69,23.43,10.58C299.85,185,308.79,205,320.76,234.34Z" transform="translate(-23.4 -4.62)"/><path class="cls-3" d="M305.74,198.1c-4.55-11-8.12-19.92-10.52-27.25-8.94-27.27-20.83-16.05-23.43-10.58-2.31,4.86,11.08,33,22.12,54.6C297.87,209.29,301.85,203.73,305.74,198.1Z" transform="translate(-23.4 -4.62)"/><path class="cls-12" d="M287.08,155.42c-2.38-3.19-15.86-5.77-15.86-5.77l-0.13.06-0.35-3.63-23.67.67L248,151c-6.83,1.5-16.23,4-17.18,6.62-9.11,25.1,4.11,95.78,4.11,95.78,31.47,6,57.41-8.1,57.41-8.1S292.63,162.84,287.08,155.42Z" transform="translate(-23.4 -4.62)"/><path class="cls-3" d="M286,225.62a205.47,205.47,0,0,1-38.66-31.28,219.09,219.09,0,0,1-19.21-22.45c-2.65,30.76,6.85,81.52,6.85,81.52,31.47,6,57.41-8.1,57.41-8.1s0-6.43-.07-15.86C290.16,228.22,288,226.95,286,225.62Z" transform="translate(-23.4 -4.62)"/><path class="cls-6" d="M211.57,194.69c-8.84,16.23-19.65,37.6-22.84,50.51-5.13,20.75,3-.16,3-0.16s-4.16,25.44,2.61,2c0,0-5.09,20.8,1.59,2.21-1.41,4-4.75,14.14,3.32-2.39,5.35-11,14.25-25.76,21.71-37.68C218,204.28,214.85,199.43,211.57,194.69Z" transform="translate(-23.4 -4.62)"/><path class="cls-6" d="M202.31,240.89s2.83,13.28-2.38,2.06S202.31,240.89,202.31,240.89Z" transform="translate(-23.4 -4.62)"/><path class="cls-12" d="M204.24,240.19l-13.15-6.57S224,158,232.75,156.08c5.91-1.3,22.07,1.22,6,25C230.41,193.42,220.08,212.75,204.24,240.19Z" transform="translate(-23.4 -4.62)"/><path class="cls-13" d="M234.61,42.79c0,12,21.74,41.2,21.74,41.2S278.1,54.8,278.1,42.79A21.74,21.74,0,0,0,234.61,42.79Z" transform="translate(-23.4 -4.62)"/><circle class="cls-2" cx="232.96" cy="36.92" r="15.49"/></svg>