<svg xmlns="http://www.w3.org/2000/svg" viewBox="0 0 1323.54 1323.55"><defs><style>.cls-1{isolation:isolate;}.cls-2{fill:#fff;}.cls-3{fill:#ffa258;}.cls-4{fill:#45a8bd;}.cls-5,.cls-6{fill:none;}.cls-5,.cls-8{stroke:#350504;}.cls-5,.cls-6,.cls-8{stroke-miterlimit:10;}.cls-5{stroke-width:0.64px;}.cls-6{stroke:#fff;stroke-width:1.14px;mix-blend-mode:soft-light;}.cls-7{fill:#ffc8ad;}.cls-10,.cls-8{fill:#ffab8c;}.cls-8{stroke-width:0.64px;}.cls-9{fill:#350504;}.cls-11{fill:#ae4b27;}.cls-12{fill:#62e799;}.cls-13{fill:#c1f4f5;}</style></defs><title>negatif</title><g class="cls-1"><g id="Layer_1" data-name="Layer 1"><circle class="cls-2" cx="661.77" cy="661.77" r="661.77"/><path class="cls-3" d="M768.48,591.07S600.7,540.27,543.74,658.8s-20,178.56-55.42,203.19S366.72,928.18,352.86,975.9s27.71,78.51,10.78,121.61-155.47,72.35-155.47,152.4,278.62,155.47,552.63,123.15,360.21-55.42,358.67-106.22-49.26-135.46-44.64-175.49,41.56-133.92,40-234S1053.26,752.7,1044,686.51,891.63,495.63,768.48,591.07Z" transform="translate(-109.39 -404.48)"/><path class="cls-4" d="M239.74,1441.69S369.19,1112,735.55,1126.61l95.25-2.44s300.42,44,410.33,317.52H239.74Z" transform="translate(-109.39 -404.48)"/><line class="cls-5" x1="399.62" y1="912.85" x2="382.99" y2="1034.03"/><line class="cls-5" x1="860.58" y1="910.47" x2="877.21" y2="1034.03"/><path class="cls-6" d="M857.77,1142.37s252.77,71.37,343.47,295.89" transform="translate(-109.39 -404.48)"/><path class="cls-6" d="M262.16,1440.41s180.41-293.82,441.58-295.54" transform="translate(-109.39 -404.48)"/><path class="cls-7" d="M983.33,832.34s44.15-52.27,73.16-24.23-18.31,120-76.31,100Z" transform="translate(-109.39 -404.48)"/><path class="cls-5" d="M994.47,857.74s27.19-41.59,51.07-26.05" transform="translate(-109.39 -404.48)"/><path class="cls-5" d="M1024,861s11.25-20-8.43-26.48" transform="translate(-109.39 -404.48)"/><path class="cls-7" d="M648.94,834.61s-47.42-52.27-74.68-24.23,25.81,120,82.56,100Z" transform="translate(-109.39 -404.48)"/><path class="cls-5" d="M639.39,860S609.6,818.42,586.69,834" transform="translate(-109.39 -404.48)"/><path class="cls-5" d="M610,863.26s-12.5-20,6.78-26.48" transform="translate(-109.39 -404.48)"/><path class="cls-5" d="M1020.08,882.83s35.56,9.79,25.77,46.9-50.51,31.44-58.75,19.07" transform="translate(-109.39 -404.48)"/><path class="cls-5" d="M612.77,882.83s-35.56,9.79-25.77,46.9,50.51,31.44,58.75,19.07" transform="translate(-109.39 -404.48)"/><path class="cls-7" d="M630.47,1146.72s7-60-.5-135.92c-16.4-167-18.5-389.83,174.91-391,293.82-1.77,227.43,446.74,80.78,469.76l3.14,70.64S753.29,1214.28,630.47,1146.72Z" transform="translate(-109.39 -404.48)"/><path class="cls-8" d="M876.48,802.23c-2,19,5.72,49.45,9.37,62.44a5.48,5.48,0,0,1-4.71,6.92l-21,2.31" transform="translate(-109.39 -404.48)"/><path class="cls-9" d="M804.93,854.55a9.64,9.64,0,0,0,9.82,9,9,9,0,0,0,8.73-9.54,9.65,9.65,0,0,0-9.82-9A9,9,0,0,0,804.93,854.55Z" transform="translate(-109.39 -404.48)"/><path class="cls-9" d="M766.75,827.65c5.19,5.83,18.58.1,29.89-2s34.25,0.55,35.06-14-17.65-9.07-35.16-4.79S760.23,820.33,766.75,827.65Z" transform="translate(-109.39 -404.48)"/><path class="cls-9" d="M911.46,851.37a9.64,9.64,0,0,0,9.82,9,9,9,0,0,0,8.73-9.54,9.65,9.65,0,0,0-9.82-9A9,9,0,0,0,911.46,851.37Z" transform="translate(-109.39 -404.48)"/><path class="cls-9" d="M962.17,825.49c-5.17,5.47-17.93-.43-28.78-2.8s-33.06-.44-33.43-14.52,19.55-7.71,36.32-3.09S968.67,818.6,962.17,825.49Z" transform="translate(-109.39 -404.48)"/><path class="cls-5" d="M827.48,904.55S843,928,873,918.89" transform="translate(-109.39 -404.48)"/><path class="cls-10" d="M717.78,859.28c-38.56,0-69.09,23.44-68.19,52.37S682.49,964,721.05,964s69.09-23.44,68.19-52.37S756.34,859.28,717.78,859.28Z" transform="translate(-109.39 -404.48)"/><path class="cls-10" d="M998.22,875.38a78.44,78.44,0,0,1,10.83.77,450.07,450.07,0,0,1-15.49,94.32c-31.63-2.83-56.73-22.93-57.49-47.36C935.25,896.75,963.08,875.38,998.22,875.38Z" transform="translate(-109.39 -404.48)"/><path class="cls-10" d="M760.16,1066.32s38,27.11,74,27.4c26,0.21,45-2.77,51.55-4.1l2.58,49.42C810.11,1131,760.16,1066.32,760.16,1066.32Z" transform="translate(-109.39 -404.48)"/><path class="cls-11" d="M887.34,1089.07c0.9-.14,1-0.09.46,0.06l-0.46.1v-0.15Z" transform="translate(-109.39 -404.48)"/><path class="cls-5" d="M887.31,1091.25s-78,12.54-136.08-30.12" transform="translate(-109.39 -404.48)"/><path class="cls-5" d="M1004,803.26s17.14,101-22.36,189.09" transform="translate(-109.39 -404.48)"/><path class="cls-5" d="M630.47,1146.72s93.26,69.07,258.34,13.5" transform="translate(-109.39 -404.48)"/><path class="cls-3" d="M804.89,619.82c-120.18.72-164.85,87.05-177.53,192.37l0.54,3s9.9,35,64.76,22.86,60.19-110.48,60.19-110.48,3.81,51.81,50.29,51.81,53.34-78.48,53.34-78.48,7.62,76.19,48.76,78.48,50.29-49.53,50.29-49.53,14.6,101.93,54.8,131C1013.54,740.86,958.39,618.89,804.89,619.82Z" transform="translate(-109.39 -404.48)"/><path class="cls-5" d="M624.27,801.51s3.48,48.76,62.69,36.32,63.69-87.57,65.68-142.8" transform="translate(-109.39 -404.48)"/><path class="cls-5" d="M856.67,696.28s-6.38,84-53.52,83.12c-33.91-.63-46.92-27.17-51.55-42" transform="translate(-109.39 -404.48)"/><path class="cls-5" d="M856.24,675.47s-0.61,104.2,49,103.93S960.39,703,960.39,703" transform="translate(-109.39 -404.48)"/><path class="cls-5" d="M955.54,729.88s19,113,54.8,131" transform="translate(-109.39 -404.48)"/><path class="cls-12" d="M222.67,1436.63c119,175.82,320.22,291.4,548.49,291.4s429.53-115.58,548.49-291.4h-1097Z" transform="translate(-109.39 -404.48)"/><rect class="cls-2" x="749.83" y="1437.4" width="42.67" height="253.59" transform="translate(2225.96 388.55) rotate(90)"/><circle class="cls-13" cx="1141.61" cy="636.49" r="28.02"/><circle class="cls-13" cx="358.27" cy="190.72" r="28.02"/><circle class="cls-13" cx="1162.02" cy="883.71" r="18.28"/><circle class="cls-13" cx="1108.91" cy="320.97" r="18.28"/><circle class="cls-13" cx="184.38" cy="575.05" r="18.28"/><circle class="cls-13" cx="283.27" cy="376" r="28.02"/></g></g></svg>