<svg xmlns="http://www.w3.org/2000/svg" xmlns:xlink="http://www.w3.org/1999/xlink" viewBox="0 0 1860.88 1136.15"><defs><style>.cls-1,.cls-10,.cls-12,.cls-15,.cls-17,.cls-19,.cls-5{fill:none;}.cls-2{isolation:isolate;}.cls-23,.cls-3{fill:#fff;}.cls-4{fill:#7d304b;}.cls-5{stroke:#7d304b;stroke-width:0.54px;}.cls-10,.cls-12,.cls-15,.cls-16,.cls-17,.cls-19,.cls-5{stroke-miterlimit:10;}.cls-6{fill:#fda58d;}.cls-7{fill:#fd899b;}.cls-8{opacity:0.45;}.cls-11,.cls-8{mix-blend-mode:soft-light;}.cls-9{clip-path:url(#clip-path);}.cls-10{stroke:#fc9eab;}.cls-10,.cls-17,.cls-19{stroke-width:1.09px;}.cls-11,.cls-13{fill:#350504;}.cls-11{opacity:0.5;}.cls-12,.cls-16,.cls-17{stroke:#350504;}.cls-12{stroke-width:0.78px;}.cls-14,.cls-16{fill:#ff8e70;}.cls-15{stroke:#ff8e70;stroke-width:0.58px;}.cls-16{stroke-width:0.77px;}.cls-18{fill:#ffd06a;}.cls-19{stroke:#ffad6f;}.cls-20{fill:#ae4b27;}.cls-21{fill:#c1f4f5;}.cls-22{fill:#f05565;}.cls-23{font-size:122px;font-family:Myriad Pro;}</style><clipPath id="clip-path" transform="translate(544.41 -436.7)"><path class="cls-1" d="M439.34,1248.51S599,985.69,733.49,971.54l109.17-14.15s242.6-10.11,378,207.22c0,0-24.26,115.23-108.16,158.7l29.31,81.88H549.52S470.67,1326.34,439.34,1248.51Z"/></clipPath></defs><title>positif</title><g class="cls-2"><g id="Layer_1" data-name="Layer 1"><path class="cls-3" d="M842.11,0h926.36a92.41,92.41,0,0,1,92.41,92.41V1134.17a0,0,0,0,1,0,0H749.7a0,0,0,0,1,0,0V92.41A92.41,92.41,0,0,1,842.11,0Z"/><path class="cls-4" d="M802.34,553.22S702.92,496.48,618.51,579s-12.2,271-20.83,326.64-49.2,124.22-49.2,124.22,71.95,65.23,263.8,45.09,201.45-106.48,201.45-106.48-32.62-216.8-57.56-317.52S867.65,528.31,802.34,553.22Z" transform="translate(544.41 -436.7)"/><path class="cls-5" d="M802.34,553.22S724.87,471.39,623,578.34" transform="translate(544.41 -436.7)"/><path class="cls-5" d="M587.22,794.34s3.48,143.25-12.47,189.37" transform="translate(544.41 -436.7)"/><path class="cls-5" d="M957.16,678.46S989.82,734,998.53,789.51c4.7,30-9.8,110-6.53,132.83" transform="translate(544.41 -436.7)"/><path class="cls-6" d="M1199.17,1176s63.06,120.12,70.57,223.72l-144.14,4.5-30-150.15Z" transform="translate(544.41 -436.7)"/><polygon class="cls-6" points="1001.91 827.93 941.32 962.63 1093.93 968.48 1001.91 827.93"/><path class="cls-7" d="M439.34,1248.51S599,985.69,733.49,971.54l109.17-14.15s242.6-10.11,378,207.22c0,0-24.26,115.23-108.16,158.7l29.31,81.88H549.52S470.67,1326.34,439.34,1248.51Z" transform="translate(544.41 -436.7)"/><g class="cls-8"><g class="cls-9"><circle class="cls-3" cx="982.02" cy="553.47" r="12.5"/><circle class="cls-3" cx="1078.29" cy="553.47" r="12.5"/><circle class="cls-3" cx="1174.57" cy="553.47" r="12.5"/><circle class="cls-3" cx="1270.84" cy="553.47" r="12.5"/><circle class="cls-3" cx="1367.12" cy="553.47" r="12.5"/><circle class="cls-3" cx="1463.39" cy="553.47" r="12.5"/><circle class="cls-3" cx="1559.67" cy="553.47" r="12.5"/><circle class="cls-3" cx="1655.94" cy="553.47" r="12.5"/><circle class="cls-3" cx="1752.21" cy="553.47" r="12.5"/><circle class="cls-3" cx="1029.27" cy="597.46" r="12.5"/><circle class="cls-3" cx="1125.54" cy="597.46" r="12.5"/><circle class="cls-3" cx="1221.82" cy="597.46" r="12.5"/><circle class="cls-3" cx="1318.09" cy="597.46" r="12.5"/><circle class="cls-3" cx="1414.37" cy="597.46" r="12.5"/><circle class="cls-3" cx="1510.64" cy="597.46" r="12.5"/><circle class="cls-3" cx="1606.91" cy="597.46" r="12.5"/><circle class="cls-3" cx="1703.19" cy="597.46" r="12.5"/><circle class="cls-3" cx="1799.46" cy="597.46" r="12.5"/><circle class="cls-3" cx="982.02" cy="643.08" r="12.5"/><circle class="cls-3" cx="1078.29" cy="643.08" r="12.5"/><circle class="cls-3" cx="1174.57" cy="643.08" r="12.5"/><circle class="cls-3" cx="1270.84" cy="643.08" r="12.5"/><circle class="cls-3" cx="1367.12" cy="643.08" r="12.5"/><circle class="cls-3" cx="1463.39" cy="643.08" r="12.5"/><circle class="cls-3" cx="1559.67" cy="643.08" r="12.5"/><circle class="cls-3" cx="1655.94" cy="643.08" r="12.5"/><circle class="cls-3" cx="1752.21" cy="643.08" r="12.5"/><circle class="cls-3" cx="1029.27" cy="687.07" r="12.5"/><circle class="cls-3" cx="1125.54" cy="687.07" r="12.5"/><circle class="cls-3" cx="1221.82" cy="687.07" r="12.5"/><circle class="cls-3" cx="1318.09" cy="687.07" r="12.5"/><circle class="cls-3" cx="1414.37" cy="687.07" r="12.5"/><circle class="cls-3" cx="1510.64" cy="687.07" r="12.5"/><circle class="cls-3" cx="1606.91" cy="687.07" r="12.5"/><circle class="cls-3" cx="1703.19" cy="687.07" r="12.5"/><circle class="cls-3" cx="1799.46" cy="687.07" r="12.5"/><circle class="cls-3" cx="982.02" cy="732.69" r="12.5"/><circle class="cls-3" cx="1078.29" cy="732.69" r="12.5"/><circle class="cls-3" cx="1174.57" cy="732.69" r="12.5"/><circle class="cls-3" cx="1270.84" cy="732.69" r="12.5"/><circle class="cls-3" cx="1367.12" cy="732.69" r="12.5"/><circle class="cls-3" cx="1463.39" cy="732.69" r="12.5"/><circle class="cls-3" cx="1559.67" cy="732.69" r="12.5"/><circle class="cls-3" cx="1655.94" cy="732.69" r="12.5"/><circle class="cls-3" cx="1752.21" cy="732.69" r="12.5"/><circle class="cls-3" cx="1029.27" cy="776.68" r="12.5"/><circle class="cls-3" cx="1125.54" cy="776.68" r="12.5"/><circle class="cls-3" cx="1221.82" cy="776.68" r="12.5"/><circle class="cls-3" cx="1318.09" cy="776.68" r="12.5"/><circle class="cls-3" cx="1414.37" cy="776.68" r="12.5"/><circle class="cls-3" cx="1510.64" cy="776.68" r="12.5"/><circle class="cls-3" cx="1606.91" cy="776.68" r="12.5"/><circle class="cls-3" cx="1703.19" cy="776.68" r="12.5"/><circle class="cls-3" cx="1799.46" cy="776.68" r="12.5"/><circle class="cls-3" cx="982.02" cy="822.29" r="12.5"/><circle class="cls-3" cx="1078.29" cy="822.29" r="12.5"/><circle class="cls-3" cx="1174.57" cy="822.29" r="12.5"/><circle class="cls-3" cx="1270.84" cy="822.29" r="12.5"/><circle class="cls-3" cx="1367.12" cy="822.29" r="12.5"/><circle class="cls-3" cx="1463.39" cy="822.29" r="12.5"/><circle class="cls-3" cx="1559.67" cy="822.29" r="12.5"/><circle class="cls-3" cx="1655.94" cy="822.29" r="12.5"/><circle class="cls-3" cx="1752.21" cy="822.29" r="12.5"/><circle class="cls-3" cx="1029.27" cy="866.28" r="12.5"/><circle class="cls-3" cx="1125.54" cy="866.28" r="12.5"/><circle class="cls-3" cx="1221.82" cy="866.28" r="12.5"/><circle class="cls-3" cx="1318.09" cy="866.28" r="12.5"/><circle class="cls-3" cx="1414.37" cy="866.28" r="12.5"/><circle class="cls-3" cx="1510.64" cy="866.28" r="12.5"/><circle class="cls-3" cx="1606.91" cy="866.28" r="12.5"/><circle class="cls-3" cx="1703.19" cy="866.28" r="12.5"/><circle class="cls-3" cx="1799.46" cy="866.28" r="12.5"/><circle class="cls-3" cx="982.02" cy="911.9" r="12.5"/><circle class="cls-3" cx="1078.29" cy="911.9" r="12.5"/><circle class="cls-3" cx="1174.57" cy="911.9" r="12.5"/><circle class="cls-3" cx="1270.84" cy="911.9" r="12.5"/><circle class="cls-3" cx="1367.12" cy="911.9" r="12.5"/><circle class="cls-3" cx="1463.39" cy="911.9" r="12.5"/><circle class="cls-3" cx="1559.67" cy="911.9" r="12.5"/><circle class="cls-3" cx="1655.94" cy="911.9" r="12.5"/><circle class="cls-3" cx="1752.21" cy="911.9" r="12.5"/><circle class="cls-3" cx="1029.27" cy="955.89" r="12.5"/><circle class="cls-3" cx="1125.54" cy="955.89" r="12.5"/><circle class="cls-3" cx="1221.82" cy="955.89" r="12.5"/><circle class="cls-3" cx="1318.09" cy="955.89" r="12.5"/><circle class="cls-3" cx="1414.37" cy="955.89" r="12.5"/><circle class="cls-3" cx="1510.64" cy="955.89" r="12.5"/><circle class="cls-3" cx="1606.91" cy="955.89" r="12.5"/><circle class="cls-3" cx="1703.19" cy="955.89" r="12.5"/><circle class="cls-3" cx="1799.46" cy="955.89" r="12.5"/></g></g><path class="cls-10" d="M868.2,967.15s221.73,22.55,342,223.6" transform="translate(544.41 -436.7)"/><path class="cls-10" d="M452.78,1278.26s153.09-271.73,317.65-299.79" transform="translate(544.41 -436.7)"/><path class="cls-10" d="M1199,1135.44s-11.26,84-93.18,162.81" transform="translate(544.41 -436.7)"/><path class="cls-10" d="M449.83,1231.93s79.38,151.54,147.6,165.32" transform="translate(544.41 -436.7)"/><path class="cls-11" d="M1220.7,1164.61c-1.83-2.94-3.69-5.81-5.56-8.67-47.78,70.64-148,55.94-148,55.94l11.46,27.19c-0.29,20.75-17.59,70.57-170.15,91-182.68,24.44-291.86-76.38-305-89.32,3.64-17.22,6.67-28.16,6.67-28.16-85,56.35-139.27,38-162.9,23.45-5.09,7.91-7.87,12.48-7.87,12.48,31.34,77.83,110.18,156.68,110.18,156.68h592.34l-29.31-81.88c0.32-.17.63-0.36,0.95-0.53l-4.65-12,5,11.82C1196.67,1278.62,1220.7,1164.61,1220.7,1164.61Z" transform="translate(544.41 -436.7)"/><path class="cls-12" d="M1051.58,1178.23s64.45,127.14,90.27,227" transform="translate(544.41 -436.7)"/><path class="cls-12" d="M1220.7,1164.61s-32.58,123.19-108.16,158.7" transform="translate(544.41 -436.7)"/><path class="cls-12" d="M617.33,1198s-42.14,71.37-18.06,208.1" transform="translate(544.41 -436.7)"/><path class="cls-12" d="M439.34,1248.51s50.11,103.3,110.18,156.68" transform="translate(544.41 -436.7)"/><path class="cls-6" d="M632.25,747.82s-32.7-38.71-54.19-17.94,13.56,88.9,56.52,74.08Z" transform="translate(544.41 -436.7)"/><path class="cls-12" d="M624,766.64s-20.14-30.8-37.82-19.3" transform="translate(544.41 -436.7)"/><path class="cls-12" d="M602.11,769s-8.33-14.83,6.25-19.61" transform="translate(544.41 -436.7)"/><path class="cls-6" d="M879.92,749.51S915,710.8,935.22,731.56s-19.12,88.9-61.15,74.08Z" transform="translate(544.41 -436.7)"/><path class="cls-12" d="M887,768.32s22.06-30.8,39-19.3" transform="translate(544.41 -436.7)"/><path class="cls-12" d="M908.74,770.72s9.26-14.83-5-19.61" transform="translate(544.41 -436.7)"/><circle class="cls-13" cx="1453.38" cy="351.85" r="7.17"/><circle class="cls-13" cx="1151.89" cy="355.57" r="6.07"/><path class="cls-6" d="M893.59,980.66S888.44,936.22,894,880c12.15-123.66,14.73-308.16-128.52-309C547.82,569.67,596,921.29,704.59,938.34l-2.33,52.32S802.63,1030.7,893.59,980.66Z" transform="translate(544.41 -436.7)"/><path class="cls-14" d="M817.49,769.92c28.56,0,51.17,17.36,50.5,38.79s-24.36,38.78-52.92,38.78-51.17-17.36-50.5-38.78S788.93,769.92,817.49,769.92Z" transform="translate(544.41 -436.7)"/><path class="cls-14" d="M621.22,766.6a58.17,58.17,0,0,0-8,.57A333.34,333.34,0,0,0,624.68,837c23.43-2.1,42-17,42.58-35.07C667.87,782.42,647.26,766.6,621.22,766.6Z" transform="translate(544.41 -436.7)"/><path class="cls-12" d="M738.42,781.18s-10.22,18.15-32.86,13" transform="translate(544.41 -436.7)"/><path class="cls-12" d="M743.44,786.58s-3.8-7.59-10.88-8.1" transform="translate(544.41 -436.7)"/><path class="cls-15" d="M739.57,794.32s-6.8,9.68-17.55,9.63" transform="translate(544.41 -436.7)"/><path class="cls-16" d="M711.39,718.93l-10.82,45c-0.44,1.55,21.61,4.4,21.61,4.4" transform="translate(544.41 -436.7)"/><path class="cls-13" d="M676.39,742.94a7.14,7.14,0,0,1-7.28,6.69,6.63,6.63,0,0,1-6.47-7.07,7.15,7.15,0,0,1,7.28-6.69A6.63,6.63,0,0,1,676.39,742.94Z" transform="translate(544.41 -436.7)"/><path class="cls-17" d="M644.59,728.06c7.72-6.33,20.18-16.32,40.83-8.71" transform="translate(544.41 -436.7)"/><path class="cls-13" d="M768.4,745.29a7.14,7.14,0,0,1-7.28,6.69,6.63,6.63,0,0,1-6.47-7.07,7.15,7.15,0,0,1,7.28-6.69A6.63,6.63,0,0,1,768.4,745.29Z" transform="translate(544.41 -436.7)"/><path class="cls-17" d="M746.65,720.92s25-6.82,41.68,11.75" transform="translate(544.41 -436.7)"/><path class="cls-12" d="M893.59,980.66s-69.08,51.15-191.33,10" transform="translate(544.41 -436.7)"/><path class="cls-18" d="M713.88,941.23c146.64,2.44,170.68-146.65,170.68-146.65-171.85-63.61-266-22.91-271.16-20,5.64,80.59,42.27,156.13,91.18,163.8l-0.12,2.73Z" transform="translate(544.41 -436.7)"/><path class="cls-19" d="M642.86,807.16s69.63-20,158.1,0" transform="translate(544.41 -436.7)"/><path class="cls-19" d="M658.84,834s48.51-12,106.73-8" transform="translate(544.41 -436.7)"/><path class="cls-19" d="M676,868.8s67.35-19.41,121-19.41" transform="translate(544.41 -436.7)"/><polygon class="cls-18" points="1440.49 293.13 1398.89 360.05 1392.27 360.05 1440.14 278.01 1440.49 293.13"/><polygon class="cls-18" points="1428.97 357.88 1443.11 368.48 1442.79 373.62 1423.19 361.09 1428.97 357.88"/><path class="cls-14" d="M797.54,921.12s-28.18,20.08-54.78,20.29c-19.23.15-33.36-2-38.18-3L702.67,975C760.55,969,797.54,921.12,797.54,921.12Z" transform="translate(544.41 -436.7)"/><path class="cls-20" d="M703.35,938c-0.66-.1-0.72-0.07-0.34,0l0.34,0.07V938Z" transform="translate(544.41 -436.7)"/><path class="cls-12" d="M703.37,939.58s57.75,9.29,100.79-22.31" transform="translate(544.41 -436.7)"/><path class="cls-12" d="M615.64,715s-11.36,86.16,17.9,151.38" transform="translate(544.41 -436.7)"/><path class="cls-4" d="M897.44,756.83a27.53,27.53,0,0,1-19.58-11.49c-13.95-19-10.57-55.33-8.62-69.37-6.28,13.7-15.35,19.17-30.94,19.17-8.22,0-18.78-1.56-33.25-4.91-9.81-2.27-17.19-7.3-21.94-14.93-7.34-11.81-6.95-27.51-5.41-38.33C772.63,649.58,762,668,741.38,677.07c-19.54,8.54-62.57,10.33-95.24,10.33h-1.93c-4.94,43.08-28.91,51-29.16,51l-0.6.19-1.78-4.9c6.8-102.43,63.46-163.42,151.53-163.42h1.22c71.85,0.43,116,46.33,130.11,138.78,2.17,14.23,2.82,30.65,3.59,47l0,0.72-0.72,0-0.7,0Z" transform="translate(544.41 -436.7)"/><path class="cls-12" d="M645.1,670.43s0.28,55.22-30.63,68.21" transform="translate(544.41 -436.7)"/><path class="cls-12" d="M646.14,687.41s19.48,0.3,44.79-1.92c19.4-1.7,44.25-3.36,62.36-15.8,13.75-9.44,22.64-26.14,28-47.71" transform="translate(544.41 -436.7)"/><path class="cls-12" d="M777.7,637s-7.8,47.14,34.9,54.77,49.72-1.52,56.64-15.76" transform="translate(544.41 -436.7)"/><path class="cls-17" d="M865.85,681s-7,67.89,33.32,75.89" transform="translate(544.41 -436.7)"/><circle class="cls-21" cx="410.71" cy="1010.55" r="44.53" transform="translate(56.85 -45.02) rotate(-33.32)"/><ellipse class="cls-21" cx="457.05" cy="959.46" rx="6.36" ry="16.25" transform="matrix(0.63, -0.78, 0.78, 0.63, -33.16, 279.87)"/><polygon class="cls-21" points="971.26 550.56 999.35 521.07 1003.86 524.68 981.23 558.54 971.26 550.56"/><ellipse class="cls-21" cx="495.96" cy="1044.98" rx="24.09" ry="9.42" transform="translate(-112.42 703.17) rotate(-69.32)"/><polygon class="cls-21" points="987.35 578.44 1041.79 604.53 1038.77 612.53 980.67 596.14 987.35 578.44"/><ellipse class="cls-21" cx="409.87" cy="1084.43" rx="6.36" ry="16.25" transform="translate(-148.14 1006.38) rotate(-87.32)"/><polygon class="cls-21" points="962.38 607.48 956.99 647.86 951.22 647.58 949.63 606.88 962.38 607.48"/><ellipse class="cls-21" cx="316.26" cy="1038.06" rx="10.5" ry="26.82" transform="translate(281.44 -316.29) rotate(-15.32)"/><polygon class="cls-21" points="927.98 593.54 861.86 605.67 859.34 596.48 922.41 573.22 927.98 593.54"/><ellipse class="cls-21" cx="365.35" cy="941.55" rx="22.98" ry="8.99" transform="translate(87.3 -81.28) rotate(-33.32)"/><polygon class="cls-21" points="933.96 557.62 906.57 506.95 913.4 502.47 949.05 547.7 933.96 557.62"/><circle class="cls-21" cx="1141.95" cy="892.85" r="42.4" transform="translate(572.62 1383.95) rotate(-77.82)"/><ellipse class="cls-21" cx="1207.57" cy="890.23" rx="6.05" ry="15.47" transform="translate(460.41 -309.74) rotate(-5.82)"/><polygon class="cls-21" points="1712.95 451.57 1751.73 450.97 1752.29 456.43 1714.18 463.66 1712.95 451.57"/><ellipse class="cls-21" cx="1175.46" cy="973.72" rx="22.93" ry="8.97" transform="translate(251.32 120.87) rotate(-23.82)"/><polygon class="cls-21" points="1704.76 481.1 1723.37 535.48 1715.92 538.77 1688.28 488.38 1704.76 481.1"/><ellipse class="cls-21" cx="1091.22" cy="941.58" rx="6.05" ry="15.47" transform="translate(194.57 530.71) rotate(-41.82)"/><polygon class="cls-21" points="1668.37 483.52 1637.35 506.8 1633.69 502.71 1660.26 474.46 1668.37 483.52"/><ellipse class="cls-21" cx="1060.24" cy="847.08" rx="25.54" ry="9.99" transform="translate(339.36 900.97) rotate(-59.82)"/><polygon class="cls-21" points="1654.88 450.86 1602.52 414.05 1607.08 406.21 1664.96 433.52 1654.88 450.86"/><ellipse class="cls-21" cx="1158.54" cy="816.01" rx="8.56" ry="21.88" transform="translate(660.83 1339.55) rotate(-77.82)"/><polygon class="cls-21" points="1683.27 430.95 1699.4 378.54 1707 380.18 1700.07 434.58 1683.27 430.95"/><circle class="cls-21" cx="471.13" cy="694.69" r="25.16" transform="translate(237.08 571.91) rotate(-77.82)"/><ellipse class="cls-21" cx="510.08" cy="693.13" rx="3.59" ry="9.18" transform="translate(476.81 -381.45) rotate(-5.82)"/><polygon class="cls-21" points="1031.33 255.27 1054.34 254.91 1054.67 258.16 1032.06 262.45 1031.33 255.27"/><ellipse class="cls-21" cx="491.03" cy="742.69" rx="13.61" ry="5.33" transform="translate(286.33 -175.18) rotate(-23.82)"/><polygon class="cls-21" points="1026.47 272.8 1037.51 305.08 1033.09 307.03 1016.68 277.12 1026.47 272.8"/><ellipse class="cls-21" cx="441.03" cy="723.62" rx="3.59" ry="9.18" transform="translate(174.28 41.67) rotate(-41.82)"/><polygon class="cls-21" points="1004.87 274.24 986.46 288.06 984.28 285.62 1000.06 268.86 1004.87 274.24"/><ellipse class="cls-21" cx="422.64" cy="667.53" rx="15.16" ry="5.93" transform="translate(177.54 260.55) rotate(-59.82)"/><polygon class="cls-21" points="996.86 254.85 965.79 233.01 968.49 228.35 1002.85 244.56 996.86 254.85"/><ellipse class="cls-21" cx="480.98" cy="649.09" rx="5.08" ry="12.99" transform="translate(289.42 545.55) rotate(-77.82)"/><polygon class="cls-21" points="1013.71 243.04 1023.28 211.93 1027.79 212.9 1023.68 245.19 1013.71 243.04"/><rect class="cls-22" x="745.24" y="947.52" width="1114.65" height="188.63"/><text class="cls-23" transform="translate(1203.26 1087.84)">POSITIVE</text><rect class="cls-3" x="1080.12" y="1001.23" width="16.63" height="98.8"/><rect class="cls-3" x="535.71" y="1437.93" width="16.63" height="98.8" transform="translate(2575.77 506.62) rotate(90)"/><text x="544.41" y="-436.7"/></g></g></svg>