<svg xmlns="http://www.w3.org/2000/svg" viewBox="0 0 1908.07 1211.5"><defs><style>.cls-1{isolation:isolate;}.cls-2{fill:#fff;}.cls-3{fill:#c1f4f5;}.cls-4{fill:#2487be;}.cls-5{mix-blend-mode:soft-light;}.cls-6{fill:none;stroke-width:0.75px;}.cls-6,.cls-8{stroke:#350504;stroke-miterlimit:10;}.cls-7{fill:#da6e6d;}.cls-10,.cls-8{fill:#b15352;}.cls-8{stroke-width:0.74px;}.cls-9{fill:#350504;}.cls-11{fill:#ae4b27;}.cls-12{fill:#ffa258;}.cls-13{fill:#f05565;}</style></defs><title>positif-</title><g class="cls-1"><g id="Layer_1" data-name="Layer 1"><text x="544.41" y="-370.74"/><circle class="cls-2" cx="1302.32" cy="605.75" r="605.75"/><circle class="cls-3" cx="1169.02" cy="923.65" r="52.36" transform="translate(563.87 1500.67) rotate(-77.82)"/><ellipse class="cls-3" cx="1250.07" cy="920.41" rx="7.48" ry="19.11" transform="translate(457.58 -239.32) rotate(-5.82)"/><polygon class="cls-3" points="1746.27 547.25 1794.16 546.5 1794.85 553.26 1747.79 562.19 1746.27 547.25"/><ellipse class="cls-3" cx="1210.41" cy="1023.53" rx="28.32" ry="11.08" transform="translate(234.19 205.17) rotate(-23.82)"/><polygon class="cls-3" points="1736.15 583.72 1759.14 650.89 1749.93 654.95 1715.8 592.71 1736.15 583.72"/><ellipse class="cls-3" cx="1106.37" cy="983.84" rx="7.48" ry="19.11" transform="translate(170.25 617.53) rotate(-41.82)"/><polygon class="cls-3" points="1691.21 586.72 1652.9 615.47 1648.37 610.41 1681.2 575.53 1691.21 586.72"/><ellipse class="cls-3" cx="1068.1" cy="867.12" rx="31.54" ry="12.34" transform="translate(325.95 983.69) rotate(-59.82)"/><polygon class="cls-3" points="1674.55 546.38 1609.88 500.92 1615.51 491.23 1687 524.96 1674.55 546.38"/><ellipse class="cls-3" cx="1189.51" cy="828.74" rx="10.57" ry="27.02" transform="matrix(0.21, -0.98, 0.98, 0.21, 672.8, 1445.82)"/><polygon class="cls-3" points="1709.61 521.78 1729.53 457.06 1738.91 459.08 1730.36 526.26 1709.61 521.78"/><circle class="cls-3" cx="1016.02" cy="555.53" r="31.08" transform="translate(803 1060.69) rotate(-77.82)"/><ellipse class="cls-3" cx="1064.12" cy="553.6" rx="4.44" ry="11.34" transform="translate(493.8 -260.08) rotate(-5.81)"/><polygon class="cls-3" points="1579.92 181.43 1608.35 180.99 1608.76 185 1580.83 190.29 1579.92 181.43"/><ellipse class="cls-3" cx="1040.59" cy="614.81" rx="16.81" ry="6.58" transform="translate(384.76 101.8) rotate(-23.82)"/><polygon class="cls-3" points="1573.92 203.08 1587.56 242.94 1582.1 245.35 1561.84 208.41 1573.92 203.08"/><ellipse class="cls-3" cx="978.83" cy="591.25" rx="4.44" ry="11.34" transform="translate(399.52 432.47) rotate(-41.82)"/><polygon class="cls-3" points="1547.24 204.85 1524.51 221.92 1521.82 218.91 1541.3 198.21 1547.24 204.85"/><ellipse class="cls-3" cx="956.13" cy="521.97" rx="18.72" ry="7.33" transform="translate(568.61 715.27) rotate(-59.82)"/><polygon class="cls-3" points="1537.35 180.91 1498.97 153.93 1502.32 148.18 1544.75 168.2 1537.35 180.91"/><ellipse class="cls-3" cx="1028.18" cy="499.2" rx="6.28" ry="16.04" transform="translate(867.65 1028.13) rotate(-77.82)"/><polygon class="cls-3" points="1558.16 166.32 1569.99 127.9 1575.56 129.1 1570.48 168.97 1558.16 166.32"/><circle class="cls-3" cx="384.86" cy="982.15" r="31.08" transform="translate(-114.78 762) rotate(-76.81)"/><ellipse class="cls-3" cx="383.79" cy="934.02" rx="11.34" ry="4.44" transform="translate(467.49 -335.29) rotate(-4.81)"/><polygon class="cls-3" points="926.26 591.86 926.32 563.44 930.34 563.1 935.14 591.12 926.26 591.86"/><ellipse class="cls-3" cx="444.57" cy="958.63" rx="6.58" ry="16.81" transform="translate(207.56 -123.43) rotate(-22.81)"/><polygon class="cls-3" points="947.8 598.25 987.9 585.31 990.21 590.81 952.92 610.42 947.8 598.25"/><ellipse class="cls-3" cx="419.93" cy="1019.95" rx="11.34" ry="4.44" transform="translate(-20.07 151.64) rotate(-40.81)"/><polygon class="cls-3" points="949.11 624.95 965.77 647.98 962.72 650.62 942.36 630.77 949.11 624.95"/><ellipse class="cls-3" cx="350.26" cy="1041.44" rx="7.33" ry="18.72" transform="translate(-177.62 430.98) rotate(-58.81)"/><polygon class="cls-3" points="925 634.42 897.34 672.32 891.65 668.87 912.41 626.8 925 634.42"/><ellipse class="cls-3" cx="328.76" cy="969" rx="16.04" ry="6.28" transform="translate(-145.28 697.22) rotate(-76.81)"/><polygon class="cls-3" points="910.77 613.36 872.56 600.86 873.86 595.31 913.64 601.09 910.77 613.36"/><circle class="cls-3" cx="318.48" cy="734.95" r="27.35" transform="translate(73.13 497.85) rotate(-76.18)"/><ellipse class="cls-3" cx="276.12" cy="735.43" rx="3.91" ry="9.98" transform="translate(491.58 -348.67) rotate(-4.18)"/><polygon class="cls-3" points="845.66 366.68 820.65 366.35 820.39 362.81 845.09 358.86 845.66 366.68"/><ellipse class="cls-3" cx="298.36" cy="682.19" rx="14.79" ry="5.79" transform="translate(309 -207.67) rotate(-22.18)"/><polygon class="cls-3" points="851.49 347.79 840.5 312.38 845.36 310.39 862.25 343.4 851.49 347.79"/><ellipse class="cls-3" cx="352.08" cy="704.47" rx="3.91" ry="9.98" transform="translate(173.01 22.61) rotate(-40.18)"/><polygon class="cls-3" points="875 346.9 895.43 332.46 897.71 335.17 880.06 352.89 875 346.9"/><ellipse class="cls-3" cx="370.31" cy="765.97" rx="16.47" ry="6.45" transform="translate(68.63 305.95) rotate(-58.17)"/><polygon class="cls-3" points="883.09 368.2 916.17 392.9 913.09 397.88 876.27 379.2 883.09 368.2"/><ellipse class="cls-3" cx="306.36" cy="784.19" rx="5.52" ry="14.11" transform="translate(16.1 523.56) rotate(-76.18)"/><polygon class="cls-3" points="864.42 380.52 853.05 414.01 848.18 412.81 853.66 377.87 864.42 380.52"/><path class="cls-4" d="M329.18,1349.11S467.81,1037.65,728,1037.65s396.93,106.35,457.7,307.66Z" transform="translate(544.41 -370.74)"/><g class="cls-5"><path class="cls-2" d="M730.24,1171.7c92.92,0,200.34-11.83,313.37-46.93-2.42-1.84-4.89-3.62-7.37-5.4-236,71.89-446.57,41.53-549.63,17.59q-3.4,3-6.74,6C535,1156.12,622.91,1171.7,730.24,1171.7Z" transform="translate(544.41 -370.74)"/><path class="cls-2" d="M524.43,1106.87c42.83,12,119.32,28.53,214.83,28.53a791.89,791.89,0,0,0,255.4-41.85c-3.09-1.65-6.17-3.3-9.34-4.87-198.65,65.46-374.81,33.68-453,12.65Q528.36,1104.06,524.43,1106.87Z" transform="translate(544.41 -370.74)"/><path class="cls-2" d="M721.21,1208c107.32,0,230.86-12.45,361-49.07-2-2-4-4-6-6-264.12,73.41-500.28,46.5-627.4,20.72q-3,3.18-5.9,6.36C509,1193.72,605.69,1208,721.21,1208Z" transform="translate(544.41 -370.74)"/><path class="cls-2" d="M712.19,1244.31c119.45,0,256.23-12.71,400.45-49.59q-2.41-3.22-4.87-6.37c-286.15,72.56-542.27,49.28-691.32,22.55q-2.66,3.31-5.24,6.6A1692.27,1692.27,0,0,0,712.19,1244.31Z" transform="translate(544.41 -370.74)"/><path class="cls-2" d="M694.13,1316.92c139,0,296.27-12.72,462.38-48.38-1.06-2.26-2.12-4.52-3.21-6.74-318.19,68-603.55,51-789.59,24q-2.16,3.51-4.18,6.87A2314.38,2314.38,0,0,0,694.13,1316.92Z" transform="translate(544.41 -370.74)"/><path class="cls-2" d="M703.17,1280.61c129.89,0,277.75-12.76,433.8-49.22-1.31-2.22-2.61-4.45-3.95-6.63-303.82,70.55-576,50.62-744.66,23.53q-2.39,3.41-4.69,6.76A2002.16,2002.16,0,0,0,703.17,1280.61Z" transform="translate(544.41 -370.74)"/></g><path class="cls-6" d="M525.55,1267.89s-4.7,17.23-7.83,79.88" transform="translate(544.41 -370.74)"/><path class="cls-6" d="M989.32,1267.89s4.7,17.23,7.83,79.88" transform="translate(544.41 -370.74)"/><path class="cls-7" d="M538.15,743.51s-38.81-46-64.32-21.3,16.1,105.53,67.09,87.94Z" transform="translate(544.41 -370.74)"/><path class="cls-6" d="M528.36,765.84s-23.9-36.56-44.89-22.9" transform="translate(544.41 -370.74)"/><path class="cls-6" d="M502.37,768.69s-9.89-17.6,7.41-23.28" transform="translate(544.41 -370.74)"/><path class="cls-7" d="M832.14,745.5s41.69-46,65.65-21.3S875.1,829.74,825.2,812.14Z" transform="translate(544.41 -370.74)"/><path class="cls-6" d="M840.53,767.83s26.19-36.56,46.33-22.9" transform="translate(544.41 -370.74)"/><path class="cls-6" d="M866.34,770.69s11-17.6-6-23.28" transform="translate(544.41 -370.74)"/><path class="cls-7" d="M848.37,1019.89s-6.12-52.75.44-119.49C863.22,753.61,865.07,557.69,695,556.66c-258.31-1.56-199.94,392.76-71,413l-2.76,62.11S740.39,1079.29,848.37,1019.89Z" transform="translate(544.41 -370.74)"/><polyline class="cls-8" points="1173.49 370.44 1163.65 430.78 1180.58 434.29"/><path class="cls-9" d="M692,787.17a8.48,8.48,0,0,1-8.64,7.94,7.87,7.87,0,0,1-7.68-8.39,8.48,8.48,0,0,1,8.64-7.94A7.87,7.87,0,0,1,692,787.17Z" transform="translate(544.41 -370.74)"/><path class="cls-9" d="M722.68,769.37c-5.56,4-16-3.46-25.26-7.45s-29.5-6.07-27.41-18.73,16.88-4.41,31.09,2.61S729.67,764.33,722.68,769.37Z" transform="translate(544.41 -370.74)"/><path class="cls-9" d="M598.32,784.37a8.48,8.48,0,0,1-8.64,7.94,7.87,7.87,0,0,1-7.68-8.39,8.48,8.48,0,0,1,8.64-7.94A7.86,7.86,0,0,1,598.32,784.37Z" transform="translate(544.41 -370.74)"/><path class="cls-9" d="M556.25,766.57c5.39,3.84,15.4-3.41,24.35-7.3s28.44-6,26.37-18.2-18.17-3.34-31.86,3.5S549.48,761.73,556.25,766.57Z" transform="translate(544.41 -370.74)"/><path class="cls-6" d="M624.94,837.93s21.24-12.65,41.52,6" transform="translate(544.41 -370.74)"/><path class="cls-10" d="M758,785.29c33.9,0,60.74,20.61,59.95,46s-28.92,46-62.82,46-60.74-20.61-59.95-46S724.13,785.29,758,785.29Z" transform="translate(544.41 -370.74)"/><path class="cls-10" d="M525.06,781.35a69,69,0,0,0-9.52.68,395.72,395.72,0,0,0,13.62,82.92C557,862.45,579,844.78,579.7,823.31,580.42,800.13,556,781.35,525.06,781.35Z" transform="translate(544.41 -370.74)"/><path class="cls-10" d="M734.36,949.21s-33.45,23.84-65,24.09c-22.83.18-39.6-2.43-45.32-3.61l-2.27,43.45C690.44,1006.08,734.36,949.21,734.36,949.21Z" transform="translate(544.41 -370.74)"/><path class="cls-11" d="M622.54,969.21c-0.79-.12-0.86-0.08-0.41.05l0.4,0.08v-0.14Z" transform="translate(544.41 -370.74)"/><path class="cls-6" d="M622.57,971.13s68.55,11,119.64-26.48" transform="translate(544.41 -370.74)"/><path class="cls-6" d="M520,717.94s-15.07,88.83,19.66,166.24" transform="translate(544.41 -370.74)"/><path class="cls-6" d="M848.37,1019.89s-82,60.72-227.12,11.86" transform="translate(544.41 -370.74)"/><path class="cls-9" d="M513.09,763.42s57.87-16.19,61.15-90.67c0,0,6,49.65,45.86,49.65s51.32-45.34,51.32-45.34,10.37,45.34,38.77,46.42,37.13-32.92,37.13-32.92,44.22,92.29,140.86,61l-18-45.61s38.13-64.83-11.49-135.74c-48-68.57-145.78-53.43-183.45-22.13,0,0-42.59-50.73-138.68,4.86s-47.5,149.5-87.36,161.92c0,0,6,28.07,62.79,11.87Z" transform="translate(544.41 -370.74)"/><path class="cls-9" d="M854.45,829.19c1.71-36.62,1.43-73.95-2.89-108.87l-21.42,9.46S842.42,797.28,854.45,829.19Z" transform="translate(544.41 -370.74)"/><path class="cls-12" d="M790.24,1349.2s-5.58-33.5,1.12-86,21.22-87.1,21.22-123.95-38-67-38-67L884,1038.77s38,31.27,33.5,105,3.35,173.08,34.62,206.58Z" transform="translate(544.41 -370.74)"/><path class="cls-12" d="M587.81,1059.17s-18.13-83.73,27.62-80.28,64.74,19.85,139,7.77,120-46.61,133.79-29.35,35.39,85.46,21.58,98.4S677.58,1123.9,587.81,1059.17Z" transform="translate(544.41 -370.74)"/><path class="cls-6" d="M774.66,1085.2s97.4-7.42,135.12-29.48" transform="translate(544.41 -370.74)"/><path class="cls-13" d="M273.26,1339.89C383.77,1487,559.71,1582.24,757.9,1582.24S1132,1487,1242.55,1339.89H273.26Z" transform="translate(544.41 -370.74)"/><rect class="cls-2" x="1292.05" y="1029.31" width="20.53" height="122.03"/><rect class="cls-2" x="747.64" y="1400.05" width="20.53" height="122.03" transform="translate(2763.38 332.42) rotate(90)"/></g></g></svg>